G04 (created by PCBNEW (2010-00-09 BZR 23xx)-stable) date Wed 31 Aug 2011 10:04:35 AM CEST*
G01*
G70*
G90*
%MOIN*%
G04 Gerber Fmt 3.4, Leading zero omitted, Abs format*
%FSLAX34Y34*%
G04 APERTURE LIST*
%ADD10C,0.001000*%
%ADD11C,0.015000*%
%ADD12C,0.008000*%
G04 APERTURE END LIST*
G54D10*
G54D11*
X20750Y-52500D02*
X20750Y-17000D01*
X83250Y-52500D02*
X20750Y-52500D01*
X83250Y-17000D02*
X83250Y-52500D01*
X20750Y-17000D02*
X83250Y-17000D01*
G54D10*
X37863Y-50763D02*
X38137Y-51037D01*
X38137Y-50763D02*
X37863Y-51037D01*
X25890Y-33250D02*
X25887Y-33277D01*
X25879Y-33303D01*
X25866Y-33327D01*
X25849Y-33348D01*
X25828Y-33366D01*
X25804Y-33379D01*
X25778Y-33387D01*
X25750Y-33389D01*
X25724Y-33387D01*
X25698Y-33379D01*
X25674Y-33367D01*
X25653Y-33350D01*
X25635Y-33329D01*
X25622Y-33305D01*
X25614Y-33279D01*
X25611Y-33251D01*
X25613Y-33225D01*
X25620Y-33199D01*
X25633Y-33175D01*
X25650Y-33153D01*
X25671Y-33136D01*
X25694Y-33122D01*
X25720Y-33114D01*
X25748Y-33111D01*
X25774Y-33113D01*
X25800Y-33120D01*
X25825Y-33132D01*
X25846Y-33149D01*
X25864Y-33170D01*
X25877Y-33194D01*
X25886Y-33219D01*
X25889Y-33247D01*
X25890Y-33250D01*
X25890Y-34000D02*
X25887Y-34027D01*
X25879Y-34053D01*
X25866Y-34077D01*
X25849Y-34098D01*
X25828Y-34116D01*
X25804Y-34129D01*
X25778Y-34137D01*
X25750Y-34139D01*
X25724Y-34137D01*
X25698Y-34129D01*
X25674Y-34117D01*
X25653Y-34100D01*
X25635Y-34079D01*
X25622Y-34055D01*
X25614Y-34029D01*
X25611Y-34001D01*
X25613Y-33975D01*
X25620Y-33949D01*
X25633Y-33925D01*
X25650Y-33903D01*
X25671Y-33886D01*
X25694Y-33872D01*
X25720Y-33864D01*
X25748Y-33861D01*
X25774Y-33863D01*
X25800Y-33870D01*
X25825Y-33882D01*
X25846Y-33899D01*
X25864Y-33920D01*
X25877Y-33944D01*
X25886Y-33969D01*
X25889Y-33997D01*
X25890Y-34000D01*
X28640Y-34000D02*
X28637Y-34027D01*
X28629Y-34053D01*
X28616Y-34077D01*
X28599Y-34098D01*
X28578Y-34116D01*
X28554Y-34129D01*
X28528Y-34137D01*
X28500Y-34139D01*
X28474Y-34137D01*
X28448Y-34129D01*
X28424Y-34117D01*
X28403Y-34100D01*
X28385Y-34079D01*
X28372Y-34055D01*
X28364Y-34029D01*
X28361Y-34001D01*
X28363Y-33975D01*
X28370Y-33949D01*
X28383Y-33925D01*
X28400Y-33903D01*
X28421Y-33886D01*
X28444Y-33872D01*
X28470Y-33864D01*
X28498Y-33861D01*
X28524Y-33863D01*
X28550Y-33870D01*
X28575Y-33882D01*
X28596Y-33899D01*
X28614Y-33920D01*
X28627Y-33944D01*
X28636Y-33969D01*
X28639Y-33997D01*
X28640Y-34000D01*
X30640Y-33250D02*
X30637Y-33277D01*
X30629Y-33303D01*
X30616Y-33327D01*
X30599Y-33348D01*
X30578Y-33366D01*
X30554Y-33379D01*
X30528Y-33387D01*
X30500Y-33389D01*
X30474Y-33387D01*
X30448Y-33379D01*
X30424Y-33367D01*
X30403Y-33350D01*
X30385Y-33329D01*
X30372Y-33305D01*
X30364Y-33279D01*
X30361Y-33251D01*
X30363Y-33225D01*
X30370Y-33199D01*
X30383Y-33175D01*
X30400Y-33153D01*
X30421Y-33136D01*
X30444Y-33122D01*
X30470Y-33114D01*
X30498Y-33111D01*
X30524Y-33113D01*
X30550Y-33120D01*
X30575Y-33132D01*
X30596Y-33149D01*
X30614Y-33170D01*
X30627Y-33194D01*
X30636Y-33219D01*
X30639Y-33247D01*
X30640Y-33250D01*
X32640Y-29750D02*
X32637Y-29777D01*
X32629Y-29803D01*
X32616Y-29827D01*
X32599Y-29848D01*
X32578Y-29866D01*
X32554Y-29879D01*
X32528Y-29887D01*
X32500Y-29889D01*
X32474Y-29887D01*
X32448Y-29879D01*
X32424Y-29867D01*
X32403Y-29850D01*
X32385Y-29829D01*
X32372Y-29805D01*
X32364Y-29779D01*
X32361Y-29751D01*
X32363Y-29725D01*
X32370Y-29699D01*
X32383Y-29675D01*
X32400Y-29653D01*
X32421Y-29636D01*
X32444Y-29622D01*
X32470Y-29614D01*
X32498Y-29611D01*
X32524Y-29613D01*
X32550Y-29620D01*
X32575Y-29632D01*
X32596Y-29649D01*
X32614Y-29670D01*
X32627Y-29694D01*
X32636Y-29719D01*
X32639Y-29747D01*
X32640Y-29750D01*
X32640Y-33250D02*
X32637Y-33277D01*
X32629Y-33303D01*
X32616Y-33327D01*
X32599Y-33348D01*
X32578Y-33366D01*
X32554Y-33379D01*
X32528Y-33387D01*
X32500Y-33389D01*
X32474Y-33387D01*
X32448Y-33379D01*
X32424Y-33367D01*
X32403Y-33350D01*
X32385Y-33329D01*
X32372Y-33305D01*
X32364Y-33279D01*
X32361Y-33251D01*
X32363Y-33225D01*
X32370Y-33199D01*
X32383Y-33175D01*
X32400Y-33153D01*
X32421Y-33136D01*
X32444Y-33122D01*
X32470Y-33114D01*
X32498Y-33111D01*
X32524Y-33113D01*
X32550Y-33120D01*
X32575Y-33132D01*
X32596Y-33149D01*
X32614Y-33170D01*
X32627Y-33194D01*
X32636Y-33219D01*
X32639Y-33247D01*
X32640Y-33250D01*
X34640Y-40000D02*
X34637Y-40027D01*
X34629Y-40053D01*
X34616Y-40077D01*
X34599Y-40098D01*
X34578Y-40116D01*
X34554Y-40129D01*
X34528Y-40137D01*
X34500Y-40139D01*
X34474Y-40137D01*
X34448Y-40129D01*
X34424Y-40117D01*
X34403Y-40100D01*
X34385Y-40079D01*
X34372Y-40055D01*
X34364Y-40029D01*
X34361Y-40001D01*
X34363Y-39975D01*
X34370Y-39949D01*
X34383Y-39925D01*
X34400Y-39903D01*
X34421Y-39886D01*
X34444Y-39872D01*
X34470Y-39864D01*
X34498Y-39861D01*
X34524Y-39863D01*
X34550Y-39870D01*
X34575Y-39882D01*
X34596Y-39899D01*
X34614Y-39920D01*
X34627Y-39944D01*
X34636Y-39969D01*
X34639Y-39997D01*
X34640Y-40000D01*
X34640Y-46000D02*
X34637Y-46027D01*
X34629Y-46053D01*
X34616Y-46077D01*
X34599Y-46098D01*
X34578Y-46116D01*
X34554Y-46129D01*
X34528Y-46137D01*
X34500Y-46139D01*
X34474Y-46137D01*
X34448Y-46129D01*
X34424Y-46117D01*
X34403Y-46100D01*
X34385Y-46079D01*
X34372Y-46055D01*
X34364Y-46029D01*
X34361Y-46001D01*
X34363Y-45975D01*
X34370Y-45949D01*
X34383Y-45925D01*
X34400Y-45903D01*
X34421Y-45886D01*
X34444Y-45872D01*
X34470Y-45864D01*
X34498Y-45861D01*
X34524Y-45863D01*
X34550Y-45870D01*
X34575Y-45882D01*
X34596Y-45899D01*
X34614Y-45920D01*
X34627Y-45944D01*
X34636Y-45969D01*
X34639Y-45997D01*
X34640Y-46000D01*
X35140Y-29750D02*
X35137Y-29777D01*
X35129Y-29803D01*
X35116Y-29827D01*
X35099Y-29848D01*
X35078Y-29866D01*
X35054Y-29879D01*
X35028Y-29887D01*
X35000Y-29889D01*
X34974Y-29887D01*
X34948Y-29879D01*
X34924Y-29867D01*
X34903Y-29850D01*
X34885Y-29829D01*
X34872Y-29805D01*
X34864Y-29779D01*
X34861Y-29751D01*
X34863Y-29725D01*
X34870Y-29699D01*
X34883Y-29675D01*
X34900Y-29653D01*
X34921Y-29636D01*
X34944Y-29622D01*
X34970Y-29614D01*
X34998Y-29611D01*
X35024Y-29613D01*
X35050Y-29620D01*
X35075Y-29632D01*
X35096Y-29649D01*
X35114Y-29670D01*
X35127Y-29694D01*
X35136Y-29719D01*
X35139Y-29747D01*
X35140Y-29750D01*
X36640Y-29750D02*
X36637Y-29777D01*
X36629Y-29803D01*
X36616Y-29827D01*
X36599Y-29848D01*
X36578Y-29866D01*
X36554Y-29879D01*
X36528Y-29887D01*
X36500Y-29889D01*
X36474Y-29887D01*
X36448Y-29879D01*
X36424Y-29867D01*
X36403Y-29850D01*
X36385Y-29829D01*
X36372Y-29805D01*
X36364Y-29779D01*
X36361Y-29751D01*
X36363Y-29725D01*
X36370Y-29699D01*
X36383Y-29675D01*
X36400Y-29653D01*
X36421Y-29636D01*
X36444Y-29622D01*
X36470Y-29614D01*
X36498Y-29611D01*
X36524Y-29613D01*
X36550Y-29620D01*
X36575Y-29632D01*
X36596Y-29649D01*
X36614Y-29670D01*
X36627Y-29694D01*
X36636Y-29719D01*
X36639Y-29747D01*
X36640Y-29750D01*
X37390Y-25250D02*
X37387Y-25277D01*
X37379Y-25303D01*
X37366Y-25327D01*
X37349Y-25348D01*
X37328Y-25366D01*
X37304Y-25379D01*
X37278Y-25387D01*
X37250Y-25389D01*
X37224Y-25387D01*
X37198Y-25379D01*
X37174Y-25367D01*
X37153Y-25350D01*
X37135Y-25329D01*
X37122Y-25305D01*
X37114Y-25279D01*
X37111Y-25251D01*
X37113Y-25225D01*
X37120Y-25199D01*
X37133Y-25175D01*
X37150Y-25153D01*
X37171Y-25136D01*
X37194Y-25122D01*
X37220Y-25114D01*
X37248Y-25111D01*
X37274Y-25113D01*
X37300Y-25120D01*
X37325Y-25132D01*
X37346Y-25149D01*
X37364Y-25170D01*
X37377Y-25194D01*
X37386Y-25219D01*
X37389Y-25247D01*
X37390Y-25250D01*
X37390Y-29750D02*
X37387Y-29777D01*
X37379Y-29803D01*
X37366Y-29827D01*
X37349Y-29848D01*
X37328Y-29866D01*
X37304Y-29879D01*
X37278Y-29887D01*
X37250Y-29889D01*
X37224Y-29887D01*
X37198Y-29879D01*
X37174Y-29867D01*
X37153Y-29850D01*
X37135Y-29829D01*
X37122Y-29805D01*
X37114Y-29779D01*
X37111Y-29751D01*
X37113Y-29725D01*
X37120Y-29699D01*
X37133Y-29675D01*
X37150Y-29653D01*
X37171Y-29636D01*
X37194Y-29622D01*
X37220Y-29614D01*
X37248Y-29611D01*
X37274Y-29613D01*
X37300Y-29620D01*
X37325Y-29632D01*
X37346Y-29649D01*
X37364Y-29670D01*
X37377Y-29694D01*
X37386Y-29719D01*
X37389Y-29747D01*
X37390Y-29750D01*
X37890Y-22750D02*
X37887Y-22777D01*
X37879Y-22803D01*
X37866Y-22827D01*
X37849Y-22848D01*
X37828Y-22866D01*
X37804Y-22879D01*
X37778Y-22887D01*
X37750Y-22889D01*
X37724Y-22887D01*
X37698Y-22879D01*
X37674Y-22867D01*
X37653Y-22850D01*
X37635Y-22829D01*
X37622Y-22805D01*
X37614Y-22779D01*
X37611Y-22751D01*
X37613Y-22725D01*
X37620Y-22699D01*
X37633Y-22675D01*
X37650Y-22653D01*
X37671Y-22636D01*
X37694Y-22622D01*
X37720Y-22614D01*
X37748Y-22611D01*
X37774Y-22613D01*
X37800Y-22620D01*
X37825Y-22632D01*
X37846Y-22649D01*
X37864Y-22670D01*
X37877Y-22694D01*
X37886Y-22719D01*
X37889Y-22747D01*
X37890Y-22750D01*
X37890Y-29250D02*
X37887Y-29277D01*
X37879Y-29303D01*
X37866Y-29327D01*
X37849Y-29348D01*
X37828Y-29366D01*
X37804Y-29379D01*
X37778Y-29387D01*
X37750Y-29389D01*
X37724Y-29387D01*
X37698Y-29379D01*
X37674Y-29367D01*
X37653Y-29350D01*
X37635Y-29329D01*
X37622Y-29305D01*
X37614Y-29279D01*
X37611Y-29251D01*
X37613Y-29225D01*
X37620Y-29199D01*
X37633Y-29175D01*
X37650Y-29153D01*
X37671Y-29136D01*
X37694Y-29122D01*
X37720Y-29114D01*
X37748Y-29111D01*
X37774Y-29113D01*
X37800Y-29120D01*
X37825Y-29132D01*
X37846Y-29149D01*
X37864Y-29170D01*
X37877Y-29194D01*
X37886Y-29219D01*
X37889Y-29247D01*
X37890Y-29250D01*
X38390Y-20250D02*
X38387Y-20277D01*
X38379Y-20303D01*
X38366Y-20327D01*
X38349Y-20348D01*
X38328Y-20366D01*
X38304Y-20379D01*
X38278Y-20387D01*
X38250Y-20389D01*
X38224Y-20387D01*
X38198Y-20379D01*
X38174Y-20367D01*
X38153Y-20350D01*
X38135Y-20329D01*
X38122Y-20305D01*
X38114Y-20279D01*
X38111Y-20251D01*
X38113Y-20225D01*
X38120Y-20199D01*
X38133Y-20175D01*
X38150Y-20153D01*
X38171Y-20136D01*
X38194Y-20122D01*
X38220Y-20114D01*
X38248Y-20111D01*
X38274Y-20113D01*
X38300Y-20120D01*
X38325Y-20132D01*
X38346Y-20149D01*
X38364Y-20170D01*
X38377Y-20194D01*
X38386Y-20219D01*
X38389Y-20247D01*
X38390Y-20250D01*
X38390Y-28750D02*
X38387Y-28777D01*
X38379Y-28803D01*
X38366Y-28827D01*
X38349Y-28848D01*
X38328Y-28866D01*
X38304Y-28879D01*
X38278Y-28887D01*
X38250Y-28889D01*
X38224Y-28887D01*
X38198Y-28879D01*
X38174Y-28867D01*
X38153Y-28850D01*
X38135Y-28829D01*
X38122Y-28805D01*
X38114Y-28779D01*
X38111Y-28751D01*
X38113Y-28725D01*
X38120Y-28699D01*
X38133Y-28675D01*
X38150Y-28653D01*
X38171Y-28636D01*
X38194Y-28622D01*
X38220Y-28614D01*
X38248Y-28611D01*
X38274Y-28613D01*
X38300Y-28620D01*
X38325Y-28632D01*
X38346Y-28649D01*
X38364Y-28670D01*
X38377Y-28694D01*
X38386Y-28719D01*
X38389Y-28747D01*
X38390Y-28750D01*
X39140Y-43750D02*
X39137Y-43777D01*
X39129Y-43803D01*
X39116Y-43827D01*
X39099Y-43848D01*
X39078Y-43866D01*
X39054Y-43879D01*
X39028Y-43887D01*
X39000Y-43889D01*
X38974Y-43887D01*
X38948Y-43879D01*
X38924Y-43867D01*
X38903Y-43850D01*
X38885Y-43829D01*
X38872Y-43805D01*
X38864Y-43779D01*
X38861Y-43751D01*
X38863Y-43725D01*
X38870Y-43699D01*
X38883Y-43675D01*
X38900Y-43653D01*
X38921Y-43636D01*
X38944Y-43622D01*
X38970Y-43614D01*
X38998Y-43611D01*
X39024Y-43613D01*
X39050Y-43620D01*
X39075Y-43632D01*
X39096Y-43649D01*
X39114Y-43670D01*
X39127Y-43694D01*
X39136Y-43719D01*
X39139Y-43747D01*
X39140Y-43750D01*
X39140Y-46750D02*
X39137Y-46777D01*
X39129Y-46803D01*
X39116Y-46827D01*
X39099Y-46848D01*
X39078Y-46866D01*
X39054Y-46879D01*
X39028Y-46887D01*
X39000Y-46889D01*
X38974Y-46887D01*
X38948Y-46879D01*
X38924Y-46867D01*
X38903Y-46850D01*
X38885Y-46829D01*
X38872Y-46805D01*
X38864Y-46779D01*
X38861Y-46751D01*
X38863Y-46725D01*
X38870Y-46699D01*
X38883Y-46675D01*
X38900Y-46653D01*
X38921Y-46636D01*
X38944Y-46622D01*
X38970Y-46614D01*
X38998Y-46611D01*
X39024Y-46613D01*
X39050Y-46620D01*
X39075Y-46632D01*
X39096Y-46649D01*
X39114Y-46670D01*
X39127Y-46694D01*
X39136Y-46719D01*
X39139Y-46747D01*
X39140Y-46750D01*
X40390Y-37500D02*
X40387Y-37527D01*
X40379Y-37553D01*
X40366Y-37577D01*
X40349Y-37598D01*
X40328Y-37616D01*
X40304Y-37629D01*
X40278Y-37637D01*
X40250Y-37639D01*
X40224Y-37637D01*
X40198Y-37629D01*
X40174Y-37617D01*
X40153Y-37600D01*
X40135Y-37579D01*
X40122Y-37555D01*
X40114Y-37529D01*
X40111Y-37501D01*
X40113Y-37475D01*
X40120Y-37449D01*
X40133Y-37425D01*
X40150Y-37403D01*
X40171Y-37386D01*
X40194Y-37372D01*
X40220Y-37364D01*
X40248Y-37361D01*
X40274Y-37363D01*
X40300Y-37370D01*
X40325Y-37382D01*
X40346Y-37399D01*
X40364Y-37420D01*
X40377Y-37444D01*
X40386Y-37469D01*
X40389Y-37497D01*
X40390Y-37500D01*
X41890Y-31500D02*
X41887Y-31527D01*
X41879Y-31553D01*
X41866Y-31577D01*
X41849Y-31598D01*
X41828Y-31616D01*
X41804Y-31629D01*
X41778Y-31637D01*
X41750Y-31639D01*
X41724Y-31637D01*
X41698Y-31629D01*
X41674Y-31617D01*
X41653Y-31600D01*
X41635Y-31579D01*
X41622Y-31555D01*
X41614Y-31529D01*
X41611Y-31501D01*
X41613Y-31475D01*
X41620Y-31449D01*
X41633Y-31425D01*
X41650Y-31403D01*
X41671Y-31386D01*
X41694Y-31372D01*
X41720Y-31364D01*
X41748Y-31361D01*
X41774Y-31363D01*
X41800Y-31370D01*
X41825Y-31382D01*
X41846Y-31399D01*
X41864Y-31420D01*
X41877Y-31444D01*
X41886Y-31469D01*
X41889Y-31497D01*
X41890Y-31500D01*
X41890Y-35000D02*
X41887Y-35027D01*
X41879Y-35053D01*
X41866Y-35077D01*
X41849Y-35098D01*
X41828Y-35116D01*
X41804Y-35129D01*
X41778Y-35137D01*
X41750Y-35139D01*
X41724Y-35137D01*
X41698Y-35129D01*
X41674Y-35117D01*
X41653Y-35100D01*
X41635Y-35079D01*
X41622Y-35055D01*
X41614Y-35029D01*
X41611Y-35001D01*
X41613Y-34975D01*
X41620Y-34949D01*
X41633Y-34925D01*
X41650Y-34903D01*
X41671Y-34886D01*
X41694Y-34872D01*
X41720Y-34864D01*
X41748Y-34861D01*
X41774Y-34863D01*
X41800Y-34870D01*
X41825Y-34882D01*
X41846Y-34899D01*
X41864Y-34920D01*
X41877Y-34944D01*
X41886Y-34969D01*
X41889Y-34997D01*
X41890Y-35000D01*
X42640Y-36000D02*
X42637Y-36027D01*
X42629Y-36053D01*
X42616Y-36077D01*
X42599Y-36098D01*
X42578Y-36116D01*
X42554Y-36129D01*
X42528Y-36137D01*
X42500Y-36139D01*
X42474Y-36137D01*
X42448Y-36129D01*
X42424Y-36117D01*
X42403Y-36100D01*
X42385Y-36079D01*
X42372Y-36055D01*
X42364Y-36029D01*
X42361Y-36001D01*
X42363Y-35975D01*
X42370Y-35949D01*
X42383Y-35925D01*
X42400Y-35903D01*
X42421Y-35886D01*
X42444Y-35872D01*
X42470Y-35864D01*
X42498Y-35861D01*
X42524Y-35863D01*
X42550Y-35870D01*
X42575Y-35882D01*
X42596Y-35899D01*
X42614Y-35920D01*
X42627Y-35944D01*
X42636Y-35969D01*
X42639Y-35997D01*
X42640Y-36000D01*
X42890Y-19500D02*
X42887Y-19527D01*
X42879Y-19553D01*
X42866Y-19577D01*
X42849Y-19598D01*
X42828Y-19616D01*
X42804Y-19629D01*
X42778Y-19637D01*
X42750Y-19639D01*
X42724Y-19637D01*
X42698Y-19629D01*
X42674Y-19617D01*
X42653Y-19600D01*
X42635Y-19579D01*
X42622Y-19555D01*
X42614Y-19529D01*
X42611Y-19501D01*
X42613Y-19475D01*
X42620Y-19449D01*
X42633Y-19425D01*
X42650Y-19403D01*
X42671Y-19386D01*
X42694Y-19372D01*
X42720Y-19364D01*
X42748Y-19361D01*
X42774Y-19363D01*
X42800Y-19370D01*
X42825Y-19382D01*
X42846Y-19399D01*
X42864Y-19420D01*
X42877Y-19444D01*
X42886Y-19469D01*
X42889Y-19497D01*
X42890Y-19500D01*
X42890Y-28250D02*
X42887Y-28277D01*
X42879Y-28303D01*
X42866Y-28327D01*
X42849Y-28348D01*
X42828Y-28366D01*
X42804Y-28379D01*
X42778Y-28387D01*
X42750Y-28389D01*
X42724Y-28387D01*
X42698Y-28379D01*
X42674Y-28367D01*
X42653Y-28350D01*
X42635Y-28329D01*
X42622Y-28305D01*
X42614Y-28279D01*
X42611Y-28251D01*
X42613Y-28225D01*
X42620Y-28199D01*
X42633Y-28175D01*
X42650Y-28153D01*
X42671Y-28136D01*
X42694Y-28122D01*
X42720Y-28114D01*
X42748Y-28111D01*
X42774Y-28113D01*
X42800Y-28120D01*
X42825Y-28132D01*
X42846Y-28149D01*
X42864Y-28170D01*
X42877Y-28194D01*
X42886Y-28219D01*
X42889Y-28247D01*
X42890Y-28250D01*
X43140Y-43250D02*
X43137Y-43277D01*
X43129Y-43303D01*
X43116Y-43327D01*
X43099Y-43348D01*
X43078Y-43366D01*
X43054Y-43379D01*
X43028Y-43387D01*
X43000Y-43389D01*
X42974Y-43387D01*
X42948Y-43379D01*
X42924Y-43367D01*
X42903Y-43350D01*
X42885Y-43329D01*
X42872Y-43305D01*
X42864Y-43279D01*
X42861Y-43251D01*
X42863Y-43225D01*
X42870Y-43199D01*
X42883Y-43175D01*
X42900Y-43153D01*
X42921Y-43136D01*
X42944Y-43122D01*
X42970Y-43114D01*
X42998Y-43111D01*
X43024Y-43113D01*
X43050Y-43120D01*
X43075Y-43132D01*
X43096Y-43149D01*
X43114Y-43170D01*
X43127Y-43194D01*
X43136Y-43219D01*
X43139Y-43247D01*
X43140Y-43250D01*
X43140Y-44250D02*
X43137Y-44277D01*
X43129Y-44303D01*
X43116Y-44327D01*
X43099Y-44348D01*
X43078Y-44366D01*
X43054Y-44379D01*
X43028Y-44387D01*
X43000Y-44389D01*
X42974Y-44387D01*
X42948Y-44379D01*
X42924Y-44367D01*
X42903Y-44350D01*
X42885Y-44329D01*
X42872Y-44305D01*
X42864Y-44279D01*
X42861Y-44251D01*
X42863Y-44225D01*
X42870Y-44199D01*
X42883Y-44175D01*
X42900Y-44153D01*
X42921Y-44136D01*
X42944Y-44122D01*
X42970Y-44114D01*
X42998Y-44111D01*
X43024Y-44113D01*
X43050Y-44120D01*
X43075Y-44132D01*
X43096Y-44149D01*
X43114Y-44170D01*
X43127Y-44194D01*
X43136Y-44219D01*
X43139Y-44247D01*
X43140Y-44250D01*
X43140Y-46000D02*
X43137Y-46027D01*
X43129Y-46053D01*
X43116Y-46077D01*
X43099Y-46098D01*
X43078Y-46116D01*
X43054Y-46129D01*
X43028Y-46137D01*
X43000Y-46139D01*
X42974Y-46137D01*
X42948Y-46129D01*
X42924Y-46117D01*
X42903Y-46100D01*
X42885Y-46079D01*
X42872Y-46055D01*
X42864Y-46029D01*
X42861Y-46001D01*
X42863Y-45975D01*
X42870Y-45949D01*
X42883Y-45925D01*
X42900Y-45903D01*
X42921Y-45886D01*
X42944Y-45872D01*
X42970Y-45864D01*
X42998Y-45861D01*
X43024Y-45863D01*
X43050Y-45870D01*
X43075Y-45882D01*
X43096Y-45899D01*
X43114Y-45920D01*
X43127Y-45944D01*
X43136Y-45969D01*
X43139Y-45997D01*
X43140Y-46000D01*
X43640Y-32000D02*
X43637Y-32027D01*
X43629Y-32053D01*
X43616Y-32077D01*
X43599Y-32098D01*
X43578Y-32116D01*
X43554Y-32129D01*
X43528Y-32137D01*
X43500Y-32139D01*
X43474Y-32137D01*
X43448Y-32129D01*
X43424Y-32117D01*
X43403Y-32100D01*
X43385Y-32079D01*
X43372Y-32055D01*
X43364Y-32029D01*
X43361Y-32001D01*
X43363Y-31975D01*
X43370Y-31949D01*
X43383Y-31925D01*
X43400Y-31903D01*
X43421Y-31886D01*
X43444Y-31872D01*
X43470Y-31864D01*
X43498Y-31861D01*
X43524Y-31863D01*
X43550Y-31870D01*
X43575Y-31882D01*
X43596Y-31899D01*
X43614Y-31920D01*
X43627Y-31944D01*
X43636Y-31969D01*
X43639Y-31997D01*
X43640Y-32000D01*
X43640Y-34500D02*
X43637Y-34527D01*
X43629Y-34553D01*
X43616Y-34577D01*
X43599Y-34598D01*
X43578Y-34616D01*
X43554Y-34629D01*
X43528Y-34637D01*
X43500Y-34639D01*
X43474Y-34637D01*
X43448Y-34629D01*
X43424Y-34617D01*
X43403Y-34600D01*
X43385Y-34579D01*
X43372Y-34555D01*
X43364Y-34529D01*
X43361Y-34501D01*
X43363Y-34475D01*
X43370Y-34449D01*
X43383Y-34425D01*
X43400Y-34403D01*
X43421Y-34386D01*
X43444Y-34372D01*
X43470Y-34364D01*
X43498Y-34361D01*
X43524Y-34363D01*
X43550Y-34370D01*
X43575Y-34382D01*
X43596Y-34399D01*
X43614Y-34420D01*
X43627Y-34444D01*
X43636Y-34469D01*
X43639Y-34497D01*
X43640Y-34500D01*
X44140Y-26750D02*
X44137Y-26777D01*
X44129Y-26803D01*
X44116Y-26827D01*
X44099Y-26848D01*
X44078Y-26866D01*
X44054Y-26879D01*
X44028Y-26887D01*
X44000Y-26889D01*
X43974Y-26887D01*
X43948Y-26879D01*
X43924Y-26867D01*
X43903Y-26850D01*
X43885Y-26829D01*
X43872Y-26805D01*
X43864Y-26779D01*
X43861Y-26751D01*
X43863Y-26725D01*
X43870Y-26699D01*
X43883Y-26675D01*
X43900Y-26653D01*
X43921Y-26636D01*
X43944Y-26622D01*
X43970Y-26614D01*
X43998Y-26611D01*
X44024Y-26613D01*
X44050Y-26620D01*
X44075Y-26632D01*
X44096Y-26649D01*
X44114Y-26670D01*
X44127Y-26694D01*
X44136Y-26719D01*
X44139Y-26747D01*
X44140Y-26750D01*
X44140Y-30000D02*
X44137Y-30027D01*
X44129Y-30053D01*
X44116Y-30077D01*
X44099Y-30098D01*
X44078Y-30116D01*
X44054Y-30129D01*
X44028Y-30137D01*
X44000Y-30139D01*
X43974Y-30137D01*
X43948Y-30129D01*
X43924Y-30117D01*
X43903Y-30100D01*
X43885Y-30079D01*
X43872Y-30055D01*
X43864Y-30029D01*
X43861Y-30001D01*
X43863Y-29975D01*
X43870Y-29949D01*
X43883Y-29925D01*
X43900Y-29903D01*
X43921Y-29886D01*
X43944Y-29872D01*
X43970Y-29864D01*
X43998Y-29861D01*
X44024Y-29863D01*
X44050Y-29870D01*
X44075Y-29882D01*
X44096Y-29899D01*
X44114Y-29920D01*
X44127Y-29944D01*
X44136Y-29969D01*
X44139Y-29997D01*
X44140Y-30000D01*
X44140Y-36000D02*
X44137Y-36027D01*
X44129Y-36053D01*
X44116Y-36077D01*
X44099Y-36098D01*
X44078Y-36116D01*
X44054Y-36129D01*
X44028Y-36137D01*
X44000Y-36139D01*
X43974Y-36137D01*
X43948Y-36129D01*
X43924Y-36117D01*
X43903Y-36100D01*
X43885Y-36079D01*
X43872Y-36055D01*
X43864Y-36029D01*
X43861Y-36001D01*
X43863Y-35975D01*
X43870Y-35949D01*
X43883Y-35925D01*
X43900Y-35903D01*
X43921Y-35886D01*
X43944Y-35872D01*
X43970Y-35864D01*
X43998Y-35861D01*
X44024Y-35863D01*
X44050Y-35870D01*
X44075Y-35882D01*
X44096Y-35899D01*
X44114Y-35920D01*
X44127Y-35944D01*
X44136Y-35969D01*
X44139Y-35997D01*
X44140Y-36000D01*
X44140Y-37500D02*
X44137Y-37527D01*
X44129Y-37553D01*
X44116Y-37577D01*
X44099Y-37598D01*
X44078Y-37616D01*
X44054Y-37629D01*
X44028Y-37637D01*
X44000Y-37639D01*
X43974Y-37637D01*
X43948Y-37629D01*
X43924Y-37617D01*
X43903Y-37600D01*
X43885Y-37579D01*
X43872Y-37555D01*
X43864Y-37529D01*
X43861Y-37501D01*
X43863Y-37475D01*
X43870Y-37449D01*
X43883Y-37425D01*
X43900Y-37403D01*
X43921Y-37386D01*
X43944Y-37372D01*
X43970Y-37364D01*
X43998Y-37361D01*
X44024Y-37363D01*
X44050Y-37370D01*
X44075Y-37382D01*
X44096Y-37399D01*
X44114Y-37420D01*
X44127Y-37444D01*
X44136Y-37469D01*
X44139Y-37497D01*
X44140Y-37500D01*
X44640Y-24250D02*
X44637Y-24277D01*
X44629Y-24303D01*
X44616Y-24327D01*
X44599Y-24348D01*
X44578Y-24366D01*
X44554Y-24379D01*
X44528Y-24387D01*
X44500Y-24389D01*
X44474Y-24387D01*
X44448Y-24379D01*
X44424Y-24367D01*
X44403Y-24350D01*
X44385Y-24329D01*
X44372Y-24305D01*
X44364Y-24279D01*
X44361Y-24251D01*
X44363Y-24225D01*
X44370Y-24199D01*
X44383Y-24175D01*
X44400Y-24153D01*
X44421Y-24136D01*
X44444Y-24122D01*
X44470Y-24114D01*
X44498Y-24111D01*
X44524Y-24113D01*
X44550Y-24120D01*
X44575Y-24132D01*
X44596Y-24149D01*
X44614Y-24170D01*
X44627Y-24194D01*
X44636Y-24219D01*
X44639Y-24247D01*
X44640Y-24250D01*
X44640Y-29500D02*
X44637Y-29527D01*
X44629Y-29553D01*
X44616Y-29577D01*
X44599Y-29598D01*
X44578Y-29616D01*
X44554Y-29629D01*
X44528Y-29637D01*
X44500Y-29639D01*
X44474Y-29637D01*
X44448Y-29629D01*
X44424Y-29617D01*
X44403Y-29600D01*
X44385Y-29579D01*
X44372Y-29555D01*
X44364Y-29529D01*
X44361Y-29501D01*
X44363Y-29475D01*
X44370Y-29449D01*
X44383Y-29425D01*
X44400Y-29403D01*
X44421Y-29386D01*
X44444Y-29372D01*
X44470Y-29364D01*
X44498Y-29361D01*
X44524Y-29363D01*
X44550Y-29370D01*
X44575Y-29382D01*
X44596Y-29399D01*
X44614Y-29420D01*
X44627Y-29444D01*
X44636Y-29469D01*
X44639Y-29497D01*
X44640Y-29500D01*
X44640Y-46000D02*
X44637Y-46027D01*
X44629Y-46053D01*
X44616Y-46077D01*
X44599Y-46098D01*
X44578Y-46116D01*
X44554Y-46129D01*
X44528Y-46137D01*
X44500Y-46139D01*
X44474Y-46137D01*
X44448Y-46129D01*
X44424Y-46117D01*
X44403Y-46100D01*
X44385Y-46079D01*
X44372Y-46055D01*
X44364Y-46029D01*
X44361Y-46001D01*
X44363Y-45975D01*
X44370Y-45949D01*
X44383Y-45925D01*
X44400Y-45903D01*
X44421Y-45886D01*
X44444Y-45872D01*
X44470Y-45864D01*
X44498Y-45861D01*
X44524Y-45863D01*
X44550Y-45870D01*
X44575Y-45882D01*
X44596Y-45899D01*
X44614Y-45920D01*
X44627Y-45944D01*
X44636Y-45969D01*
X44639Y-45997D01*
X44640Y-46000D01*
X44890Y-32500D02*
X44887Y-32527D01*
X44879Y-32553D01*
X44866Y-32577D01*
X44849Y-32598D01*
X44828Y-32616D01*
X44804Y-32629D01*
X44778Y-32637D01*
X44750Y-32639D01*
X44724Y-32637D01*
X44698Y-32629D01*
X44674Y-32617D01*
X44653Y-32600D01*
X44635Y-32579D01*
X44622Y-32555D01*
X44614Y-32529D01*
X44611Y-32501D01*
X44613Y-32475D01*
X44620Y-32449D01*
X44633Y-32425D01*
X44650Y-32403D01*
X44671Y-32386D01*
X44694Y-32372D01*
X44720Y-32364D01*
X44748Y-32361D01*
X44774Y-32363D01*
X44800Y-32370D01*
X44825Y-32382D01*
X44846Y-32399D01*
X44864Y-32420D01*
X44877Y-32444D01*
X44886Y-32469D01*
X44889Y-32497D01*
X44890Y-32500D01*
X44890Y-33500D02*
X44887Y-33527D01*
X44879Y-33553D01*
X44866Y-33577D01*
X44849Y-33598D01*
X44828Y-33616D01*
X44804Y-33629D01*
X44778Y-33637D01*
X44750Y-33639D01*
X44724Y-33637D01*
X44698Y-33629D01*
X44674Y-33617D01*
X44653Y-33600D01*
X44635Y-33579D01*
X44622Y-33555D01*
X44614Y-33529D01*
X44611Y-33501D01*
X44613Y-33475D01*
X44620Y-33449D01*
X44633Y-33425D01*
X44650Y-33403D01*
X44671Y-33386D01*
X44694Y-33372D01*
X44720Y-33364D01*
X44748Y-33361D01*
X44774Y-33363D01*
X44800Y-33370D01*
X44825Y-33382D01*
X44846Y-33399D01*
X44864Y-33420D01*
X44877Y-33444D01*
X44886Y-33469D01*
X44889Y-33497D01*
X44890Y-33500D01*
X45140Y-21750D02*
X45137Y-21777D01*
X45129Y-21803D01*
X45116Y-21827D01*
X45099Y-21848D01*
X45078Y-21866D01*
X45054Y-21879D01*
X45028Y-21887D01*
X45000Y-21889D01*
X44974Y-21887D01*
X44948Y-21879D01*
X44924Y-21867D01*
X44903Y-21850D01*
X44885Y-21829D01*
X44872Y-21805D01*
X44864Y-21779D01*
X44861Y-21751D01*
X44863Y-21725D01*
X44870Y-21699D01*
X44883Y-21675D01*
X44900Y-21653D01*
X44921Y-21636D01*
X44944Y-21622D01*
X44970Y-21614D01*
X44998Y-21611D01*
X45024Y-21613D01*
X45050Y-21620D01*
X45075Y-21632D01*
X45096Y-21649D01*
X45114Y-21670D01*
X45127Y-21694D01*
X45136Y-21719D01*
X45139Y-21747D01*
X45140Y-21750D01*
X45140Y-29000D02*
X45137Y-29027D01*
X45129Y-29053D01*
X45116Y-29077D01*
X45099Y-29098D01*
X45078Y-29116D01*
X45054Y-29129D01*
X45028Y-29137D01*
X45000Y-29139D01*
X44974Y-29137D01*
X44948Y-29129D01*
X44924Y-29117D01*
X44903Y-29100D01*
X44885Y-29079D01*
X44872Y-29055D01*
X44864Y-29029D01*
X44861Y-29001D01*
X44863Y-28975D01*
X44870Y-28949D01*
X44883Y-28925D01*
X44900Y-28903D01*
X44921Y-28886D01*
X44944Y-28872D01*
X44970Y-28864D01*
X44998Y-28861D01*
X45024Y-28863D01*
X45050Y-28870D01*
X45075Y-28882D01*
X45096Y-28899D01*
X45114Y-28920D01*
X45127Y-28944D01*
X45136Y-28969D01*
X45139Y-28997D01*
X45140Y-29000D01*
X45640Y-19250D02*
X45637Y-19277D01*
X45629Y-19303D01*
X45616Y-19327D01*
X45599Y-19348D01*
X45578Y-19366D01*
X45554Y-19379D01*
X45528Y-19387D01*
X45500Y-19389D01*
X45474Y-19387D01*
X45448Y-19379D01*
X45424Y-19367D01*
X45403Y-19350D01*
X45385Y-19329D01*
X45372Y-19305D01*
X45364Y-19279D01*
X45361Y-19251D01*
X45363Y-19225D01*
X45370Y-19199D01*
X45383Y-19175D01*
X45400Y-19153D01*
X45421Y-19136D01*
X45444Y-19122D01*
X45470Y-19114D01*
X45498Y-19111D01*
X45524Y-19113D01*
X45550Y-19120D01*
X45575Y-19132D01*
X45596Y-19149D01*
X45614Y-19170D01*
X45627Y-19194D01*
X45636Y-19219D01*
X45639Y-19247D01*
X45640Y-19250D01*
X45640Y-28500D02*
X45637Y-28527D01*
X45629Y-28553D01*
X45616Y-28577D01*
X45599Y-28598D01*
X45578Y-28616D01*
X45554Y-28629D01*
X45528Y-28637D01*
X45500Y-28639D01*
X45474Y-28637D01*
X45448Y-28629D01*
X45424Y-28617D01*
X45403Y-28600D01*
X45385Y-28579D01*
X45372Y-28555D01*
X45364Y-28529D01*
X45361Y-28501D01*
X45363Y-28475D01*
X45370Y-28449D01*
X45383Y-28425D01*
X45400Y-28403D01*
X45421Y-28386D01*
X45444Y-28372D01*
X45470Y-28364D01*
X45498Y-28361D01*
X45524Y-28363D01*
X45550Y-28370D01*
X45575Y-28382D01*
X45596Y-28399D01*
X45614Y-28420D01*
X45627Y-28444D01*
X45636Y-28469D01*
X45639Y-28497D01*
X45640Y-28500D01*
X48640Y-30000D02*
X48637Y-30027D01*
X48629Y-30053D01*
X48616Y-30077D01*
X48599Y-30098D01*
X48578Y-30116D01*
X48554Y-30129D01*
X48528Y-30137D01*
X48500Y-30139D01*
X48474Y-30137D01*
X48448Y-30129D01*
X48424Y-30117D01*
X48403Y-30100D01*
X48385Y-30079D01*
X48372Y-30055D01*
X48364Y-30029D01*
X48361Y-30001D01*
X48363Y-29975D01*
X48370Y-29949D01*
X48383Y-29925D01*
X48400Y-29903D01*
X48421Y-29886D01*
X48444Y-29872D01*
X48470Y-29864D01*
X48498Y-29861D01*
X48524Y-29863D01*
X48550Y-29870D01*
X48575Y-29882D01*
X48596Y-29899D01*
X48614Y-29920D01*
X48627Y-29944D01*
X48636Y-29969D01*
X48639Y-29997D01*
X48640Y-30000D01*
X48640Y-35000D02*
X48637Y-35027D01*
X48629Y-35053D01*
X48616Y-35077D01*
X48599Y-35098D01*
X48578Y-35116D01*
X48554Y-35129D01*
X48528Y-35137D01*
X48500Y-35139D01*
X48474Y-35137D01*
X48448Y-35129D01*
X48424Y-35117D01*
X48403Y-35100D01*
X48385Y-35079D01*
X48372Y-35055D01*
X48364Y-35029D01*
X48361Y-35001D01*
X48363Y-34975D01*
X48370Y-34949D01*
X48383Y-34925D01*
X48400Y-34903D01*
X48421Y-34886D01*
X48444Y-34872D01*
X48470Y-34864D01*
X48498Y-34861D01*
X48524Y-34863D01*
X48550Y-34870D01*
X48575Y-34882D01*
X48596Y-34899D01*
X48614Y-34920D01*
X48627Y-34944D01*
X48636Y-34969D01*
X48639Y-34997D01*
X48640Y-35000D01*
X49390Y-30000D02*
X49387Y-30027D01*
X49379Y-30053D01*
X49366Y-30077D01*
X49349Y-30098D01*
X49328Y-30116D01*
X49304Y-30129D01*
X49278Y-30137D01*
X49250Y-30139D01*
X49224Y-30137D01*
X49198Y-30129D01*
X49174Y-30117D01*
X49153Y-30100D01*
X49135Y-30079D01*
X49122Y-30055D01*
X49114Y-30029D01*
X49111Y-30001D01*
X49113Y-29975D01*
X49120Y-29949D01*
X49133Y-29925D01*
X49150Y-29903D01*
X49171Y-29886D01*
X49194Y-29872D01*
X49220Y-29864D01*
X49248Y-29861D01*
X49274Y-29863D01*
X49300Y-29870D01*
X49325Y-29882D01*
X49346Y-29899D01*
X49364Y-29920D01*
X49377Y-29944D01*
X49386Y-29969D01*
X49389Y-29997D01*
X49390Y-30000D01*
X49390Y-34000D02*
X49387Y-34027D01*
X49379Y-34053D01*
X49366Y-34077D01*
X49349Y-34098D01*
X49328Y-34116D01*
X49304Y-34129D01*
X49278Y-34137D01*
X49250Y-34139D01*
X49224Y-34137D01*
X49198Y-34129D01*
X49174Y-34117D01*
X49153Y-34100D01*
X49135Y-34079D01*
X49122Y-34055D01*
X49114Y-34029D01*
X49111Y-34001D01*
X49113Y-33975D01*
X49120Y-33949D01*
X49133Y-33925D01*
X49150Y-33903D01*
X49171Y-33886D01*
X49194Y-33872D01*
X49220Y-33864D01*
X49248Y-33861D01*
X49274Y-33863D01*
X49300Y-33870D01*
X49325Y-33882D01*
X49346Y-33899D01*
X49364Y-33920D01*
X49377Y-33944D01*
X49386Y-33969D01*
X49389Y-33997D01*
X49390Y-34000D01*
X49890Y-35000D02*
X49887Y-35027D01*
X49879Y-35053D01*
X49866Y-35077D01*
X49849Y-35098D01*
X49828Y-35116D01*
X49804Y-35129D01*
X49778Y-35137D01*
X49750Y-35139D01*
X49724Y-35137D01*
X49698Y-35129D01*
X49674Y-35117D01*
X49653Y-35100D01*
X49635Y-35079D01*
X49622Y-35055D01*
X49614Y-35029D01*
X49611Y-35001D01*
X49613Y-34975D01*
X49620Y-34949D01*
X49633Y-34925D01*
X49650Y-34903D01*
X49671Y-34886D01*
X49694Y-34872D01*
X49720Y-34864D01*
X49748Y-34861D01*
X49774Y-34863D01*
X49800Y-34870D01*
X49825Y-34882D01*
X49846Y-34899D01*
X49864Y-34920D01*
X49877Y-34944D01*
X49886Y-34969D01*
X49889Y-34997D01*
X49890Y-35000D01*
X49890Y-40000D02*
X49887Y-40027D01*
X49879Y-40053D01*
X49866Y-40077D01*
X49849Y-40098D01*
X49828Y-40116D01*
X49804Y-40129D01*
X49778Y-40137D01*
X49750Y-40139D01*
X49724Y-40137D01*
X49698Y-40129D01*
X49674Y-40117D01*
X49653Y-40100D01*
X49635Y-40079D01*
X49622Y-40055D01*
X49614Y-40029D01*
X49611Y-40001D01*
X49613Y-39975D01*
X49620Y-39949D01*
X49633Y-39925D01*
X49650Y-39903D01*
X49671Y-39886D01*
X49694Y-39872D01*
X49720Y-39864D01*
X49748Y-39861D01*
X49774Y-39863D01*
X49800Y-39870D01*
X49825Y-39882D01*
X49846Y-39899D01*
X49864Y-39920D01*
X49877Y-39944D01*
X49886Y-39969D01*
X49889Y-39997D01*
X49890Y-40000D01*
X50390Y-31500D02*
X50387Y-31527D01*
X50379Y-31553D01*
X50366Y-31577D01*
X50349Y-31598D01*
X50328Y-31616D01*
X50304Y-31629D01*
X50278Y-31637D01*
X50250Y-31639D01*
X50224Y-31637D01*
X50198Y-31629D01*
X50174Y-31617D01*
X50153Y-31600D01*
X50135Y-31579D01*
X50122Y-31555D01*
X50114Y-31529D01*
X50111Y-31501D01*
X50113Y-31475D01*
X50120Y-31449D01*
X50133Y-31425D01*
X50150Y-31403D01*
X50171Y-31386D01*
X50194Y-31372D01*
X50220Y-31364D01*
X50248Y-31361D01*
X50274Y-31363D01*
X50300Y-31370D01*
X50325Y-31382D01*
X50346Y-31399D01*
X50364Y-31420D01*
X50377Y-31444D01*
X50386Y-31469D01*
X50389Y-31497D01*
X50390Y-31500D01*
X50390Y-37000D02*
X50387Y-37027D01*
X50379Y-37053D01*
X50366Y-37077D01*
X50349Y-37098D01*
X50328Y-37116D01*
X50304Y-37129D01*
X50278Y-37137D01*
X50250Y-37139D01*
X50224Y-37137D01*
X50198Y-37129D01*
X50174Y-37117D01*
X50153Y-37100D01*
X50135Y-37079D01*
X50122Y-37055D01*
X50114Y-37029D01*
X50111Y-37001D01*
X50113Y-36975D01*
X50120Y-36949D01*
X50133Y-36925D01*
X50150Y-36903D01*
X50171Y-36886D01*
X50194Y-36872D01*
X50220Y-36864D01*
X50248Y-36861D01*
X50274Y-36863D01*
X50300Y-36870D01*
X50325Y-36882D01*
X50346Y-36899D01*
X50364Y-36920D01*
X50377Y-36944D01*
X50386Y-36969D01*
X50389Y-36997D01*
X50390Y-37000D01*
X50890Y-31000D02*
X50887Y-31027D01*
X50879Y-31053D01*
X50866Y-31077D01*
X50849Y-31098D01*
X50828Y-31116D01*
X50804Y-31129D01*
X50778Y-31137D01*
X50750Y-31139D01*
X50724Y-31137D01*
X50698Y-31129D01*
X50674Y-31117D01*
X50653Y-31100D01*
X50635Y-31079D01*
X50622Y-31055D01*
X50614Y-31029D01*
X50611Y-31001D01*
X50613Y-30975D01*
X50620Y-30949D01*
X50633Y-30925D01*
X50650Y-30903D01*
X50671Y-30886D01*
X50694Y-30872D01*
X50720Y-30864D01*
X50748Y-30861D01*
X50774Y-30863D01*
X50800Y-30870D01*
X50825Y-30882D01*
X50846Y-30899D01*
X50864Y-30920D01*
X50877Y-30944D01*
X50886Y-30969D01*
X50889Y-30997D01*
X50890Y-31000D01*
X50890Y-36000D02*
X50887Y-36027D01*
X50879Y-36053D01*
X50866Y-36077D01*
X50849Y-36098D01*
X50828Y-36116D01*
X50804Y-36129D01*
X50778Y-36137D01*
X50750Y-36139D01*
X50724Y-36137D01*
X50698Y-36129D01*
X50674Y-36117D01*
X50653Y-36100D01*
X50635Y-36079D01*
X50622Y-36055D01*
X50614Y-36029D01*
X50611Y-36001D01*
X50613Y-35975D01*
X50620Y-35949D01*
X50633Y-35925D01*
X50650Y-35903D01*
X50671Y-35886D01*
X50694Y-35872D01*
X50720Y-35864D01*
X50748Y-35861D01*
X50774Y-35863D01*
X50800Y-35870D01*
X50825Y-35882D01*
X50846Y-35899D01*
X50864Y-35920D01*
X50877Y-35944D01*
X50886Y-35969D01*
X50889Y-35997D01*
X50890Y-36000D01*
X51390Y-29000D02*
X51387Y-29027D01*
X51379Y-29053D01*
X51366Y-29077D01*
X51349Y-29098D01*
X51328Y-29116D01*
X51304Y-29129D01*
X51278Y-29137D01*
X51250Y-29139D01*
X51224Y-29137D01*
X51198Y-29129D01*
X51174Y-29117D01*
X51153Y-29100D01*
X51135Y-29079D01*
X51122Y-29055D01*
X51114Y-29029D01*
X51111Y-29001D01*
X51113Y-28975D01*
X51120Y-28949D01*
X51133Y-28925D01*
X51150Y-28903D01*
X51171Y-28886D01*
X51194Y-28872D01*
X51220Y-28864D01*
X51248Y-28861D01*
X51274Y-28863D01*
X51300Y-28870D01*
X51325Y-28882D01*
X51346Y-28899D01*
X51364Y-28920D01*
X51377Y-28944D01*
X51386Y-28969D01*
X51389Y-28997D01*
X51390Y-29000D01*
X51390Y-41000D02*
X51387Y-41027D01*
X51379Y-41053D01*
X51366Y-41077D01*
X51349Y-41098D01*
X51328Y-41116D01*
X51304Y-41129D01*
X51278Y-41137D01*
X51250Y-41139D01*
X51224Y-41137D01*
X51198Y-41129D01*
X51174Y-41117D01*
X51153Y-41100D01*
X51135Y-41079D01*
X51122Y-41055D01*
X51114Y-41029D01*
X51111Y-41001D01*
X51113Y-40975D01*
X51120Y-40949D01*
X51133Y-40925D01*
X51150Y-40903D01*
X51171Y-40886D01*
X51194Y-40872D01*
X51220Y-40864D01*
X51248Y-40861D01*
X51274Y-40863D01*
X51300Y-40870D01*
X51325Y-40882D01*
X51346Y-40899D01*
X51364Y-40920D01*
X51377Y-40944D01*
X51386Y-40969D01*
X51389Y-40997D01*
X51390Y-41000D01*
X51890Y-29500D02*
X51887Y-29527D01*
X51879Y-29553D01*
X51866Y-29577D01*
X51849Y-29598D01*
X51828Y-29616D01*
X51804Y-29629D01*
X51778Y-29637D01*
X51750Y-29639D01*
X51724Y-29637D01*
X51698Y-29629D01*
X51674Y-29617D01*
X51653Y-29600D01*
X51635Y-29579D01*
X51622Y-29555D01*
X51614Y-29529D01*
X51611Y-29501D01*
X51613Y-29475D01*
X51620Y-29449D01*
X51633Y-29425D01*
X51650Y-29403D01*
X51671Y-29386D01*
X51694Y-29372D01*
X51720Y-29364D01*
X51748Y-29361D01*
X51774Y-29363D01*
X51800Y-29370D01*
X51825Y-29382D01*
X51846Y-29399D01*
X51864Y-29420D01*
X51877Y-29444D01*
X51886Y-29469D01*
X51889Y-29497D01*
X51890Y-29500D01*
X51890Y-34000D02*
X51887Y-34027D01*
X51879Y-34053D01*
X51866Y-34077D01*
X51849Y-34098D01*
X51828Y-34116D01*
X51804Y-34129D01*
X51778Y-34137D01*
X51750Y-34139D01*
X51724Y-34137D01*
X51698Y-34129D01*
X51674Y-34117D01*
X51653Y-34100D01*
X51635Y-34079D01*
X51622Y-34055D01*
X51614Y-34029D01*
X51611Y-34001D01*
X51613Y-33975D01*
X51620Y-33949D01*
X51633Y-33925D01*
X51650Y-33903D01*
X51671Y-33886D01*
X51694Y-33872D01*
X51720Y-33864D01*
X51748Y-33861D01*
X51774Y-33863D01*
X51800Y-33870D01*
X51825Y-33882D01*
X51846Y-33899D01*
X51864Y-33920D01*
X51877Y-33944D01*
X51886Y-33969D01*
X51889Y-33997D01*
X51890Y-34000D01*
X52390Y-30500D02*
X52387Y-30527D01*
X52379Y-30553D01*
X52366Y-30577D01*
X52349Y-30598D01*
X52328Y-30616D01*
X52304Y-30629D01*
X52278Y-30637D01*
X52250Y-30639D01*
X52224Y-30637D01*
X52198Y-30629D01*
X52174Y-30617D01*
X52153Y-30600D01*
X52135Y-30579D01*
X52122Y-30555D01*
X52114Y-30529D01*
X52111Y-30501D01*
X52113Y-30475D01*
X52120Y-30449D01*
X52133Y-30425D01*
X52150Y-30403D01*
X52171Y-30386D01*
X52194Y-30372D01*
X52220Y-30364D01*
X52248Y-30361D01*
X52274Y-30363D01*
X52300Y-30370D01*
X52325Y-30382D01*
X52346Y-30399D01*
X52364Y-30420D01*
X52377Y-30444D01*
X52386Y-30469D01*
X52389Y-30497D01*
X52390Y-30500D01*
X52390Y-44000D02*
X52387Y-44027D01*
X52379Y-44053D01*
X52366Y-44077D01*
X52349Y-44098D01*
X52328Y-44116D01*
X52304Y-44129D01*
X52278Y-44137D01*
X52250Y-44139D01*
X52224Y-44137D01*
X52198Y-44129D01*
X52174Y-44117D01*
X52153Y-44100D01*
X52135Y-44079D01*
X52122Y-44055D01*
X52114Y-44029D01*
X52111Y-44001D01*
X52113Y-43975D01*
X52120Y-43949D01*
X52133Y-43925D01*
X52150Y-43903D01*
X52171Y-43886D01*
X52194Y-43872D01*
X52220Y-43864D01*
X52248Y-43861D01*
X52274Y-43863D01*
X52300Y-43870D01*
X52325Y-43882D01*
X52346Y-43899D01*
X52364Y-43920D01*
X52377Y-43944D01*
X52386Y-43969D01*
X52389Y-43997D01*
X52390Y-44000D01*
X55890Y-45000D02*
X55887Y-45027D01*
X55879Y-45053D01*
X55866Y-45077D01*
X55849Y-45098D01*
X55828Y-45116D01*
X55804Y-45129D01*
X55778Y-45137D01*
X55750Y-45139D01*
X55724Y-45137D01*
X55698Y-45129D01*
X55674Y-45117D01*
X55653Y-45100D01*
X55635Y-45079D01*
X55622Y-45055D01*
X55614Y-45029D01*
X55611Y-45001D01*
X55613Y-44975D01*
X55620Y-44949D01*
X55633Y-44925D01*
X55650Y-44903D01*
X55671Y-44886D01*
X55694Y-44872D01*
X55720Y-44864D01*
X55748Y-44861D01*
X55774Y-44863D01*
X55800Y-44870D01*
X55825Y-44882D01*
X55846Y-44899D01*
X55864Y-44920D01*
X55877Y-44944D01*
X55886Y-44969D01*
X55889Y-44997D01*
X55890Y-45000D01*
X55890Y-47000D02*
X55887Y-47027D01*
X55879Y-47053D01*
X55866Y-47077D01*
X55849Y-47098D01*
X55828Y-47116D01*
X55804Y-47129D01*
X55778Y-47137D01*
X55750Y-47139D01*
X55724Y-47137D01*
X55698Y-47129D01*
X55674Y-47117D01*
X55653Y-47100D01*
X55635Y-47079D01*
X55622Y-47055D01*
X55614Y-47029D01*
X55611Y-47001D01*
X55613Y-46975D01*
X55620Y-46949D01*
X55633Y-46925D01*
X55650Y-46903D01*
X55671Y-46886D01*
X55694Y-46872D01*
X55720Y-46864D01*
X55748Y-46861D01*
X55774Y-46863D01*
X55800Y-46870D01*
X55825Y-46882D01*
X55846Y-46899D01*
X55864Y-46920D01*
X55877Y-46944D01*
X55886Y-46969D01*
X55889Y-46997D01*
X55890Y-47000D01*
X57890Y-28500D02*
X57887Y-28527D01*
X57879Y-28553D01*
X57866Y-28577D01*
X57849Y-28598D01*
X57828Y-28616D01*
X57804Y-28629D01*
X57778Y-28637D01*
X57750Y-28639D01*
X57724Y-28637D01*
X57698Y-28629D01*
X57674Y-28617D01*
X57653Y-28600D01*
X57635Y-28579D01*
X57622Y-28555D01*
X57614Y-28529D01*
X57611Y-28501D01*
X57613Y-28475D01*
X57620Y-28449D01*
X57633Y-28425D01*
X57650Y-28403D01*
X57671Y-28386D01*
X57694Y-28372D01*
X57720Y-28364D01*
X57748Y-28361D01*
X57774Y-28363D01*
X57800Y-28370D01*
X57825Y-28382D01*
X57846Y-28399D01*
X57864Y-28420D01*
X57877Y-28444D01*
X57886Y-28469D01*
X57889Y-28497D01*
X57890Y-28500D01*
X57890Y-39000D02*
X57887Y-39027D01*
X57879Y-39053D01*
X57866Y-39077D01*
X57849Y-39098D01*
X57828Y-39116D01*
X57804Y-39129D01*
X57778Y-39137D01*
X57750Y-39139D01*
X57724Y-39137D01*
X57698Y-39129D01*
X57674Y-39117D01*
X57653Y-39100D01*
X57635Y-39079D01*
X57622Y-39055D01*
X57614Y-39029D01*
X57611Y-39001D01*
X57613Y-38975D01*
X57620Y-38949D01*
X57633Y-38925D01*
X57650Y-38903D01*
X57671Y-38886D01*
X57694Y-38872D01*
X57720Y-38864D01*
X57748Y-38861D01*
X57774Y-38863D01*
X57800Y-38870D01*
X57825Y-38882D01*
X57846Y-38899D01*
X57864Y-38920D01*
X57877Y-38944D01*
X57886Y-38969D01*
X57889Y-38997D01*
X57890Y-39000D01*
X60890Y-38000D02*
X60887Y-38027D01*
X60879Y-38053D01*
X60866Y-38077D01*
X60849Y-38098D01*
X60828Y-38116D01*
X60804Y-38129D01*
X60778Y-38137D01*
X60750Y-38139D01*
X60724Y-38137D01*
X60698Y-38129D01*
X60674Y-38117D01*
X60653Y-38100D01*
X60635Y-38079D01*
X60622Y-38055D01*
X60614Y-38029D01*
X60611Y-38001D01*
X60613Y-37975D01*
X60620Y-37949D01*
X60633Y-37925D01*
X60650Y-37903D01*
X60671Y-37886D01*
X60694Y-37872D01*
X60720Y-37864D01*
X60748Y-37861D01*
X60774Y-37863D01*
X60800Y-37870D01*
X60825Y-37882D01*
X60846Y-37899D01*
X60864Y-37920D01*
X60877Y-37944D01*
X60886Y-37969D01*
X60889Y-37997D01*
X60890Y-38000D01*
X60890Y-48500D02*
X60887Y-48527D01*
X60879Y-48553D01*
X60866Y-48577D01*
X60849Y-48598D01*
X60828Y-48616D01*
X60804Y-48629D01*
X60778Y-48637D01*
X60750Y-48639D01*
X60724Y-48637D01*
X60698Y-48629D01*
X60674Y-48617D01*
X60653Y-48600D01*
X60635Y-48579D01*
X60622Y-48555D01*
X60614Y-48529D01*
X60611Y-48501D01*
X60613Y-48475D01*
X60620Y-48449D01*
X60633Y-48425D01*
X60650Y-48403D01*
X60671Y-48386D01*
X60694Y-48372D01*
X60720Y-48364D01*
X60748Y-48361D01*
X60774Y-48363D01*
X60800Y-48370D01*
X60825Y-48382D01*
X60846Y-48399D01*
X60864Y-48420D01*
X60877Y-48444D01*
X60886Y-48469D01*
X60889Y-48497D01*
X60890Y-48500D01*
X61390Y-37000D02*
X61387Y-37027D01*
X61379Y-37053D01*
X61366Y-37077D01*
X61349Y-37098D01*
X61328Y-37116D01*
X61304Y-37129D01*
X61278Y-37137D01*
X61250Y-37139D01*
X61224Y-37137D01*
X61198Y-37129D01*
X61174Y-37117D01*
X61153Y-37100D01*
X61135Y-37079D01*
X61122Y-37055D01*
X61114Y-37029D01*
X61111Y-37001D01*
X61113Y-36975D01*
X61120Y-36949D01*
X61133Y-36925D01*
X61150Y-36903D01*
X61171Y-36886D01*
X61194Y-36872D01*
X61220Y-36864D01*
X61248Y-36861D01*
X61274Y-36863D01*
X61300Y-36870D01*
X61325Y-36882D01*
X61346Y-36899D01*
X61364Y-36920D01*
X61377Y-36944D01*
X61386Y-36969D01*
X61389Y-36997D01*
X61390Y-37000D01*
X61390Y-48000D02*
X61387Y-48027D01*
X61379Y-48053D01*
X61366Y-48077D01*
X61349Y-48098D01*
X61328Y-48116D01*
X61304Y-48129D01*
X61278Y-48137D01*
X61250Y-48139D01*
X61224Y-48137D01*
X61198Y-48129D01*
X61174Y-48117D01*
X61153Y-48100D01*
X61135Y-48079D01*
X61122Y-48055D01*
X61114Y-48029D01*
X61111Y-48001D01*
X61113Y-47975D01*
X61120Y-47949D01*
X61133Y-47925D01*
X61150Y-47903D01*
X61171Y-47886D01*
X61194Y-47872D01*
X61220Y-47864D01*
X61248Y-47861D01*
X61274Y-47863D01*
X61300Y-47870D01*
X61325Y-47882D01*
X61346Y-47899D01*
X61364Y-47920D01*
X61377Y-47944D01*
X61386Y-47969D01*
X61389Y-47997D01*
X61390Y-48000D01*
X61890Y-36000D02*
X61887Y-36027D01*
X61879Y-36053D01*
X61866Y-36077D01*
X61849Y-36098D01*
X61828Y-36116D01*
X61804Y-36129D01*
X61778Y-36137D01*
X61750Y-36139D01*
X61724Y-36137D01*
X61698Y-36129D01*
X61674Y-36117D01*
X61653Y-36100D01*
X61635Y-36079D01*
X61622Y-36055D01*
X61614Y-36029D01*
X61611Y-36001D01*
X61613Y-35975D01*
X61620Y-35949D01*
X61633Y-35925D01*
X61650Y-35903D01*
X61671Y-35886D01*
X61694Y-35872D01*
X61720Y-35864D01*
X61748Y-35861D01*
X61774Y-35863D01*
X61800Y-35870D01*
X61825Y-35882D01*
X61846Y-35899D01*
X61864Y-35920D01*
X61877Y-35944D01*
X61886Y-35969D01*
X61889Y-35997D01*
X61890Y-36000D01*
X61890Y-47500D02*
X61887Y-47527D01*
X61879Y-47553D01*
X61866Y-47577D01*
X61849Y-47598D01*
X61828Y-47616D01*
X61804Y-47629D01*
X61778Y-47637D01*
X61750Y-47639D01*
X61724Y-47637D01*
X61698Y-47629D01*
X61674Y-47617D01*
X61653Y-47600D01*
X61635Y-47579D01*
X61622Y-47555D01*
X61614Y-47529D01*
X61611Y-47501D01*
X61613Y-47475D01*
X61620Y-47449D01*
X61633Y-47425D01*
X61650Y-47403D01*
X61671Y-47386D01*
X61694Y-47372D01*
X61720Y-47364D01*
X61748Y-47361D01*
X61774Y-47363D01*
X61800Y-47370D01*
X61825Y-47382D01*
X61846Y-47399D01*
X61864Y-47420D01*
X61877Y-47444D01*
X61886Y-47469D01*
X61889Y-47497D01*
X61890Y-47500D01*
X62390Y-35000D02*
X62387Y-35027D01*
X62379Y-35053D01*
X62366Y-35077D01*
X62349Y-35098D01*
X62328Y-35116D01*
X62304Y-35129D01*
X62278Y-35137D01*
X62250Y-35139D01*
X62224Y-35137D01*
X62198Y-35129D01*
X62174Y-35117D01*
X62153Y-35100D01*
X62135Y-35079D01*
X62122Y-35055D01*
X62114Y-35029D01*
X62111Y-35001D01*
X62113Y-34975D01*
X62120Y-34949D01*
X62133Y-34925D01*
X62150Y-34903D01*
X62171Y-34886D01*
X62194Y-34872D01*
X62220Y-34864D01*
X62248Y-34861D01*
X62274Y-34863D01*
X62300Y-34870D01*
X62325Y-34882D01*
X62346Y-34899D01*
X62364Y-34920D01*
X62377Y-34944D01*
X62386Y-34969D01*
X62389Y-34997D01*
X62390Y-35000D01*
X62390Y-47000D02*
X62387Y-47027D01*
X62379Y-47053D01*
X62366Y-47077D01*
X62349Y-47098D01*
X62328Y-47116D01*
X62304Y-47129D01*
X62278Y-47137D01*
X62250Y-47139D01*
X62224Y-47137D01*
X62198Y-47129D01*
X62174Y-47117D01*
X62153Y-47100D01*
X62135Y-47079D01*
X62122Y-47055D01*
X62114Y-47029D01*
X62111Y-47001D01*
X62113Y-46975D01*
X62120Y-46949D01*
X62133Y-46925D01*
X62150Y-46903D01*
X62171Y-46886D01*
X62194Y-46872D01*
X62220Y-46864D01*
X62248Y-46861D01*
X62274Y-46863D01*
X62300Y-46870D01*
X62325Y-46882D01*
X62346Y-46899D01*
X62364Y-46920D01*
X62377Y-46944D01*
X62386Y-46969D01*
X62389Y-46997D01*
X62390Y-47000D01*
X62890Y-34000D02*
X62887Y-34027D01*
X62879Y-34053D01*
X62866Y-34077D01*
X62849Y-34098D01*
X62828Y-34116D01*
X62804Y-34129D01*
X62778Y-34137D01*
X62750Y-34139D01*
X62724Y-34137D01*
X62698Y-34129D01*
X62674Y-34117D01*
X62653Y-34100D01*
X62635Y-34079D01*
X62622Y-34055D01*
X62614Y-34029D01*
X62611Y-34001D01*
X62613Y-33975D01*
X62620Y-33949D01*
X62633Y-33925D01*
X62650Y-33903D01*
X62671Y-33886D01*
X62694Y-33872D01*
X62720Y-33864D01*
X62748Y-33861D01*
X62774Y-33863D01*
X62800Y-33870D01*
X62825Y-33882D01*
X62846Y-33899D01*
X62864Y-33920D01*
X62877Y-33944D01*
X62886Y-33969D01*
X62889Y-33997D01*
X62890Y-34000D01*
X62890Y-46500D02*
X62887Y-46527D01*
X62879Y-46553D01*
X62866Y-46577D01*
X62849Y-46598D01*
X62828Y-46616D01*
X62804Y-46629D01*
X62778Y-46637D01*
X62750Y-46639D01*
X62724Y-46637D01*
X62698Y-46629D01*
X62674Y-46617D01*
X62653Y-46600D01*
X62635Y-46579D01*
X62622Y-46555D01*
X62614Y-46529D01*
X62611Y-46501D01*
X62613Y-46475D01*
X62620Y-46449D01*
X62633Y-46425D01*
X62650Y-46403D01*
X62671Y-46386D01*
X62694Y-46372D01*
X62720Y-46364D01*
X62748Y-46361D01*
X62774Y-46363D01*
X62800Y-46370D01*
X62825Y-46382D01*
X62846Y-46399D01*
X62864Y-46420D01*
X62877Y-46444D01*
X62886Y-46469D01*
X62889Y-46497D01*
X62890Y-46500D01*
X63140Y-25500D02*
X63137Y-25527D01*
X63129Y-25553D01*
X63116Y-25577D01*
X63099Y-25598D01*
X63078Y-25616D01*
X63054Y-25629D01*
X63028Y-25637D01*
X63000Y-25639D01*
X62974Y-25637D01*
X62948Y-25629D01*
X62924Y-25617D01*
X62903Y-25600D01*
X62885Y-25579D01*
X62872Y-25555D01*
X62864Y-25529D01*
X62861Y-25501D01*
X62863Y-25475D01*
X62870Y-25449D01*
X62883Y-25425D01*
X62900Y-25403D01*
X62921Y-25386D01*
X62944Y-25372D01*
X62970Y-25364D01*
X62998Y-25361D01*
X63024Y-25363D01*
X63050Y-25370D01*
X63075Y-25382D01*
X63096Y-25399D01*
X63114Y-25420D01*
X63127Y-25444D01*
X63136Y-25469D01*
X63139Y-25497D01*
X63140Y-25500D01*
X63140Y-27250D02*
X63137Y-27277D01*
X63129Y-27303D01*
X63116Y-27327D01*
X63099Y-27348D01*
X63078Y-27366D01*
X63054Y-27379D01*
X63028Y-27387D01*
X63000Y-27389D01*
X62974Y-27387D01*
X62948Y-27379D01*
X62924Y-27367D01*
X62903Y-27350D01*
X62885Y-27329D01*
X62872Y-27305D01*
X62864Y-27279D01*
X62861Y-27251D01*
X62863Y-27225D01*
X62870Y-27199D01*
X62883Y-27175D01*
X62900Y-27153D01*
X62921Y-27136D01*
X62944Y-27122D01*
X62970Y-27114D01*
X62998Y-27111D01*
X63024Y-27113D01*
X63050Y-27120D01*
X63075Y-27132D01*
X63096Y-27149D01*
X63114Y-27170D01*
X63127Y-27194D01*
X63136Y-27219D01*
X63139Y-27247D01*
X63140Y-27250D01*
X63390Y-33000D02*
X63387Y-33027D01*
X63379Y-33053D01*
X63366Y-33077D01*
X63349Y-33098D01*
X63328Y-33116D01*
X63304Y-33129D01*
X63278Y-33137D01*
X63250Y-33139D01*
X63224Y-33137D01*
X63198Y-33129D01*
X63174Y-33117D01*
X63153Y-33100D01*
X63135Y-33079D01*
X63122Y-33055D01*
X63114Y-33029D01*
X63111Y-33001D01*
X63113Y-32975D01*
X63120Y-32949D01*
X63133Y-32925D01*
X63150Y-32903D01*
X63171Y-32886D01*
X63194Y-32872D01*
X63220Y-32864D01*
X63248Y-32861D01*
X63274Y-32863D01*
X63300Y-32870D01*
X63325Y-32882D01*
X63346Y-32899D01*
X63364Y-32920D01*
X63377Y-32944D01*
X63386Y-32969D01*
X63389Y-32997D01*
X63390Y-33000D01*
X63390Y-41500D02*
X63387Y-41527D01*
X63379Y-41553D01*
X63366Y-41577D01*
X63349Y-41598D01*
X63328Y-41616D01*
X63304Y-41629D01*
X63278Y-41637D01*
X63250Y-41639D01*
X63224Y-41637D01*
X63198Y-41629D01*
X63174Y-41617D01*
X63153Y-41600D01*
X63135Y-41579D01*
X63122Y-41555D01*
X63114Y-41529D01*
X63111Y-41501D01*
X63113Y-41475D01*
X63120Y-41449D01*
X63133Y-41425D01*
X63150Y-41403D01*
X63171Y-41386D01*
X63194Y-41372D01*
X63220Y-41364D01*
X63248Y-41361D01*
X63274Y-41363D01*
X63300Y-41370D01*
X63325Y-41382D01*
X63346Y-41399D01*
X63364Y-41420D01*
X63377Y-41444D01*
X63386Y-41469D01*
X63389Y-41497D01*
X63390Y-41500D01*
X63890Y-32000D02*
X63887Y-32027D01*
X63879Y-32053D01*
X63866Y-32077D01*
X63849Y-32098D01*
X63828Y-32116D01*
X63804Y-32129D01*
X63778Y-32137D01*
X63750Y-32139D01*
X63724Y-32137D01*
X63698Y-32129D01*
X63674Y-32117D01*
X63653Y-32100D01*
X63635Y-32079D01*
X63622Y-32055D01*
X63614Y-32029D01*
X63611Y-32001D01*
X63613Y-31975D01*
X63620Y-31949D01*
X63633Y-31925D01*
X63650Y-31903D01*
X63671Y-31886D01*
X63694Y-31872D01*
X63720Y-31864D01*
X63748Y-31861D01*
X63774Y-31863D01*
X63800Y-31870D01*
X63825Y-31882D01*
X63846Y-31899D01*
X63864Y-31920D01*
X63877Y-31944D01*
X63886Y-31969D01*
X63889Y-31997D01*
X63890Y-32000D01*
X63890Y-41000D02*
X63887Y-41027D01*
X63879Y-41053D01*
X63866Y-41077D01*
X63849Y-41098D01*
X63828Y-41116D01*
X63804Y-41129D01*
X63778Y-41137D01*
X63750Y-41139D01*
X63724Y-41137D01*
X63698Y-41129D01*
X63674Y-41117D01*
X63653Y-41100D01*
X63635Y-41079D01*
X63622Y-41055D01*
X63614Y-41029D01*
X63611Y-41001D01*
X63613Y-40975D01*
X63620Y-40949D01*
X63633Y-40925D01*
X63650Y-40903D01*
X63671Y-40886D01*
X63694Y-40872D01*
X63720Y-40864D01*
X63748Y-40861D01*
X63774Y-40863D01*
X63800Y-40870D01*
X63825Y-40882D01*
X63846Y-40899D01*
X63864Y-40920D01*
X63877Y-40944D01*
X63886Y-40969D01*
X63889Y-40997D01*
X63890Y-41000D01*
X64390Y-31000D02*
X64387Y-31027D01*
X64379Y-31053D01*
X64366Y-31077D01*
X64349Y-31098D01*
X64328Y-31116D01*
X64304Y-31129D01*
X64278Y-31137D01*
X64250Y-31139D01*
X64224Y-31137D01*
X64198Y-31129D01*
X64174Y-31117D01*
X64153Y-31100D01*
X64135Y-31079D01*
X64122Y-31055D01*
X64114Y-31029D01*
X64111Y-31001D01*
X64113Y-30975D01*
X64120Y-30949D01*
X64133Y-30925D01*
X64150Y-30903D01*
X64171Y-30886D01*
X64194Y-30872D01*
X64220Y-30864D01*
X64248Y-30861D01*
X64274Y-30863D01*
X64300Y-30870D01*
X64325Y-30882D01*
X64346Y-30899D01*
X64364Y-30920D01*
X64377Y-30944D01*
X64386Y-30969D01*
X64389Y-30997D01*
X64390Y-31000D01*
X64390Y-40500D02*
X64387Y-40527D01*
X64379Y-40553D01*
X64366Y-40577D01*
X64349Y-40598D01*
X64328Y-40616D01*
X64304Y-40629D01*
X64278Y-40637D01*
X64250Y-40639D01*
X64224Y-40637D01*
X64198Y-40629D01*
X64174Y-40617D01*
X64153Y-40600D01*
X64135Y-40579D01*
X64122Y-40555D01*
X64114Y-40529D01*
X64111Y-40501D01*
X64113Y-40475D01*
X64120Y-40449D01*
X64133Y-40425D01*
X64150Y-40403D01*
X64171Y-40386D01*
X64194Y-40372D01*
X64220Y-40364D01*
X64248Y-40361D01*
X64274Y-40363D01*
X64300Y-40370D01*
X64325Y-40382D01*
X64346Y-40399D01*
X64364Y-40420D01*
X64377Y-40444D01*
X64386Y-40469D01*
X64389Y-40497D01*
X64390Y-40500D01*
X69390Y-31500D02*
X69387Y-31527D01*
X69379Y-31553D01*
X69366Y-31577D01*
X69349Y-31598D01*
X69328Y-31616D01*
X69304Y-31629D01*
X69278Y-31637D01*
X69250Y-31639D01*
X69224Y-31637D01*
X69198Y-31629D01*
X69174Y-31617D01*
X69153Y-31600D01*
X69135Y-31579D01*
X69122Y-31555D01*
X69114Y-31529D01*
X69111Y-31501D01*
X69113Y-31475D01*
X69120Y-31449D01*
X69133Y-31425D01*
X69150Y-31403D01*
X69171Y-31386D01*
X69194Y-31372D01*
X69220Y-31364D01*
X69248Y-31361D01*
X69274Y-31363D01*
X69300Y-31370D01*
X69325Y-31382D01*
X69346Y-31399D01*
X69364Y-31420D01*
X69377Y-31444D01*
X69386Y-31469D01*
X69389Y-31497D01*
X69390Y-31500D01*
X69390Y-38000D02*
X69387Y-38027D01*
X69379Y-38053D01*
X69366Y-38077D01*
X69349Y-38098D01*
X69328Y-38116D01*
X69304Y-38129D01*
X69278Y-38137D01*
X69250Y-38139D01*
X69224Y-38137D01*
X69198Y-38129D01*
X69174Y-38117D01*
X69153Y-38100D01*
X69135Y-38079D01*
X69122Y-38055D01*
X69114Y-38029D01*
X69111Y-38001D01*
X69113Y-37975D01*
X69120Y-37949D01*
X69133Y-37925D01*
X69150Y-37903D01*
X69171Y-37886D01*
X69194Y-37872D01*
X69220Y-37864D01*
X69248Y-37861D01*
X69274Y-37863D01*
X69300Y-37870D01*
X69325Y-37882D01*
X69346Y-37899D01*
X69364Y-37920D01*
X69377Y-37944D01*
X69386Y-37969D01*
X69389Y-37997D01*
X69390Y-38000D01*
X69890Y-32500D02*
X69887Y-32527D01*
X69879Y-32553D01*
X69866Y-32577D01*
X69849Y-32598D01*
X69828Y-32616D01*
X69804Y-32629D01*
X69778Y-32637D01*
X69750Y-32639D01*
X69724Y-32637D01*
X69698Y-32629D01*
X69674Y-32617D01*
X69653Y-32600D01*
X69635Y-32579D01*
X69622Y-32555D01*
X69614Y-32529D01*
X69611Y-32501D01*
X69613Y-32475D01*
X69620Y-32449D01*
X69633Y-32425D01*
X69650Y-32403D01*
X69671Y-32386D01*
X69694Y-32372D01*
X69720Y-32364D01*
X69748Y-32361D01*
X69774Y-32363D01*
X69800Y-32370D01*
X69825Y-32382D01*
X69846Y-32399D01*
X69864Y-32420D01*
X69877Y-32444D01*
X69886Y-32469D01*
X69889Y-32497D01*
X69890Y-32500D01*
X69890Y-37000D02*
X69887Y-37027D01*
X69879Y-37053D01*
X69866Y-37077D01*
X69849Y-37098D01*
X69828Y-37116D01*
X69804Y-37129D01*
X69778Y-37137D01*
X69750Y-37139D01*
X69724Y-37137D01*
X69698Y-37129D01*
X69674Y-37117D01*
X69653Y-37100D01*
X69635Y-37079D01*
X69622Y-37055D01*
X69614Y-37029D01*
X69611Y-37001D01*
X69613Y-36975D01*
X69620Y-36949D01*
X69633Y-36925D01*
X69650Y-36903D01*
X69671Y-36886D01*
X69694Y-36872D01*
X69720Y-36864D01*
X69748Y-36861D01*
X69774Y-36863D01*
X69800Y-36870D01*
X69825Y-36882D01*
X69846Y-36899D01*
X69864Y-36920D01*
X69877Y-36944D01*
X69886Y-36969D01*
X69889Y-36997D01*
X69890Y-37000D01*
X70390Y-33500D02*
X70387Y-33527D01*
X70379Y-33553D01*
X70366Y-33577D01*
X70349Y-33598D01*
X70328Y-33616D01*
X70304Y-33629D01*
X70278Y-33637D01*
X70250Y-33639D01*
X70224Y-33637D01*
X70198Y-33629D01*
X70174Y-33617D01*
X70153Y-33600D01*
X70135Y-33579D01*
X70122Y-33555D01*
X70114Y-33529D01*
X70111Y-33501D01*
X70113Y-33475D01*
X70120Y-33449D01*
X70133Y-33425D01*
X70150Y-33403D01*
X70171Y-33386D01*
X70194Y-33372D01*
X70220Y-33364D01*
X70248Y-33361D01*
X70274Y-33363D01*
X70300Y-33370D01*
X70325Y-33382D01*
X70346Y-33399D01*
X70364Y-33420D01*
X70377Y-33444D01*
X70386Y-33469D01*
X70389Y-33497D01*
X70390Y-33500D01*
X70390Y-36000D02*
X70387Y-36027D01*
X70379Y-36053D01*
X70366Y-36077D01*
X70349Y-36098D01*
X70328Y-36116D01*
X70304Y-36129D01*
X70278Y-36137D01*
X70250Y-36139D01*
X70224Y-36137D01*
X70198Y-36129D01*
X70174Y-36117D01*
X70153Y-36100D01*
X70135Y-36079D01*
X70122Y-36055D01*
X70114Y-36029D01*
X70111Y-36001D01*
X70113Y-35975D01*
X70120Y-35949D01*
X70133Y-35925D01*
X70150Y-35903D01*
X70171Y-35886D01*
X70194Y-35872D01*
X70220Y-35864D01*
X70248Y-35861D01*
X70274Y-35863D01*
X70300Y-35870D01*
X70325Y-35882D01*
X70346Y-35899D01*
X70364Y-35920D01*
X70377Y-35944D01*
X70386Y-35969D01*
X70389Y-35997D01*
X70390Y-36000D01*
X70890Y-34000D02*
X70887Y-34027D01*
X70879Y-34053D01*
X70866Y-34077D01*
X70849Y-34098D01*
X70828Y-34116D01*
X70804Y-34129D01*
X70778Y-34137D01*
X70750Y-34139D01*
X70724Y-34137D01*
X70698Y-34129D01*
X70674Y-34117D01*
X70653Y-34100D01*
X70635Y-34079D01*
X70622Y-34055D01*
X70614Y-34029D01*
X70611Y-34001D01*
X70613Y-33975D01*
X70620Y-33949D01*
X70633Y-33925D01*
X70650Y-33903D01*
X70671Y-33886D01*
X70694Y-33872D01*
X70720Y-33864D01*
X70748Y-33861D01*
X70774Y-33863D01*
X70800Y-33870D01*
X70825Y-33882D01*
X70846Y-33899D01*
X70864Y-33920D01*
X70877Y-33944D01*
X70886Y-33969D01*
X70889Y-33997D01*
X70890Y-34000D01*
X70890Y-35000D02*
X70887Y-35027D01*
X70879Y-35053D01*
X70866Y-35077D01*
X70849Y-35098D01*
X70828Y-35116D01*
X70804Y-35129D01*
X70778Y-35137D01*
X70750Y-35139D01*
X70724Y-35137D01*
X70698Y-35129D01*
X70674Y-35117D01*
X70653Y-35100D01*
X70635Y-35079D01*
X70622Y-35055D01*
X70614Y-35029D01*
X70611Y-35001D01*
X70613Y-34975D01*
X70620Y-34949D01*
X70633Y-34925D01*
X70650Y-34903D01*
X70671Y-34886D01*
X70694Y-34872D01*
X70720Y-34864D01*
X70748Y-34861D01*
X70774Y-34863D01*
X70800Y-34870D01*
X70825Y-34882D01*
X70846Y-34899D01*
X70864Y-34920D01*
X70877Y-34944D01*
X70886Y-34969D01*
X70889Y-34997D01*
X70890Y-35000D01*
X71140Y-42500D02*
X71137Y-42527D01*
X71129Y-42553D01*
X71116Y-42577D01*
X71099Y-42598D01*
X71078Y-42616D01*
X71054Y-42629D01*
X71028Y-42637D01*
X71000Y-42639D01*
X70974Y-42637D01*
X70948Y-42629D01*
X70924Y-42617D01*
X70903Y-42600D01*
X70885Y-42579D01*
X70872Y-42555D01*
X70864Y-42529D01*
X70861Y-42501D01*
X70863Y-42475D01*
X70870Y-42449D01*
X70883Y-42425D01*
X70900Y-42403D01*
X70921Y-42386D01*
X70944Y-42372D01*
X70970Y-42364D01*
X70998Y-42361D01*
X71024Y-42363D01*
X71050Y-42370D01*
X71075Y-42382D01*
X71096Y-42399D01*
X71114Y-42420D01*
X71127Y-42444D01*
X71136Y-42469D01*
X71139Y-42497D01*
X71140Y-42500D01*
X71140Y-50500D02*
X71137Y-50527D01*
X71129Y-50553D01*
X71116Y-50577D01*
X71099Y-50598D01*
X71078Y-50616D01*
X71054Y-50629D01*
X71028Y-50637D01*
X71000Y-50639D01*
X70974Y-50637D01*
X70948Y-50629D01*
X70924Y-50617D01*
X70903Y-50600D01*
X70885Y-50579D01*
X70872Y-50555D01*
X70864Y-50529D01*
X70861Y-50501D01*
X70863Y-50475D01*
X70870Y-50449D01*
X70883Y-50425D01*
X70900Y-50403D01*
X70921Y-50386D01*
X70944Y-50372D01*
X70970Y-50364D01*
X70998Y-50361D01*
X71024Y-50363D01*
X71050Y-50370D01*
X71075Y-50382D01*
X71096Y-50399D01*
X71114Y-50420D01*
X71127Y-50444D01*
X71136Y-50469D01*
X71139Y-50497D01*
X71140Y-50500D01*
X71390Y-33000D02*
X71387Y-33027D01*
X71379Y-33053D01*
X71366Y-33077D01*
X71349Y-33098D01*
X71328Y-33116D01*
X71304Y-33129D01*
X71278Y-33137D01*
X71250Y-33139D01*
X71224Y-33137D01*
X71198Y-33129D01*
X71174Y-33117D01*
X71153Y-33100D01*
X71135Y-33079D01*
X71122Y-33055D01*
X71114Y-33029D01*
X71111Y-33001D01*
X71113Y-32975D01*
X71120Y-32949D01*
X71133Y-32925D01*
X71150Y-32903D01*
X71171Y-32886D01*
X71194Y-32872D01*
X71220Y-32864D01*
X71248Y-32861D01*
X71274Y-32863D01*
X71300Y-32870D01*
X71325Y-32882D01*
X71346Y-32899D01*
X71364Y-32920D01*
X71377Y-32944D01*
X71386Y-32969D01*
X71389Y-32997D01*
X71390Y-33000D01*
X71390Y-36000D02*
X71387Y-36027D01*
X71379Y-36053D01*
X71366Y-36077D01*
X71349Y-36098D01*
X71328Y-36116D01*
X71304Y-36129D01*
X71278Y-36137D01*
X71250Y-36139D01*
X71224Y-36137D01*
X71198Y-36129D01*
X71174Y-36117D01*
X71153Y-36100D01*
X71135Y-36079D01*
X71122Y-36055D01*
X71114Y-36029D01*
X71111Y-36001D01*
X71113Y-35975D01*
X71120Y-35949D01*
X71133Y-35925D01*
X71150Y-35903D01*
X71171Y-35886D01*
X71194Y-35872D01*
X71220Y-35864D01*
X71248Y-35861D01*
X71274Y-35863D01*
X71300Y-35870D01*
X71325Y-35882D01*
X71346Y-35899D01*
X71364Y-35920D01*
X71377Y-35944D01*
X71386Y-35969D01*
X71389Y-35997D01*
X71390Y-36000D01*
X71890Y-25500D02*
X71887Y-25527D01*
X71879Y-25553D01*
X71866Y-25577D01*
X71849Y-25598D01*
X71828Y-25616D01*
X71804Y-25629D01*
X71778Y-25637D01*
X71750Y-25639D01*
X71724Y-25637D01*
X71698Y-25629D01*
X71674Y-25617D01*
X71653Y-25600D01*
X71635Y-25579D01*
X71622Y-25555D01*
X71614Y-25529D01*
X71611Y-25501D01*
X71613Y-25475D01*
X71620Y-25449D01*
X71633Y-25425D01*
X71650Y-25403D01*
X71671Y-25386D01*
X71694Y-25372D01*
X71720Y-25364D01*
X71748Y-25361D01*
X71774Y-25363D01*
X71800Y-25370D01*
X71825Y-25382D01*
X71846Y-25399D01*
X71864Y-25420D01*
X71877Y-25444D01*
X71886Y-25469D01*
X71889Y-25497D01*
X71890Y-25500D01*
X71890Y-27250D02*
X71887Y-27277D01*
X71879Y-27303D01*
X71866Y-27327D01*
X71849Y-27348D01*
X71828Y-27366D01*
X71804Y-27379D01*
X71778Y-27387D01*
X71750Y-27389D01*
X71724Y-27387D01*
X71698Y-27379D01*
X71674Y-27367D01*
X71653Y-27350D01*
X71635Y-27329D01*
X71622Y-27305D01*
X71614Y-27279D01*
X71611Y-27251D01*
X71613Y-27225D01*
X71620Y-27199D01*
X71633Y-27175D01*
X71650Y-27153D01*
X71671Y-27136D01*
X71694Y-27122D01*
X71720Y-27114D01*
X71748Y-27111D01*
X71774Y-27113D01*
X71800Y-27120D01*
X71825Y-27132D01*
X71846Y-27149D01*
X71864Y-27170D01*
X71877Y-27194D01*
X71886Y-27219D01*
X71889Y-27247D01*
X71890Y-27250D01*
X71890Y-32000D02*
X71887Y-32027D01*
X71879Y-32053D01*
X71866Y-32077D01*
X71849Y-32098D01*
X71828Y-32116D01*
X71804Y-32129D01*
X71778Y-32137D01*
X71750Y-32139D01*
X71724Y-32137D01*
X71698Y-32129D01*
X71674Y-32117D01*
X71653Y-32100D01*
X71635Y-32079D01*
X71622Y-32055D01*
X71614Y-32029D01*
X71611Y-32001D01*
X71613Y-31975D01*
X71620Y-31949D01*
X71633Y-31925D01*
X71650Y-31903D01*
X71671Y-31886D01*
X71694Y-31872D01*
X71720Y-31864D01*
X71748Y-31861D01*
X71774Y-31863D01*
X71800Y-31870D01*
X71825Y-31882D01*
X71846Y-31899D01*
X71864Y-31920D01*
X71877Y-31944D01*
X71886Y-31969D01*
X71889Y-31997D01*
X71890Y-32000D01*
X71890Y-37000D02*
X71887Y-37027D01*
X71879Y-37053D01*
X71866Y-37077D01*
X71849Y-37098D01*
X71828Y-37116D01*
X71804Y-37129D01*
X71778Y-37137D01*
X71750Y-37139D01*
X71724Y-37137D01*
X71698Y-37129D01*
X71674Y-37117D01*
X71653Y-37100D01*
X71635Y-37079D01*
X71622Y-37055D01*
X71614Y-37029D01*
X71611Y-37001D01*
X71613Y-36975D01*
X71620Y-36949D01*
X71633Y-36925D01*
X71650Y-36903D01*
X71671Y-36886D01*
X71694Y-36872D01*
X71720Y-36864D01*
X71748Y-36861D01*
X71774Y-36863D01*
X71800Y-36870D01*
X71825Y-36882D01*
X71846Y-36899D01*
X71864Y-36920D01*
X71877Y-36944D01*
X71886Y-36969D01*
X71889Y-36997D01*
X71890Y-37000D01*
X71990Y-42500D02*
X71987Y-42527D01*
X71979Y-42553D01*
X71966Y-42577D01*
X71949Y-42598D01*
X71928Y-42616D01*
X71904Y-42629D01*
X71878Y-42637D01*
X71850Y-42639D01*
X71824Y-42637D01*
X71798Y-42629D01*
X71774Y-42617D01*
X71753Y-42600D01*
X71735Y-42579D01*
X71722Y-42555D01*
X71714Y-42529D01*
X71711Y-42501D01*
X71713Y-42475D01*
X71720Y-42449D01*
X71733Y-42425D01*
X71750Y-42403D01*
X71771Y-42386D01*
X71794Y-42372D01*
X71820Y-42364D01*
X71848Y-42361D01*
X71874Y-42363D01*
X71900Y-42370D01*
X71925Y-42382D01*
X71946Y-42399D01*
X71964Y-42420D01*
X71977Y-42444D01*
X71986Y-42469D01*
X71989Y-42497D01*
X71990Y-42500D01*
X71990Y-44500D02*
X71987Y-44527D01*
X71979Y-44553D01*
X71966Y-44577D01*
X71949Y-44598D01*
X71928Y-44616D01*
X71904Y-44629D01*
X71878Y-44637D01*
X71850Y-44639D01*
X71824Y-44637D01*
X71798Y-44629D01*
X71774Y-44617D01*
X71753Y-44600D01*
X71735Y-44579D01*
X71722Y-44555D01*
X71714Y-44529D01*
X71711Y-44501D01*
X71713Y-44475D01*
X71720Y-44449D01*
X71733Y-44425D01*
X71750Y-44403D01*
X71771Y-44386D01*
X71794Y-44372D01*
X71820Y-44364D01*
X71848Y-44361D01*
X71874Y-44363D01*
X71900Y-44370D01*
X71925Y-44382D01*
X71946Y-44399D01*
X71964Y-44420D01*
X71977Y-44444D01*
X71986Y-44469D01*
X71989Y-44497D01*
X71990Y-44500D01*
X72390Y-31000D02*
X72387Y-31027D01*
X72379Y-31053D01*
X72366Y-31077D01*
X72349Y-31098D01*
X72328Y-31116D01*
X72304Y-31129D01*
X72278Y-31137D01*
X72250Y-31139D01*
X72224Y-31137D01*
X72198Y-31129D01*
X72174Y-31117D01*
X72153Y-31100D01*
X72135Y-31079D01*
X72122Y-31055D01*
X72114Y-31029D01*
X72111Y-31001D01*
X72113Y-30975D01*
X72120Y-30949D01*
X72133Y-30925D01*
X72150Y-30903D01*
X72171Y-30886D01*
X72194Y-30872D01*
X72220Y-30864D01*
X72248Y-30861D01*
X72274Y-30863D01*
X72300Y-30870D01*
X72325Y-30882D01*
X72346Y-30899D01*
X72364Y-30920D01*
X72377Y-30944D01*
X72386Y-30969D01*
X72389Y-30997D01*
X72390Y-31000D01*
X72390Y-38000D02*
X72387Y-38027D01*
X72379Y-38053D01*
X72366Y-38077D01*
X72349Y-38098D01*
X72328Y-38116D01*
X72304Y-38129D01*
X72278Y-38137D01*
X72250Y-38139D01*
X72224Y-38137D01*
X72198Y-38129D01*
X72174Y-38117D01*
X72153Y-38100D01*
X72135Y-38079D01*
X72122Y-38055D01*
X72114Y-38029D01*
X72111Y-38001D01*
X72113Y-37975D01*
X72120Y-37949D01*
X72133Y-37925D01*
X72150Y-37903D01*
X72171Y-37886D01*
X72194Y-37872D01*
X72220Y-37864D01*
X72248Y-37861D01*
X72274Y-37863D01*
X72300Y-37870D01*
X72325Y-37882D01*
X72346Y-37899D01*
X72364Y-37920D01*
X72377Y-37944D01*
X72386Y-37969D01*
X72389Y-37997D01*
X72390Y-38000D01*
X74390Y-43000D02*
X74387Y-43027D01*
X74379Y-43053D01*
X74366Y-43077D01*
X74349Y-43098D01*
X74328Y-43116D01*
X74304Y-43129D01*
X74278Y-43137D01*
X74250Y-43139D01*
X74224Y-43137D01*
X74198Y-43129D01*
X74174Y-43117D01*
X74153Y-43100D01*
X74135Y-43079D01*
X74122Y-43055D01*
X74114Y-43029D01*
X74111Y-43001D01*
X74113Y-42975D01*
X74120Y-42949D01*
X74133Y-42925D01*
X74150Y-42903D01*
X74171Y-42886D01*
X74194Y-42872D01*
X74220Y-42864D01*
X74248Y-42861D01*
X74274Y-42863D01*
X74300Y-42870D01*
X74325Y-42882D01*
X74346Y-42899D01*
X74364Y-42920D01*
X74377Y-42944D01*
X74386Y-42969D01*
X74389Y-42997D01*
X74390Y-43000D01*
X74890Y-44500D02*
X74887Y-44527D01*
X74879Y-44553D01*
X74866Y-44577D01*
X74849Y-44598D01*
X74828Y-44616D01*
X74804Y-44629D01*
X74778Y-44637D01*
X74750Y-44639D01*
X74724Y-44637D01*
X74698Y-44629D01*
X74674Y-44617D01*
X74653Y-44600D01*
X74635Y-44579D01*
X74622Y-44555D01*
X74614Y-44529D01*
X74611Y-44501D01*
X74613Y-44475D01*
X74620Y-44449D01*
X74633Y-44425D01*
X74650Y-44403D01*
X74671Y-44386D01*
X74694Y-44372D01*
X74720Y-44364D01*
X74748Y-44361D01*
X74774Y-44363D01*
X74800Y-44370D01*
X74825Y-44382D01*
X74846Y-44399D01*
X74864Y-44420D01*
X74877Y-44444D01*
X74886Y-44469D01*
X74889Y-44497D01*
X74890Y-44500D01*
X75890Y-45000D02*
X75887Y-45027D01*
X75879Y-45053D01*
X75866Y-45077D01*
X75849Y-45098D01*
X75828Y-45116D01*
X75804Y-45129D01*
X75778Y-45137D01*
X75750Y-45139D01*
X75724Y-45137D01*
X75698Y-45129D01*
X75674Y-45117D01*
X75653Y-45100D01*
X75635Y-45079D01*
X75622Y-45055D01*
X75614Y-45029D01*
X75611Y-45001D01*
X75613Y-44975D01*
X75620Y-44949D01*
X75633Y-44925D01*
X75650Y-44903D01*
X75671Y-44886D01*
X75694Y-44872D01*
X75720Y-44864D01*
X75748Y-44861D01*
X75774Y-44863D01*
X75800Y-44870D01*
X75825Y-44882D01*
X75846Y-44899D01*
X75864Y-44920D01*
X75877Y-44944D01*
X75886Y-44969D01*
X75889Y-44997D01*
X75890Y-45000D01*
X75890Y-49000D02*
X75887Y-49027D01*
X75879Y-49053D01*
X75866Y-49077D01*
X75849Y-49098D01*
X75828Y-49116D01*
X75804Y-49129D01*
X75778Y-49137D01*
X75750Y-49139D01*
X75724Y-49137D01*
X75698Y-49129D01*
X75674Y-49117D01*
X75653Y-49100D01*
X75635Y-49079D01*
X75622Y-49055D01*
X75614Y-49029D01*
X75611Y-49001D01*
X75613Y-48975D01*
X75620Y-48949D01*
X75633Y-48925D01*
X75650Y-48903D01*
X75671Y-48886D01*
X75694Y-48872D01*
X75720Y-48864D01*
X75748Y-48861D01*
X75774Y-48863D01*
X75800Y-48870D01*
X75825Y-48882D01*
X75846Y-48899D01*
X75864Y-48920D01*
X75877Y-48944D01*
X75886Y-48969D01*
X75889Y-48997D01*
X75890Y-49000D01*
X76390Y-36000D02*
X76387Y-36027D01*
X76379Y-36053D01*
X76366Y-36077D01*
X76349Y-36098D01*
X76328Y-36116D01*
X76304Y-36129D01*
X76278Y-36137D01*
X76250Y-36139D01*
X76224Y-36137D01*
X76198Y-36129D01*
X76174Y-36117D01*
X76153Y-36100D01*
X76135Y-36079D01*
X76122Y-36055D01*
X76114Y-36029D01*
X76111Y-36001D01*
X76113Y-35975D01*
X76120Y-35949D01*
X76133Y-35925D01*
X76150Y-35903D01*
X76171Y-35886D01*
X76194Y-35872D01*
X76220Y-35864D01*
X76248Y-35861D01*
X76274Y-35863D01*
X76300Y-35870D01*
X76325Y-35882D01*
X76346Y-35899D01*
X76364Y-35920D01*
X76377Y-35944D01*
X76386Y-35969D01*
X76389Y-35997D01*
X76390Y-36000D01*
X77390Y-44500D02*
X77387Y-44527D01*
X77379Y-44553D01*
X77366Y-44577D01*
X77349Y-44598D01*
X77328Y-44616D01*
X77304Y-44629D01*
X77278Y-44637D01*
X77250Y-44639D01*
X77224Y-44637D01*
X77198Y-44629D01*
X77174Y-44617D01*
X77153Y-44600D01*
X77135Y-44579D01*
X77122Y-44555D01*
X77114Y-44529D01*
X77111Y-44501D01*
X77113Y-44475D01*
X77120Y-44449D01*
X77133Y-44425D01*
X77150Y-44403D01*
X77171Y-44386D01*
X77194Y-44372D01*
X77220Y-44364D01*
X77248Y-44361D01*
X77274Y-44363D01*
X77300Y-44370D01*
X77325Y-44382D01*
X77346Y-44399D01*
X77364Y-44420D01*
X77377Y-44444D01*
X77386Y-44469D01*
X77389Y-44497D01*
X77390Y-44500D01*
X77890Y-46000D02*
X77887Y-46027D01*
X77879Y-46053D01*
X77866Y-46077D01*
X77849Y-46098D01*
X77828Y-46116D01*
X77804Y-46129D01*
X77778Y-46137D01*
X77750Y-46139D01*
X77724Y-46137D01*
X77698Y-46129D01*
X77674Y-46117D01*
X77653Y-46100D01*
X77635Y-46079D01*
X77622Y-46055D01*
X77614Y-46029D01*
X77611Y-46001D01*
X77613Y-45975D01*
X77620Y-45949D01*
X77633Y-45925D01*
X77650Y-45903D01*
X77671Y-45886D01*
X77694Y-45872D01*
X77720Y-45864D01*
X77748Y-45861D01*
X77774Y-45863D01*
X77800Y-45870D01*
X77825Y-45882D01*
X77846Y-45899D01*
X77864Y-45920D01*
X77877Y-45944D01*
X77886Y-45969D01*
X77889Y-45997D01*
X77890Y-46000D01*
X77890Y-49500D02*
X77887Y-49527D01*
X77879Y-49553D01*
X77866Y-49577D01*
X77849Y-49598D01*
X77828Y-49616D01*
X77804Y-49629D01*
X77778Y-49637D01*
X77750Y-49639D01*
X77724Y-49637D01*
X77698Y-49629D01*
X77674Y-49617D01*
X77653Y-49600D01*
X77635Y-49579D01*
X77622Y-49555D01*
X77614Y-49529D01*
X77611Y-49501D01*
X77613Y-49475D01*
X77620Y-49449D01*
X77633Y-49425D01*
X77650Y-49403D01*
X77671Y-49386D01*
X77694Y-49372D01*
X77720Y-49364D01*
X77748Y-49361D01*
X77774Y-49363D01*
X77800Y-49370D01*
X77825Y-49382D01*
X77846Y-49399D01*
X77864Y-49420D01*
X77877Y-49444D01*
X77886Y-49469D01*
X77889Y-49497D01*
X77890Y-49500D01*
X78390Y-36000D02*
X78387Y-36027D01*
X78379Y-36053D01*
X78366Y-36077D01*
X78349Y-36098D01*
X78328Y-36116D01*
X78304Y-36129D01*
X78278Y-36137D01*
X78250Y-36139D01*
X78224Y-36137D01*
X78198Y-36129D01*
X78174Y-36117D01*
X78153Y-36100D01*
X78135Y-36079D01*
X78122Y-36055D01*
X78114Y-36029D01*
X78111Y-36001D01*
X78113Y-35975D01*
X78120Y-35949D01*
X78133Y-35925D01*
X78150Y-35903D01*
X78171Y-35886D01*
X78194Y-35872D01*
X78220Y-35864D01*
X78248Y-35861D01*
X78274Y-35863D01*
X78300Y-35870D01*
X78325Y-35882D01*
X78346Y-35899D01*
X78364Y-35920D01*
X78377Y-35944D01*
X78386Y-35969D01*
X78389Y-35997D01*
X78390Y-36000D01*
X78390Y-43000D02*
X78387Y-43027D01*
X78379Y-43053D01*
X78366Y-43077D01*
X78349Y-43098D01*
X78328Y-43116D01*
X78304Y-43129D01*
X78278Y-43137D01*
X78250Y-43139D01*
X78224Y-43137D01*
X78198Y-43129D01*
X78174Y-43117D01*
X78153Y-43100D01*
X78135Y-43079D01*
X78122Y-43055D01*
X78114Y-43029D01*
X78111Y-43001D01*
X78113Y-42975D01*
X78120Y-42949D01*
X78133Y-42925D01*
X78150Y-42903D01*
X78171Y-42886D01*
X78194Y-42872D01*
X78220Y-42864D01*
X78248Y-42861D01*
X78274Y-42863D01*
X78300Y-42870D01*
X78325Y-42882D01*
X78346Y-42899D01*
X78364Y-42920D01*
X78377Y-42944D01*
X78386Y-42969D01*
X78389Y-42997D01*
X78390Y-43000D01*
X80390Y-38000D02*
X80387Y-38027D01*
X80379Y-38053D01*
X80366Y-38077D01*
X80349Y-38098D01*
X80328Y-38116D01*
X80304Y-38129D01*
X80278Y-38137D01*
X80250Y-38139D01*
X80224Y-38137D01*
X80198Y-38129D01*
X80174Y-38117D01*
X80153Y-38100D01*
X80135Y-38079D01*
X80122Y-38055D01*
X80114Y-38029D01*
X80111Y-38001D01*
X80113Y-37975D01*
X80120Y-37949D01*
X80133Y-37925D01*
X80150Y-37903D01*
X80171Y-37886D01*
X80194Y-37872D01*
X80220Y-37864D01*
X80248Y-37861D01*
X80274Y-37863D01*
X80300Y-37870D01*
X80325Y-37882D01*
X80346Y-37899D01*
X80364Y-37920D01*
X80377Y-37944D01*
X80386Y-37969D01*
X80389Y-37997D01*
X80390Y-38000D01*
X80390Y-48500D02*
X80387Y-48527D01*
X80379Y-48553D01*
X80366Y-48577D01*
X80349Y-48598D01*
X80328Y-48616D01*
X80304Y-48629D01*
X80278Y-48637D01*
X80250Y-48639D01*
X80224Y-48637D01*
X80198Y-48629D01*
X80174Y-48617D01*
X80153Y-48600D01*
X80135Y-48579D01*
X80122Y-48555D01*
X80114Y-48529D01*
X80111Y-48501D01*
X80113Y-48475D01*
X80120Y-48449D01*
X80133Y-48425D01*
X80150Y-48403D01*
X80171Y-48386D01*
X80194Y-48372D01*
X80220Y-48364D01*
X80248Y-48361D01*
X80274Y-48363D01*
X80300Y-48370D01*
X80325Y-48382D01*
X80346Y-48399D01*
X80364Y-48420D01*
X80377Y-48444D01*
X80386Y-48469D01*
X80389Y-48497D01*
X80390Y-48500D01*
X80890Y-39000D02*
X80887Y-39027D01*
X80879Y-39053D01*
X80866Y-39077D01*
X80849Y-39098D01*
X80828Y-39116D01*
X80804Y-39129D01*
X80778Y-39137D01*
X80750Y-39139D01*
X80724Y-39137D01*
X80698Y-39129D01*
X80674Y-39117D01*
X80653Y-39100D01*
X80635Y-39079D01*
X80622Y-39055D01*
X80614Y-39029D01*
X80611Y-39001D01*
X80613Y-38975D01*
X80620Y-38949D01*
X80633Y-38925D01*
X80650Y-38903D01*
X80671Y-38886D01*
X80694Y-38872D01*
X80720Y-38864D01*
X80748Y-38861D01*
X80774Y-38863D01*
X80800Y-38870D01*
X80825Y-38882D01*
X80846Y-38899D01*
X80864Y-38920D01*
X80877Y-38944D01*
X80886Y-38969D01*
X80889Y-38997D01*
X80890Y-39000D01*
X80890Y-48000D02*
X80887Y-48027D01*
X80879Y-48053D01*
X80866Y-48077D01*
X80849Y-48098D01*
X80828Y-48116D01*
X80804Y-48129D01*
X80778Y-48137D01*
X80750Y-48139D01*
X80724Y-48137D01*
X80698Y-48129D01*
X80674Y-48117D01*
X80653Y-48100D01*
X80635Y-48079D01*
X80622Y-48055D01*
X80614Y-48029D01*
X80611Y-48001D01*
X80613Y-47975D01*
X80620Y-47949D01*
X80633Y-47925D01*
X80650Y-47903D01*
X80671Y-47886D01*
X80694Y-47872D01*
X80720Y-47864D01*
X80748Y-47861D01*
X80774Y-47863D01*
X80800Y-47870D01*
X80825Y-47882D01*
X80846Y-47899D01*
X80864Y-47920D01*
X80877Y-47944D01*
X80886Y-47969D01*
X80889Y-47997D01*
X80890Y-48000D01*
X22750Y-45840D02*
X22750Y-46160D01*
X22910Y-46000D02*
X22590Y-46000D01*
X22750Y-47840D02*
X22750Y-48160D01*
X22910Y-48000D02*
X22590Y-48000D01*
X23750Y-34340D02*
X23750Y-34660D01*
X23910Y-34500D02*
X23590Y-34500D01*
X23750Y-37340D02*
X23750Y-37660D01*
X23910Y-37500D02*
X23590Y-37500D01*
X24250Y-38840D02*
X24250Y-39160D01*
X24410Y-39000D02*
X24090Y-39000D01*
X24250Y-39840D02*
X24250Y-40160D01*
X24410Y-40000D02*
X24090Y-40000D01*
X24250Y-40840D02*
X24250Y-41160D01*
X24410Y-41000D02*
X24090Y-41000D01*
X24250Y-41840D02*
X24250Y-42160D01*
X24410Y-42000D02*
X24090Y-42000D01*
X24250Y-42840D02*
X24250Y-43160D01*
X24410Y-43000D02*
X24090Y-43000D01*
X24250Y-43840D02*
X24250Y-44160D01*
X24410Y-44000D02*
X24090Y-44000D01*
X24250Y-44840D02*
X24250Y-45160D01*
X24410Y-45000D02*
X24090Y-45000D01*
X24250Y-45840D02*
X24250Y-46160D01*
X24410Y-46000D02*
X24090Y-46000D01*
X24250Y-46840D02*
X24250Y-47160D01*
X24410Y-47000D02*
X24090Y-47000D01*
X24250Y-47840D02*
X24250Y-48160D01*
X24410Y-48000D02*
X24090Y-48000D01*
X24750Y-36340D02*
X24750Y-36660D01*
X24910Y-36500D02*
X24590Y-36500D01*
X24750Y-37340D02*
X24750Y-37660D01*
X24910Y-37500D02*
X24590Y-37500D01*
X27250Y-38840D02*
X27250Y-39160D01*
X27410Y-39000D02*
X27090Y-39000D01*
X27250Y-39840D02*
X27250Y-40160D01*
X27410Y-40000D02*
X27090Y-40000D01*
X27250Y-40840D02*
X27250Y-41160D01*
X27410Y-41000D02*
X27090Y-41000D01*
X27250Y-41840D02*
X27250Y-42160D01*
X27410Y-42000D02*
X27090Y-42000D01*
X27250Y-42840D02*
X27250Y-43160D01*
X27410Y-43000D02*
X27090Y-43000D01*
X27250Y-43840D02*
X27250Y-44160D01*
X27410Y-44000D02*
X27090Y-44000D01*
X27250Y-44840D02*
X27250Y-45160D01*
X27410Y-45000D02*
X27090Y-45000D01*
X27250Y-45840D02*
X27250Y-46160D01*
X27410Y-46000D02*
X27090Y-46000D01*
X27250Y-46840D02*
X27250Y-47160D01*
X27410Y-47000D02*
X27090Y-47000D01*
X27250Y-47840D02*
X27250Y-48160D01*
X27410Y-48000D02*
X27090Y-48000D01*
X27750Y-36340D02*
X27750Y-36660D01*
X27910Y-36500D02*
X27590Y-36500D01*
X27750Y-37340D02*
X27750Y-37660D01*
X27910Y-37500D02*
X27590Y-37500D01*
X28750Y-46840D02*
X28750Y-47160D01*
X28910Y-47000D02*
X28590Y-47000D01*
X28750Y-47840D02*
X28750Y-48160D01*
X28910Y-48000D02*
X28590Y-48000D01*
X29250Y-33840D02*
X29250Y-34160D01*
X29410Y-34000D02*
X29090Y-34000D01*
X29250Y-37340D02*
X29250Y-37660D01*
X29410Y-37500D02*
X29090Y-37500D01*
X29500Y-42390D02*
X29500Y-42710D01*
X29660Y-42550D02*
X29340Y-42550D01*
X29500Y-44290D02*
X29500Y-44610D01*
X29660Y-44450D02*
X29340Y-44450D01*
X29750Y-35840D02*
X29750Y-36160D01*
X29910Y-36000D02*
X29590Y-36000D01*
X29750Y-39340D02*
X29750Y-39660D01*
X29910Y-39500D02*
X29590Y-39500D01*
X30250Y-35090D02*
X30250Y-35410D01*
X30410Y-35250D02*
X30090Y-35250D01*
X30750Y-35840D02*
X30750Y-36160D01*
X30910Y-36000D02*
X30590Y-36000D01*
X30750Y-39340D02*
X30750Y-39660D01*
X30910Y-39500D02*
X30590Y-39500D01*
X31000Y-18840D02*
X31000Y-19160D01*
X31160Y-19000D02*
X30840Y-19000D01*
X31000Y-20090D02*
X31000Y-20410D01*
X31160Y-20250D02*
X30840Y-20250D01*
X31000Y-21340D02*
X31000Y-21660D01*
X31160Y-21500D02*
X30840Y-21500D01*
X31000Y-22590D02*
X31000Y-22910D01*
X31160Y-22750D02*
X30840Y-22750D01*
X31000Y-23840D02*
X31000Y-24160D01*
X31160Y-24000D02*
X30840Y-24000D01*
X31000Y-25090D02*
X31000Y-25410D01*
X31160Y-25250D02*
X30840Y-25250D01*
X31250Y-33840D02*
X31250Y-34160D01*
X31410Y-34000D02*
X31090Y-34000D01*
X31250Y-37340D02*
X31250Y-37660D01*
X31410Y-37500D02*
X31090Y-37500D01*
X31500Y-42340D02*
X31500Y-42660D01*
X31660Y-42500D02*
X31340Y-42500D01*
X31500Y-44340D02*
X31500Y-44660D01*
X31660Y-44500D02*
X31340Y-44500D01*
X31750Y-46840D02*
X31750Y-47160D01*
X31910Y-47000D02*
X31590Y-47000D01*
X31750Y-47840D02*
X31750Y-48160D01*
X31910Y-48000D02*
X31590Y-48000D01*
X32500Y-42340D02*
X32500Y-42660D01*
X32660Y-42500D02*
X32340Y-42500D01*
X32500Y-44340D02*
X32500Y-44660D01*
X32660Y-44500D02*
X32340Y-44500D01*
X34000Y-18840D02*
X34000Y-19160D01*
X34160Y-19000D02*
X33840Y-19000D01*
X34000Y-20090D02*
X34000Y-20410D01*
X34160Y-20250D02*
X33840Y-20250D01*
X34000Y-21340D02*
X34000Y-21660D01*
X34160Y-21500D02*
X33840Y-21500D01*
X34000Y-22590D02*
X34000Y-22910D01*
X34160Y-22750D02*
X33840Y-22750D01*
X34000Y-23840D02*
X34000Y-24160D01*
X34160Y-24000D02*
X33840Y-24000D01*
X34000Y-25090D02*
X34000Y-25410D01*
X34160Y-25250D02*
X33840Y-25250D01*
X34750Y-27340D02*
X34750Y-27660D01*
X34910Y-27500D02*
X34590Y-27500D01*
X35250Y-22090D02*
X35250Y-22410D01*
X35410Y-22250D02*
X35090Y-22250D01*
X35250Y-24590D02*
X35250Y-24910D01*
X35410Y-24750D02*
X35090Y-24750D01*
X35275Y-19515D02*
X35275Y-19835D01*
X35435Y-19675D02*
X35115Y-19675D01*
X35750Y-27340D02*
X35750Y-27660D01*
X35910Y-27500D02*
X35590Y-27500D01*
X36000Y-21590D02*
X36000Y-21910D01*
X36160Y-21750D02*
X35840Y-21750D01*
X36000Y-22590D02*
X36000Y-22910D01*
X36160Y-22750D02*
X35840Y-22750D01*
X36000Y-24090D02*
X36000Y-24410D01*
X36160Y-24250D02*
X35840Y-24250D01*
X36000Y-25090D02*
X36000Y-25410D01*
X36160Y-25250D02*
X35840Y-25250D01*
X36025Y-19015D02*
X36025Y-19335D01*
X36185Y-19175D02*
X35865Y-19175D01*
X36025Y-20015D02*
X36025Y-20335D01*
X36185Y-20175D02*
X35865Y-20175D01*
X45750Y-42840D02*
X45750Y-43160D01*
X45910Y-43000D02*
X45590Y-43000D01*
X46150Y-46440D02*
X46150Y-46760D01*
X46310Y-46600D02*
X45990Y-46600D01*
X46150Y-48440D02*
X46150Y-48760D01*
X46310Y-48600D02*
X45990Y-48600D01*
X46500Y-19090D02*
X46500Y-19410D01*
X46660Y-19250D02*
X46340Y-19250D01*
X46500Y-20090D02*
X46500Y-20410D01*
X46660Y-20250D02*
X46340Y-20250D01*
X46500Y-21590D02*
X46500Y-21910D01*
X46660Y-21750D02*
X46340Y-21750D01*
X46500Y-22590D02*
X46500Y-22910D01*
X46660Y-22750D02*
X46340Y-22750D01*
X46500Y-24090D02*
X46500Y-24410D01*
X46660Y-24250D02*
X46340Y-24250D01*
X46500Y-25090D02*
X46500Y-25410D01*
X46660Y-25250D02*
X46340Y-25250D01*
X46500Y-26590D02*
X46500Y-26910D01*
X46660Y-26750D02*
X46340Y-26750D01*
X46500Y-27590D02*
X46500Y-27910D01*
X46660Y-27750D02*
X46340Y-27750D01*
X46750Y-42840D02*
X46750Y-43160D01*
X46910Y-43000D02*
X46590Y-43000D01*
X47150Y-46440D02*
X47150Y-46760D01*
X47310Y-46600D02*
X46990Y-46600D01*
X47150Y-48440D02*
X47150Y-48760D01*
X47310Y-48600D02*
X46990Y-48600D01*
X47250Y-19590D02*
X47250Y-19910D01*
X47410Y-19750D02*
X47090Y-19750D01*
X47250Y-22090D02*
X47250Y-22410D01*
X47410Y-22250D02*
X47090Y-22250D01*
X47250Y-24590D02*
X47250Y-24910D01*
X47410Y-24750D02*
X47090Y-24750D01*
X47250Y-27090D02*
X47250Y-27410D01*
X47410Y-27250D02*
X47090Y-27250D01*
X48500Y-18840D02*
X48500Y-19160D01*
X48660Y-19000D02*
X48340Y-19000D01*
X48500Y-20090D02*
X48500Y-20410D01*
X48660Y-20250D02*
X48340Y-20250D01*
X48500Y-21340D02*
X48500Y-21660D01*
X48660Y-21500D02*
X48340Y-21500D01*
X48500Y-22590D02*
X48500Y-22910D01*
X48660Y-22750D02*
X48340Y-22750D01*
X48500Y-23840D02*
X48500Y-24160D01*
X48660Y-24000D02*
X48340Y-24000D01*
X48500Y-25090D02*
X48500Y-25410D01*
X48660Y-25250D02*
X48340Y-25250D01*
X48500Y-26340D02*
X48500Y-26660D01*
X48660Y-26500D02*
X48340Y-26500D01*
X48500Y-27590D02*
X48500Y-27910D01*
X48660Y-27750D02*
X48340Y-27750D01*
X48750Y-38840D02*
X48750Y-39160D01*
X48910Y-39000D02*
X48590Y-39000D01*
X48750Y-41840D02*
X48750Y-42160D01*
X48910Y-42000D02*
X48590Y-42000D01*
X49150Y-46490D02*
X49150Y-46810D01*
X49310Y-46650D02*
X48990Y-46650D01*
X49150Y-48390D02*
X49150Y-48710D01*
X49310Y-48550D02*
X48990Y-48550D01*
X51500Y-18840D02*
X51500Y-19160D01*
X51660Y-19000D02*
X51340Y-19000D01*
X51500Y-20090D02*
X51500Y-20410D01*
X51660Y-20250D02*
X51340Y-20250D01*
X51500Y-21340D02*
X51500Y-21660D01*
X51660Y-21500D02*
X51340Y-21500D01*
X51500Y-22590D02*
X51500Y-22910D01*
X51660Y-22750D02*
X51340Y-22750D01*
X51500Y-23840D02*
X51500Y-24160D01*
X51660Y-24000D02*
X51340Y-24000D01*
X51500Y-25090D02*
X51500Y-25410D01*
X51660Y-25250D02*
X51340Y-25250D01*
X51500Y-26340D02*
X51500Y-26660D01*
X51660Y-26500D02*
X51340Y-26500D01*
X51500Y-27590D02*
X51500Y-27910D01*
X51660Y-27750D02*
X51340Y-27750D01*
X53250Y-29840D02*
X53250Y-30160D01*
X53410Y-30000D02*
X53090Y-30000D01*
X53250Y-30840D02*
X53250Y-31160D01*
X53410Y-31000D02*
X53090Y-31000D01*
X53250Y-31840D02*
X53250Y-32160D01*
X53410Y-32000D02*
X53090Y-32000D01*
X53250Y-32840D02*
X53250Y-33160D01*
X53410Y-33000D02*
X53090Y-33000D01*
X53250Y-33840D02*
X53250Y-34160D01*
X53410Y-34000D02*
X53090Y-34000D01*
X53250Y-34840D02*
X53250Y-35160D01*
X53410Y-35000D02*
X53090Y-35000D01*
X53250Y-35840D02*
X53250Y-36160D01*
X53410Y-36000D02*
X53090Y-36000D01*
X53250Y-36840D02*
X53250Y-37160D01*
X53410Y-37000D02*
X53090Y-37000D01*
X53250Y-37840D02*
X53250Y-38160D01*
X53410Y-38000D02*
X53090Y-38000D01*
X53250Y-38840D02*
X53250Y-39160D01*
X53410Y-39000D02*
X53090Y-39000D01*
X53250Y-39840D02*
X53250Y-40160D01*
X53410Y-40000D02*
X53090Y-40000D01*
X53250Y-40840D02*
X53250Y-41160D01*
X53410Y-41000D02*
X53090Y-41000D01*
X53250Y-41840D02*
X53250Y-42160D01*
X53410Y-42000D02*
X53090Y-42000D01*
X53250Y-42840D02*
X53250Y-43160D01*
X53410Y-43000D02*
X53090Y-43000D01*
X53250Y-43840D02*
X53250Y-44160D01*
X53410Y-44000D02*
X53090Y-44000D01*
X53250Y-44840D02*
X53250Y-45160D01*
X53410Y-45000D02*
X53090Y-45000D01*
X53250Y-45840D02*
X53250Y-46160D01*
X53410Y-46000D02*
X53090Y-46000D01*
X53250Y-46840D02*
X53250Y-47160D01*
X53410Y-47000D02*
X53090Y-47000D01*
X53250Y-47840D02*
X53250Y-48160D01*
X53410Y-48000D02*
X53090Y-48000D01*
X53250Y-48840D02*
X53250Y-49160D01*
X53410Y-49000D02*
X53090Y-49000D01*
X59250Y-29840D02*
X59250Y-30160D01*
X59410Y-30000D02*
X59090Y-30000D01*
X59250Y-30840D02*
X59250Y-31160D01*
X59410Y-31000D02*
X59090Y-31000D01*
X59250Y-31840D02*
X59250Y-32160D01*
X59410Y-32000D02*
X59090Y-32000D01*
X59250Y-32840D02*
X59250Y-33160D01*
X59410Y-33000D02*
X59090Y-33000D01*
X59250Y-33840D02*
X59250Y-34160D01*
X59410Y-34000D02*
X59090Y-34000D01*
X59250Y-34840D02*
X59250Y-35160D01*
X59410Y-35000D02*
X59090Y-35000D01*
X59250Y-35840D02*
X59250Y-36160D01*
X59410Y-36000D02*
X59090Y-36000D01*
X59250Y-36840D02*
X59250Y-37160D01*
X59410Y-37000D02*
X59090Y-37000D01*
X59250Y-37840D02*
X59250Y-38160D01*
X59410Y-38000D02*
X59090Y-38000D01*
X59250Y-38840D02*
X59250Y-39160D01*
X59410Y-39000D02*
X59090Y-39000D01*
X59250Y-39840D02*
X59250Y-40160D01*
X59410Y-40000D02*
X59090Y-40000D01*
X59250Y-40840D02*
X59250Y-41160D01*
X59410Y-41000D02*
X59090Y-41000D01*
X59250Y-41840D02*
X59250Y-42160D01*
X59410Y-42000D02*
X59090Y-42000D01*
X59250Y-42840D02*
X59250Y-43160D01*
X59410Y-43000D02*
X59090Y-43000D01*
X59250Y-43840D02*
X59250Y-44160D01*
X59410Y-44000D02*
X59090Y-44000D01*
X59250Y-44840D02*
X59250Y-45160D01*
X59410Y-45000D02*
X59090Y-45000D01*
X59250Y-45840D02*
X59250Y-46160D01*
X59410Y-46000D02*
X59090Y-46000D01*
X59250Y-46840D02*
X59250Y-47160D01*
X59410Y-47000D02*
X59090Y-47000D01*
X59250Y-47840D02*
X59250Y-48160D01*
X59410Y-48000D02*
X59090Y-48000D01*
X59250Y-48840D02*
X59250Y-49160D01*
X59410Y-49000D02*
X59090Y-49000D01*
X61050Y-29840D02*
X61050Y-30160D01*
X61210Y-30000D02*
X60890Y-30000D01*
X63050Y-29840D02*
X63050Y-30160D01*
X63210Y-30000D02*
X62890Y-30000D01*
X65250Y-29840D02*
X65250Y-30160D01*
X65410Y-30000D02*
X65090Y-30000D01*
X65250Y-30840D02*
X65250Y-31160D01*
X65410Y-31000D02*
X65090Y-31000D01*
X65250Y-31840D02*
X65250Y-32160D01*
X65410Y-32000D02*
X65090Y-32000D01*
X65250Y-32840D02*
X65250Y-33160D01*
X65410Y-33000D02*
X65090Y-33000D01*
X65250Y-33840D02*
X65250Y-34160D01*
X65410Y-34000D02*
X65090Y-34000D01*
X65250Y-34840D02*
X65250Y-35160D01*
X65410Y-35000D02*
X65090Y-35000D01*
X65250Y-35840D02*
X65250Y-36160D01*
X65410Y-36000D02*
X65090Y-36000D01*
X65250Y-36840D02*
X65250Y-37160D01*
X65410Y-37000D02*
X65090Y-37000D01*
X65250Y-37840D02*
X65250Y-38160D01*
X65410Y-38000D02*
X65090Y-38000D01*
X65250Y-38840D02*
X65250Y-39160D01*
X65410Y-39000D02*
X65090Y-39000D01*
X68250Y-29840D02*
X68250Y-30160D01*
X68410Y-30000D02*
X68090Y-30000D01*
X68250Y-30840D02*
X68250Y-31160D01*
X68410Y-31000D02*
X68090Y-31000D01*
X68250Y-31840D02*
X68250Y-32160D01*
X68410Y-32000D02*
X68090Y-32000D01*
X68250Y-32840D02*
X68250Y-33160D01*
X68410Y-33000D02*
X68090Y-33000D01*
X68250Y-33840D02*
X68250Y-34160D01*
X68410Y-34000D02*
X68090Y-34000D01*
X68250Y-34840D02*
X68250Y-35160D01*
X68410Y-35000D02*
X68090Y-35000D01*
X68250Y-35840D02*
X68250Y-36160D01*
X68410Y-36000D02*
X68090Y-36000D01*
X68250Y-36840D02*
X68250Y-37160D01*
X68410Y-37000D02*
X68090Y-37000D01*
X68250Y-37840D02*
X68250Y-38160D01*
X68410Y-38000D02*
X68090Y-38000D01*
X68250Y-38840D02*
X68250Y-39160D01*
X68410Y-39000D02*
X68090Y-39000D01*
X69750Y-29840D02*
X69750Y-30160D01*
X69910Y-30000D02*
X69590Y-30000D01*
X71750Y-29840D02*
X71750Y-30160D01*
X71910Y-30000D02*
X71590Y-30000D01*
X73250Y-28840D02*
X73250Y-29160D01*
X73410Y-29000D02*
X73090Y-29000D01*
X73250Y-29840D02*
X73250Y-30160D01*
X73410Y-30000D02*
X73090Y-30000D01*
X73250Y-30840D02*
X73250Y-31160D01*
X73410Y-31000D02*
X73090Y-31000D01*
X73250Y-31840D02*
X73250Y-32160D01*
X73410Y-32000D02*
X73090Y-32000D01*
X73250Y-32840D02*
X73250Y-33160D01*
X73410Y-33000D02*
X73090Y-33000D01*
X73250Y-33840D02*
X73250Y-34160D01*
X73410Y-34000D02*
X73090Y-34000D01*
X73250Y-34840D02*
X73250Y-35160D01*
X73410Y-35000D02*
X73090Y-35000D01*
X73250Y-35840D02*
X73250Y-36160D01*
X73410Y-36000D02*
X73090Y-36000D01*
X73250Y-36840D02*
X73250Y-37160D01*
X73410Y-37000D02*
X73090Y-37000D01*
X73250Y-37840D02*
X73250Y-38160D01*
X73410Y-38000D02*
X73090Y-38000D01*
X73250Y-38840D02*
X73250Y-39160D01*
X73410Y-39000D02*
X73090Y-39000D01*
X73250Y-39840D02*
X73250Y-40160D01*
X73410Y-40000D02*
X73090Y-40000D01*
X73250Y-40840D02*
X73250Y-41160D01*
X73410Y-41000D02*
X73090Y-41000D01*
X73250Y-41840D02*
X73250Y-42160D01*
X73410Y-42000D02*
X73090Y-42000D01*
X79250Y-28840D02*
X79250Y-29160D01*
X79410Y-29000D02*
X79090Y-29000D01*
X79250Y-29840D02*
X79250Y-30160D01*
X79410Y-30000D02*
X79090Y-30000D01*
X79250Y-30840D02*
X79250Y-31160D01*
X79410Y-31000D02*
X79090Y-31000D01*
X79250Y-31840D02*
X79250Y-32160D01*
X79410Y-32000D02*
X79090Y-32000D01*
X79250Y-32840D02*
X79250Y-33160D01*
X79410Y-33000D02*
X79090Y-33000D01*
X79250Y-33840D02*
X79250Y-34160D01*
X79410Y-34000D02*
X79090Y-34000D01*
X79250Y-34840D02*
X79250Y-35160D01*
X79410Y-35000D02*
X79090Y-35000D01*
X79250Y-35840D02*
X79250Y-36160D01*
X79410Y-36000D02*
X79090Y-36000D01*
X79250Y-36840D02*
X79250Y-37160D01*
X79410Y-37000D02*
X79090Y-37000D01*
X79250Y-37840D02*
X79250Y-38160D01*
X79410Y-38000D02*
X79090Y-38000D01*
X79250Y-38840D02*
X79250Y-39160D01*
X79410Y-39000D02*
X79090Y-39000D01*
X79250Y-39840D02*
X79250Y-40160D01*
X79410Y-40000D02*
X79090Y-40000D01*
X79250Y-40840D02*
X79250Y-41160D01*
X79410Y-41000D02*
X79090Y-41000D01*
X79250Y-41840D02*
X79250Y-42160D01*
X79410Y-42000D02*
X79090Y-42000D01*
X80500Y-28840D02*
X80500Y-29160D01*
X80660Y-29000D02*
X80340Y-29000D01*
X82500Y-28840D02*
X82500Y-29160D01*
X82660Y-29000D02*
X82340Y-29000D01*
X36839Y-48420D02*
X36835Y-48454D01*
X36825Y-48487D01*
X36809Y-48517D01*
X36787Y-48544D01*
X36760Y-48566D01*
X36730Y-48583D01*
X36697Y-48593D01*
X36663Y-48596D01*
X36629Y-48593D01*
X36596Y-48584D01*
X36566Y-48568D01*
X36539Y-48546D01*
X36516Y-48519D01*
X36500Y-48489D01*
X36489Y-48456D01*
X36486Y-48422D01*
X36488Y-48389D01*
X36498Y-48355D01*
X36514Y-48325D01*
X36535Y-48298D01*
X36561Y-48275D01*
X36592Y-48258D01*
X36624Y-48248D01*
X36659Y-48244D01*
X36692Y-48246D01*
X36726Y-48255D01*
X36756Y-48271D01*
X36784Y-48292D01*
X36806Y-48318D01*
X36823Y-48349D01*
X36834Y-48381D01*
X36838Y-48416D01*
X36839Y-48420D01*
X36485Y-48243D02*
X36839Y-48597D01*
X36839Y-48243D02*
X36485Y-48597D01*
X36839Y-49404D02*
X36835Y-49438D01*
X36825Y-49471D01*
X36809Y-49501D01*
X36787Y-49528D01*
X36760Y-49550D01*
X36730Y-49567D01*
X36697Y-49577D01*
X36663Y-49580D01*
X36629Y-49577D01*
X36596Y-49568D01*
X36566Y-49552D01*
X36539Y-49530D01*
X36516Y-49503D01*
X36500Y-49473D01*
X36489Y-49440D01*
X36486Y-49406D01*
X36488Y-49373D01*
X36498Y-49339D01*
X36514Y-49309D01*
X36535Y-49282D01*
X36561Y-49259D01*
X36592Y-49242D01*
X36624Y-49232D01*
X36659Y-49228D01*
X36692Y-49230D01*
X36726Y-49239D01*
X36756Y-49255D01*
X36784Y-49276D01*
X36806Y-49302D01*
X36823Y-49333D01*
X36834Y-49365D01*
X36838Y-49400D01*
X36839Y-49404D01*
X36485Y-49227D02*
X36839Y-49581D01*
X36839Y-49227D02*
X36485Y-49581D01*
X37666Y-49404D02*
X37662Y-49438D01*
X37652Y-49471D01*
X37636Y-49501D01*
X37614Y-49528D01*
X37587Y-49550D01*
X37557Y-49567D01*
X37524Y-49577D01*
X37490Y-49580D01*
X37456Y-49577D01*
X37423Y-49568D01*
X37393Y-49552D01*
X37366Y-49530D01*
X37343Y-49503D01*
X37327Y-49473D01*
X37316Y-49440D01*
X37313Y-49406D01*
X37315Y-49373D01*
X37325Y-49339D01*
X37341Y-49309D01*
X37362Y-49282D01*
X37388Y-49259D01*
X37419Y-49242D01*
X37451Y-49232D01*
X37486Y-49228D01*
X37519Y-49230D01*
X37553Y-49239D01*
X37583Y-49255D01*
X37611Y-49276D01*
X37633Y-49302D01*
X37650Y-49333D01*
X37661Y-49365D01*
X37665Y-49400D01*
X37666Y-49404D01*
X37312Y-49227D02*
X37666Y-49581D01*
X37666Y-49227D02*
X37312Y-49581D01*
X38688Y-49404D02*
X38684Y-49438D01*
X38674Y-49471D01*
X38658Y-49501D01*
X38636Y-49528D01*
X38609Y-49550D01*
X38579Y-49567D01*
X38546Y-49577D01*
X38512Y-49580D01*
X38478Y-49577D01*
X38445Y-49568D01*
X38415Y-49552D01*
X38388Y-49530D01*
X38365Y-49503D01*
X38349Y-49473D01*
X38338Y-49440D01*
X38335Y-49406D01*
X38337Y-49373D01*
X38347Y-49339D01*
X38363Y-49309D01*
X38384Y-49282D01*
X38410Y-49259D01*
X38441Y-49242D01*
X38473Y-49232D01*
X38508Y-49228D01*
X38541Y-49230D01*
X38575Y-49239D01*
X38605Y-49255D01*
X38633Y-49276D01*
X38655Y-49302D01*
X38672Y-49333D01*
X38683Y-49365D01*
X38687Y-49400D01*
X38688Y-49404D01*
X38334Y-49227D02*
X38688Y-49581D01*
X38688Y-49227D02*
X38334Y-49581D01*
X39515Y-48420D02*
X39511Y-48454D01*
X39501Y-48487D01*
X39485Y-48517D01*
X39463Y-48544D01*
X39436Y-48566D01*
X39406Y-48583D01*
X39373Y-48593D01*
X39339Y-48596D01*
X39305Y-48593D01*
X39272Y-48584D01*
X39242Y-48568D01*
X39215Y-48546D01*
X39192Y-48519D01*
X39176Y-48489D01*
X39165Y-48456D01*
X39162Y-48422D01*
X39164Y-48389D01*
X39174Y-48355D01*
X39190Y-48325D01*
X39211Y-48298D01*
X39237Y-48275D01*
X39268Y-48258D01*
X39300Y-48248D01*
X39335Y-48244D01*
X39368Y-48246D01*
X39402Y-48255D01*
X39432Y-48271D01*
X39460Y-48292D01*
X39482Y-48318D01*
X39499Y-48349D01*
X39510Y-48381D01*
X39514Y-48416D01*
X39515Y-48420D01*
X39161Y-48243D02*
X39515Y-48597D01*
X39515Y-48243D02*
X39161Y-48597D01*
X39515Y-49404D02*
X39511Y-49438D01*
X39501Y-49471D01*
X39485Y-49501D01*
X39463Y-49528D01*
X39436Y-49550D01*
X39406Y-49567D01*
X39373Y-49577D01*
X39339Y-49580D01*
X39305Y-49577D01*
X39272Y-49568D01*
X39242Y-49552D01*
X39215Y-49530D01*
X39192Y-49503D01*
X39176Y-49473D01*
X39165Y-49440D01*
X39162Y-49406D01*
X39164Y-49373D01*
X39174Y-49339D01*
X39190Y-49309D01*
X39211Y-49282D01*
X39237Y-49259D01*
X39268Y-49242D01*
X39300Y-49232D01*
X39335Y-49228D01*
X39368Y-49230D01*
X39402Y-49239D01*
X39432Y-49255D01*
X39460Y-49276D01*
X39482Y-49302D01*
X39499Y-49333D01*
X39510Y-49365D01*
X39514Y-49400D01*
X39515Y-49404D01*
X39161Y-49227D02*
X39515Y-49581D01*
X39515Y-49227D02*
X39161Y-49581D01*
X36430Y-35000D02*
X36426Y-35034D01*
X36416Y-35068D01*
X36399Y-35099D01*
X36377Y-35126D01*
X36350Y-35149D01*
X36319Y-35165D01*
X36286Y-35176D01*
X36251Y-35179D01*
X36217Y-35176D01*
X36183Y-35166D01*
X36152Y-35150D01*
X36125Y-35128D01*
X36102Y-35101D01*
X36085Y-35070D01*
X36074Y-35037D01*
X36071Y-35002D01*
X36073Y-34968D01*
X36083Y-34934D01*
X36099Y-34903D01*
X36121Y-34875D01*
X36148Y-34853D01*
X36178Y-34836D01*
X36212Y-34825D01*
X36247Y-34821D01*
X36281Y-34823D01*
X36315Y-34833D01*
X36346Y-34849D01*
X36374Y-34870D01*
X36397Y-34897D01*
X36414Y-34927D01*
X36425Y-34961D01*
X36429Y-34995D01*
X36430Y-35000D01*
X36070Y-35000D02*
X36430Y-35000D01*
X36430Y-36000D02*
X36426Y-36034D01*
X36416Y-36068D01*
X36399Y-36099D01*
X36377Y-36126D01*
X36350Y-36149D01*
X36319Y-36165D01*
X36286Y-36176D01*
X36251Y-36179D01*
X36217Y-36176D01*
X36183Y-36166D01*
X36152Y-36150D01*
X36125Y-36128D01*
X36102Y-36101D01*
X36085Y-36070D01*
X36074Y-36037D01*
X36071Y-36002D01*
X36073Y-35968D01*
X36083Y-35934D01*
X36099Y-35903D01*
X36121Y-35875D01*
X36148Y-35853D01*
X36178Y-35836D01*
X36212Y-35825D01*
X36247Y-35821D01*
X36281Y-35823D01*
X36315Y-35833D01*
X36346Y-35849D01*
X36374Y-35870D01*
X36397Y-35897D01*
X36414Y-35927D01*
X36425Y-35961D01*
X36429Y-35995D01*
X36430Y-36000D01*
X36070Y-36000D02*
X36430Y-36000D01*
X36430Y-37000D02*
X36426Y-37034D01*
X36416Y-37068D01*
X36399Y-37099D01*
X36377Y-37126D01*
X36350Y-37149D01*
X36319Y-37165D01*
X36286Y-37176D01*
X36251Y-37179D01*
X36217Y-37176D01*
X36183Y-37166D01*
X36152Y-37150D01*
X36125Y-37128D01*
X36102Y-37101D01*
X36085Y-37070D01*
X36074Y-37037D01*
X36071Y-37002D01*
X36073Y-36968D01*
X36083Y-36934D01*
X36099Y-36903D01*
X36121Y-36875D01*
X36148Y-36853D01*
X36178Y-36836D01*
X36212Y-36825D01*
X36247Y-36821D01*
X36281Y-36823D01*
X36315Y-36833D01*
X36346Y-36849D01*
X36374Y-36870D01*
X36397Y-36897D01*
X36414Y-36927D01*
X36425Y-36961D01*
X36429Y-36995D01*
X36430Y-37000D01*
X36070Y-37000D02*
X36430Y-37000D01*
X36430Y-38000D02*
X36426Y-38034D01*
X36416Y-38068D01*
X36399Y-38099D01*
X36377Y-38126D01*
X36350Y-38149D01*
X36319Y-38165D01*
X36286Y-38176D01*
X36251Y-38179D01*
X36217Y-38176D01*
X36183Y-38166D01*
X36152Y-38150D01*
X36125Y-38128D01*
X36102Y-38101D01*
X36085Y-38070D01*
X36074Y-38037D01*
X36071Y-38002D01*
X36073Y-37968D01*
X36083Y-37934D01*
X36099Y-37903D01*
X36121Y-37875D01*
X36148Y-37853D01*
X36178Y-37836D01*
X36212Y-37825D01*
X36247Y-37821D01*
X36281Y-37823D01*
X36315Y-37833D01*
X36346Y-37849D01*
X36374Y-37870D01*
X36397Y-37897D01*
X36414Y-37927D01*
X36425Y-37961D01*
X36429Y-37995D01*
X36430Y-38000D01*
X36070Y-38000D02*
X36430Y-38000D01*
X36430Y-39000D02*
X36426Y-39034D01*
X36416Y-39068D01*
X36399Y-39099D01*
X36377Y-39126D01*
X36350Y-39149D01*
X36319Y-39165D01*
X36286Y-39176D01*
X36251Y-39179D01*
X36217Y-39176D01*
X36183Y-39166D01*
X36152Y-39150D01*
X36125Y-39128D01*
X36102Y-39101D01*
X36085Y-39070D01*
X36074Y-39037D01*
X36071Y-39002D01*
X36073Y-38968D01*
X36083Y-38934D01*
X36099Y-38903D01*
X36121Y-38875D01*
X36148Y-38853D01*
X36178Y-38836D01*
X36212Y-38825D01*
X36247Y-38821D01*
X36281Y-38823D01*
X36315Y-38833D01*
X36346Y-38849D01*
X36374Y-38870D01*
X36397Y-38897D01*
X36414Y-38927D01*
X36425Y-38961D01*
X36429Y-38995D01*
X36430Y-39000D01*
X36070Y-39000D02*
X36430Y-39000D01*
X36430Y-40000D02*
X36426Y-40034D01*
X36416Y-40068D01*
X36399Y-40099D01*
X36377Y-40126D01*
X36350Y-40149D01*
X36319Y-40165D01*
X36286Y-40176D01*
X36251Y-40179D01*
X36217Y-40176D01*
X36183Y-40166D01*
X36152Y-40150D01*
X36125Y-40128D01*
X36102Y-40101D01*
X36085Y-40070D01*
X36074Y-40037D01*
X36071Y-40002D01*
X36073Y-39968D01*
X36083Y-39934D01*
X36099Y-39903D01*
X36121Y-39875D01*
X36148Y-39853D01*
X36178Y-39836D01*
X36212Y-39825D01*
X36247Y-39821D01*
X36281Y-39823D01*
X36315Y-39833D01*
X36346Y-39849D01*
X36374Y-39870D01*
X36397Y-39897D01*
X36414Y-39927D01*
X36425Y-39961D01*
X36429Y-39995D01*
X36430Y-40000D01*
X36070Y-40000D02*
X36430Y-40000D01*
X36430Y-41000D02*
X36426Y-41034D01*
X36416Y-41068D01*
X36399Y-41099D01*
X36377Y-41126D01*
X36350Y-41149D01*
X36319Y-41165D01*
X36286Y-41176D01*
X36251Y-41179D01*
X36217Y-41176D01*
X36183Y-41166D01*
X36152Y-41150D01*
X36125Y-41128D01*
X36102Y-41101D01*
X36085Y-41070D01*
X36074Y-41037D01*
X36071Y-41002D01*
X36073Y-40968D01*
X36083Y-40934D01*
X36099Y-40903D01*
X36121Y-40875D01*
X36148Y-40853D01*
X36178Y-40836D01*
X36212Y-40825D01*
X36247Y-40821D01*
X36281Y-40823D01*
X36315Y-40833D01*
X36346Y-40849D01*
X36374Y-40870D01*
X36397Y-40897D01*
X36414Y-40927D01*
X36425Y-40961D01*
X36429Y-40995D01*
X36430Y-41000D01*
X36070Y-41000D02*
X36430Y-41000D01*
X36430Y-42000D02*
X36426Y-42034D01*
X36416Y-42068D01*
X36399Y-42099D01*
X36377Y-42126D01*
X36350Y-42149D01*
X36319Y-42165D01*
X36286Y-42176D01*
X36251Y-42179D01*
X36217Y-42176D01*
X36183Y-42166D01*
X36152Y-42150D01*
X36125Y-42128D01*
X36102Y-42101D01*
X36085Y-42070D01*
X36074Y-42037D01*
X36071Y-42002D01*
X36073Y-41968D01*
X36083Y-41934D01*
X36099Y-41903D01*
X36121Y-41875D01*
X36148Y-41853D01*
X36178Y-41836D01*
X36212Y-41825D01*
X36247Y-41821D01*
X36281Y-41823D01*
X36315Y-41833D01*
X36346Y-41849D01*
X36374Y-41870D01*
X36397Y-41897D01*
X36414Y-41927D01*
X36425Y-41961D01*
X36429Y-41995D01*
X36430Y-42000D01*
X36070Y-42000D02*
X36430Y-42000D01*
X37430Y-35000D02*
X37426Y-35034D01*
X37416Y-35068D01*
X37399Y-35099D01*
X37377Y-35126D01*
X37350Y-35149D01*
X37319Y-35165D01*
X37286Y-35176D01*
X37251Y-35179D01*
X37217Y-35176D01*
X37183Y-35166D01*
X37152Y-35150D01*
X37125Y-35128D01*
X37102Y-35101D01*
X37085Y-35070D01*
X37074Y-35037D01*
X37071Y-35002D01*
X37073Y-34968D01*
X37083Y-34934D01*
X37099Y-34903D01*
X37121Y-34875D01*
X37148Y-34853D01*
X37178Y-34836D01*
X37212Y-34825D01*
X37247Y-34821D01*
X37281Y-34823D01*
X37315Y-34833D01*
X37346Y-34849D01*
X37374Y-34870D01*
X37397Y-34897D01*
X37414Y-34927D01*
X37425Y-34961D01*
X37429Y-34995D01*
X37430Y-35000D01*
X37070Y-35000D02*
X37430Y-35000D01*
X37430Y-36000D02*
X37426Y-36034D01*
X37416Y-36068D01*
X37399Y-36099D01*
X37377Y-36126D01*
X37350Y-36149D01*
X37319Y-36165D01*
X37286Y-36176D01*
X37251Y-36179D01*
X37217Y-36176D01*
X37183Y-36166D01*
X37152Y-36150D01*
X37125Y-36128D01*
X37102Y-36101D01*
X37085Y-36070D01*
X37074Y-36037D01*
X37071Y-36002D01*
X37073Y-35968D01*
X37083Y-35934D01*
X37099Y-35903D01*
X37121Y-35875D01*
X37148Y-35853D01*
X37178Y-35836D01*
X37212Y-35825D01*
X37247Y-35821D01*
X37281Y-35823D01*
X37315Y-35833D01*
X37346Y-35849D01*
X37374Y-35870D01*
X37397Y-35897D01*
X37414Y-35927D01*
X37425Y-35961D01*
X37429Y-35995D01*
X37430Y-36000D01*
X37070Y-36000D02*
X37430Y-36000D01*
X37430Y-37000D02*
X37426Y-37034D01*
X37416Y-37068D01*
X37399Y-37099D01*
X37377Y-37126D01*
X37350Y-37149D01*
X37319Y-37165D01*
X37286Y-37176D01*
X37251Y-37179D01*
X37217Y-37176D01*
X37183Y-37166D01*
X37152Y-37150D01*
X37125Y-37128D01*
X37102Y-37101D01*
X37085Y-37070D01*
X37074Y-37037D01*
X37071Y-37002D01*
X37073Y-36968D01*
X37083Y-36934D01*
X37099Y-36903D01*
X37121Y-36875D01*
X37148Y-36853D01*
X37178Y-36836D01*
X37212Y-36825D01*
X37247Y-36821D01*
X37281Y-36823D01*
X37315Y-36833D01*
X37346Y-36849D01*
X37374Y-36870D01*
X37397Y-36897D01*
X37414Y-36927D01*
X37425Y-36961D01*
X37429Y-36995D01*
X37430Y-37000D01*
X37070Y-37000D02*
X37430Y-37000D01*
X37430Y-38000D02*
X37426Y-38034D01*
X37416Y-38068D01*
X37399Y-38099D01*
X37377Y-38126D01*
X37350Y-38149D01*
X37319Y-38165D01*
X37286Y-38176D01*
X37251Y-38179D01*
X37217Y-38176D01*
X37183Y-38166D01*
X37152Y-38150D01*
X37125Y-38128D01*
X37102Y-38101D01*
X37085Y-38070D01*
X37074Y-38037D01*
X37071Y-38002D01*
X37073Y-37968D01*
X37083Y-37934D01*
X37099Y-37903D01*
X37121Y-37875D01*
X37148Y-37853D01*
X37178Y-37836D01*
X37212Y-37825D01*
X37247Y-37821D01*
X37281Y-37823D01*
X37315Y-37833D01*
X37346Y-37849D01*
X37374Y-37870D01*
X37397Y-37897D01*
X37414Y-37927D01*
X37425Y-37961D01*
X37429Y-37995D01*
X37430Y-38000D01*
X37070Y-38000D02*
X37430Y-38000D01*
X37430Y-39000D02*
X37426Y-39034D01*
X37416Y-39068D01*
X37399Y-39099D01*
X37377Y-39126D01*
X37350Y-39149D01*
X37319Y-39165D01*
X37286Y-39176D01*
X37251Y-39179D01*
X37217Y-39176D01*
X37183Y-39166D01*
X37152Y-39150D01*
X37125Y-39128D01*
X37102Y-39101D01*
X37085Y-39070D01*
X37074Y-39037D01*
X37071Y-39002D01*
X37073Y-38968D01*
X37083Y-38934D01*
X37099Y-38903D01*
X37121Y-38875D01*
X37148Y-38853D01*
X37178Y-38836D01*
X37212Y-38825D01*
X37247Y-38821D01*
X37281Y-38823D01*
X37315Y-38833D01*
X37346Y-38849D01*
X37374Y-38870D01*
X37397Y-38897D01*
X37414Y-38927D01*
X37425Y-38961D01*
X37429Y-38995D01*
X37430Y-39000D01*
X37070Y-39000D02*
X37430Y-39000D01*
X37430Y-40000D02*
X37426Y-40034D01*
X37416Y-40068D01*
X37399Y-40099D01*
X37377Y-40126D01*
X37350Y-40149D01*
X37319Y-40165D01*
X37286Y-40176D01*
X37251Y-40179D01*
X37217Y-40176D01*
X37183Y-40166D01*
X37152Y-40150D01*
X37125Y-40128D01*
X37102Y-40101D01*
X37085Y-40070D01*
X37074Y-40037D01*
X37071Y-40002D01*
X37073Y-39968D01*
X37083Y-39934D01*
X37099Y-39903D01*
X37121Y-39875D01*
X37148Y-39853D01*
X37178Y-39836D01*
X37212Y-39825D01*
X37247Y-39821D01*
X37281Y-39823D01*
X37315Y-39833D01*
X37346Y-39849D01*
X37374Y-39870D01*
X37397Y-39897D01*
X37414Y-39927D01*
X37425Y-39961D01*
X37429Y-39995D01*
X37430Y-40000D01*
X37070Y-40000D02*
X37430Y-40000D01*
X37430Y-41000D02*
X37426Y-41034D01*
X37416Y-41068D01*
X37399Y-41099D01*
X37377Y-41126D01*
X37350Y-41149D01*
X37319Y-41165D01*
X37286Y-41176D01*
X37251Y-41179D01*
X37217Y-41176D01*
X37183Y-41166D01*
X37152Y-41150D01*
X37125Y-41128D01*
X37102Y-41101D01*
X37085Y-41070D01*
X37074Y-41037D01*
X37071Y-41002D01*
X37073Y-40968D01*
X37083Y-40934D01*
X37099Y-40903D01*
X37121Y-40875D01*
X37148Y-40853D01*
X37178Y-40836D01*
X37212Y-40825D01*
X37247Y-40821D01*
X37281Y-40823D01*
X37315Y-40833D01*
X37346Y-40849D01*
X37374Y-40870D01*
X37397Y-40897D01*
X37414Y-40927D01*
X37425Y-40961D01*
X37429Y-40995D01*
X37430Y-41000D01*
X37070Y-41000D02*
X37430Y-41000D01*
X37430Y-42000D02*
X37426Y-42034D01*
X37416Y-42068D01*
X37399Y-42099D01*
X37377Y-42126D01*
X37350Y-42149D01*
X37319Y-42165D01*
X37286Y-42176D01*
X37251Y-42179D01*
X37217Y-42176D01*
X37183Y-42166D01*
X37152Y-42150D01*
X37125Y-42128D01*
X37102Y-42101D01*
X37085Y-42070D01*
X37074Y-42037D01*
X37071Y-42002D01*
X37073Y-41968D01*
X37083Y-41934D01*
X37099Y-41903D01*
X37121Y-41875D01*
X37148Y-41853D01*
X37178Y-41836D01*
X37212Y-41825D01*
X37247Y-41821D01*
X37281Y-41823D01*
X37315Y-41833D01*
X37346Y-41849D01*
X37374Y-41870D01*
X37397Y-41897D01*
X37414Y-41927D01*
X37425Y-41961D01*
X37429Y-41995D01*
X37430Y-42000D01*
X37070Y-42000D02*
X37430Y-42000D01*
X40180Y-20500D02*
X40176Y-20534D01*
X40166Y-20568D01*
X40149Y-20599D01*
X40127Y-20626D01*
X40100Y-20649D01*
X40069Y-20665D01*
X40036Y-20676D01*
X40001Y-20679D01*
X39967Y-20676D01*
X39933Y-20666D01*
X39902Y-20650D01*
X39875Y-20628D01*
X39852Y-20601D01*
X39835Y-20570D01*
X39824Y-20537D01*
X39821Y-20502D01*
X39823Y-20468D01*
X39833Y-20434D01*
X39849Y-20403D01*
X39871Y-20375D01*
X39898Y-20353D01*
X39928Y-20336D01*
X39962Y-20325D01*
X39997Y-20321D01*
X40031Y-20323D01*
X40065Y-20333D01*
X40096Y-20349D01*
X40124Y-20370D01*
X40147Y-20397D01*
X40164Y-20427D01*
X40175Y-20461D01*
X40179Y-20495D01*
X40180Y-20500D01*
X39820Y-20500D02*
X40180Y-20500D01*
X40180Y-21500D02*
X40176Y-21534D01*
X40166Y-21568D01*
X40149Y-21599D01*
X40127Y-21626D01*
X40100Y-21649D01*
X40069Y-21665D01*
X40036Y-21676D01*
X40001Y-21679D01*
X39967Y-21676D01*
X39933Y-21666D01*
X39902Y-21650D01*
X39875Y-21628D01*
X39852Y-21601D01*
X39835Y-21570D01*
X39824Y-21537D01*
X39821Y-21502D01*
X39823Y-21468D01*
X39833Y-21434D01*
X39849Y-21403D01*
X39871Y-21375D01*
X39898Y-21353D01*
X39928Y-21336D01*
X39962Y-21325D01*
X39997Y-21321D01*
X40031Y-21323D01*
X40065Y-21333D01*
X40096Y-21349D01*
X40124Y-21370D01*
X40147Y-21397D01*
X40164Y-21427D01*
X40175Y-21461D01*
X40179Y-21495D01*
X40180Y-21500D01*
X39820Y-21500D02*
X40180Y-21500D01*
X40180Y-22500D02*
X40176Y-22534D01*
X40166Y-22568D01*
X40149Y-22599D01*
X40127Y-22626D01*
X40100Y-22649D01*
X40069Y-22665D01*
X40036Y-22676D01*
X40001Y-22679D01*
X39967Y-22676D01*
X39933Y-22666D01*
X39902Y-22650D01*
X39875Y-22628D01*
X39852Y-22601D01*
X39835Y-22570D01*
X39824Y-22537D01*
X39821Y-22502D01*
X39823Y-22468D01*
X39833Y-22434D01*
X39849Y-22403D01*
X39871Y-22375D01*
X39898Y-22353D01*
X39928Y-22336D01*
X39962Y-22325D01*
X39997Y-22321D01*
X40031Y-22323D01*
X40065Y-22333D01*
X40096Y-22349D01*
X40124Y-22370D01*
X40147Y-22397D01*
X40164Y-22427D01*
X40175Y-22461D01*
X40179Y-22495D01*
X40180Y-22500D01*
X39820Y-22500D02*
X40180Y-22500D01*
X40180Y-23500D02*
X40176Y-23534D01*
X40166Y-23568D01*
X40149Y-23599D01*
X40127Y-23626D01*
X40100Y-23649D01*
X40069Y-23665D01*
X40036Y-23676D01*
X40001Y-23679D01*
X39967Y-23676D01*
X39933Y-23666D01*
X39902Y-23650D01*
X39875Y-23628D01*
X39852Y-23601D01*
X39835Y-23570D01*
X39824Y-23537D01*
X39821Y-23502D01*
X39823Y-23468D01*
X39833Y-23434D01*
X39849Y-23403D01*
X39871Y-23375D01*
X39898Y-23353D01*
X39928Y-23336D01*
X39962Y-23325D01*
X39997Y-23321D01*
X40031Y-23323D01*
X40065Y-23333D01*
X40096Y-23349D01*
X40124Y-23370D01*
X40147Y-23397D01*
X40164Y-23427D01*
X40175Y-23461D01*
X40179Y-23495D01*
X40180Y-23500D01*
X39820Y-23500D02*
X40180Y-23500D01*
X40180Y-24500D02*
X40176Y-24534D01*
X40166Y-24568D01*
X40149Y-24599D01*
X40127Y-24626D01*
X40100Y-24649D01*
X40069Y-24665D01*
X40036Y-24676D01*
X40001Y-24679D01*
X39967Y-24676D01*
X39933Y-24666D01*
X39902Y-24650D01*
X39875Y-24628D01*
X39852Y-24601D01*
X39835Y-24570D01*
X39824Y-24537D01*
X39821Y-24502D01*
X39823Y-24468D01*
X39833Y-24434D01*
X39849Y-24403D01*
X39871Y-24375D01*
X39898Y-24353D01*
X39928Y-24336D01*
X39962Y-24325D01*
X39997Y-24321D01*
X40031Y-24323D01*
X40065Y-24333D01*
X40096Y-24349D01*
X40124Y-24370D01*
X40147Y-24397D01*
X40164Y-24427D01*
X40175Y-24461D01*
X40179Y-24495D01*
X40180Y-24500D01*
X39820Y-24500D02*
X40180Y-24500D01*
X40180Y-25500D02*
X40176Y-25534D01*
X40166Y-25568D01*
X40149Y-25599D01*
X40127Y-25626D01*
X40100Y-25649D01*
X40069Y-25665D01*
X40036Y-25676D01*
X40001Y-25679D01*
X39967Y-25676D01*
X39933Y-25666D01*
X39902Y-25650D01*
X39875Y-25628D01*
X39852Y-25601D01*
X39835Y-25570D01*
X39824Y-25537D01*
X39821Y-25502D01*
X39823Y-25468D01*
X39833Y-25434D01*
X39849Y-25403D01*
X39871Y-25375D01*
X39898Y-25353D01*
X39928Y-25336D01*
X39962Y-25325D01*
X39997Y-25321D01*
X40031Y-25323D01*
X40065Y-25333D01*
X40096Y-25349D01*
X40124Y-25370D01*
X40147Y-25397D01*
X40164Y-25427D01*
X40175Y-25461D01*
X40179Y-25495D01*
X40180Y-25500D01*
X39820Y-25500D02*
X40180Y-25500D01*
X40180Y-26500D02*
X40176Y-26534D01*
X40166Y-26568D01*
X40149Y-26599D01*
X40127Y-26626D01*
X40100Y-26649D01*
X40069Y-26665D01*
X40036Y-26676D01*
X40001Y-26679D01*
X39967Y-26676D01*
X39933Y-26666D01*
X39902Y-26650D01*
X39875Y-26628D01*
X39852Y-26601D01*
X39835Y-26570D01*
X39824Y-26537D01*
X39821Y-26502D01*
X39823Y-26468D01*
X39833Y-26434D01*
X39849Y-26403D01*
X39871Y-26375D01*
X39898Y-26353D01*
X39928Y-26336D01*
X39962Y-26325D01*
X39997Y-26321D01*
X40031Y-26323D01*
X40065Y-26333D01*
X40096Y-26349D01*
X40124Y-26370D01*
X40147Y-26397D01*
X40164Y-26427D01*
X40175Y-26461D01*
X40179Y-26495D01*
X40180Y-26500D01*
X39820Y-26500D02*
X40180Y-26500D01*
X41180Y-20500D02*
X41176Y-20534D01*
X41166Y-20568D01*
X41149Y-20599D01*
X41127Y-20626D01*
X41100Y-20649D01*
X41069Y-20665D01*
X41036Y-20676D01*
X41001Y-20679D01*
X40967Y-20676D01*
X40933Y-20666D01*
X40902Y-20650D01*
X40875Y-20628D01*
X40852Y-20601D01*
X40835Y-20570D01*
X40824Y-20537D01*
X40821Y-20502D01*
X40823Y-20468D01*
X40833Y-20434D01*
X40849Y-20403D01*
X40871Y-20375D01*
X40898Y-20353D01*
X40928Y-20336D01*
X40962Y-20325D01*
X40997Y-20321D01*
X41031Y-20323D01*
X41065Y-20333D01*
X41096Y-20349D01*
X41124Y-20370D01*
X41147Y-20397D01*
X41164Y-20427D01*
X41175Y-20461D01*
X41179Y-20495D01*
X41180Y-20500D01*
X40820Y-20500D02*
X41180Y-20500D01*
X41180Y-21500D02*
X41176Y-21534D01*
X41166Y-21568D01*
X41149Y-21599D01*
X41127Y-21626D01*
X41100Y-21649D01*
X41069Y-21665D01*
X41036Y-21676D01*
X41001Y-21679D01*
X40967Y-21676D01*
X40933Y-21666D01*
X40902Y-21650D01*
X40875Y-21628D01*
X40852Y-21601D01*
X40835Y-21570D01*
X40824Y-21537D01*
X40821Y-21502D01*
X40823Y-21468D01*
X40833Y-21434D01*
X40849Y-21403D01*
X40871Y-21375D01*
X40898Y-21353D01*
X40928Y-21336D01*
X40962Y-21325D01*
X40997Y-21321D01*
X41031Y-21323D01*
X41065Y-21333D01*
X41096Y-21349D01*
X41124Y-21370D01*
X41147Y-21397D01*
X41164Y-21427D01*
X41175Y-21461D01*
X41179Y-21495D01*
X41180Y-21500D01*
X40820Y-21500D02*
X41180Y-21500D01*
X41180Y-22500D02*
X41176Y-22534D01*
X41166Y-22568D01*
X41149Y-22599D01*
X41127Y-22626D01*
X41100Y-22649D01*
X41069Y-22665D01*
X41036Y-22676D01*
X41001Y-22679D01*
X40967Y-22676D01*
X40933Y-22666D01*
X40902Y-22650D01*
X40875Y-22628D01*
X40852Y-22601D01*
X40835Y-22570D01*
X40824Y-22537D01*
X40821Y-22502D01*
X40823Y-22468D01*
X40833Y-22434D01*
X40849Y-22403D01*
X40871Y-22375D01*
X40898Y-22353D01*
X40928Y-22336D01*
X40962Y-22325D01*
X40997Y-22321D01*
X41031Y-22323D01*
X41065Y-22333D01*
X41096Y-22349D01*
X41124Y-22370D01*
X41147Y-22397D01*
X41164Y-22427D01*
X41175Y-22461D01*
X41179Y-22495D01*
X41180Y-22500D01*
X40820Y-22500D02*
X41180Y-22500D01*
X41180Y-23500D02*
X41176Y-23534D01*
X41166Y-23568D01*
X41149Y-23599D01*
X41127Y-23626D01*
X41100Y-23649D01*
X41069Y-23665D01*
X41036Y-23676D01*
X41001Y-23679D01*
X40967Y-23676D01*
X40933Y-23666D01*
X40902Y-23650D01*
X40875Y-23628D01*
X40852Y-23601D01*
X40835Y-23570D01*
X40824Y-23537D01*
X40821Y-23502D01*
X40823Y-23468D01*
X40833Y-23434D01*
X40849Y-23403D01*
X40871Y-23375D01*
X40898Y-23353D01*
X40928Y-23336D01*
X40962Y-23325D01*
X40997Y-23321D01*
X41031Y-23323D01*
X41065Y-23333D01*
X41096Y-23349D01*
X41124Y-23370D01*
X41147Y-23397D01*
X41164Y-23427D01*
X41175Y-23461D01*
X41179Y-23495D01*
X41180Y-23500D01*
X40820Y-23500D02*
X41180Y-23500D01*
X41180Y-24500D02*
X41176Y-24534D01*
X41166Y-24568D01*
X41149Y-24599D01*
X41127Y-24626D01*
X41100Y-24649D01*
X41069Y-24665D01*
X41036Y-24676D01*
X41001Y-24679D01*
X40967Y-24676D01*
X40933Y-24666D01*
X40902Y-24650D01*
X40875Y-24628D01*
X40852Y-24601D01*
X40835Y-24570D01*
X40824Y-24537D01*
X40821Y-24502D01*
X40823Y-24468D01*
X40833Y-24434D01*
X40849Y-24403D01*
X40871Y-24375D01*
X40898Y-24353D01*
X40928Y-24336D01*
X40962Y-24325D01*
X40997Y-24321D01*
X41031Y-24323D01*
X41065Y-24333D01*
X41096Y-24349D01*
X41124Y-24370D01*
X41147Y-24397D01*
X41164Y-24427D01*
X41175Y-24461D01*
X41179Y-24495D01*
X41180Y-24500D01*
X40820Y-24500D02*
X41180Y-24500D01*
X41180Y-25500D02*
X41176Y-25534D01*
X41166Y-25568D01*
X41149Y-25599D01*
X41127Y-25626D01*
X41100Y-25649D01*
X41069Y-25665D01*
X41036Y-25676D01*
X41001Y-25679D01*
X40967Y-25676D01*
X40933Y-25666D01*
X40902Y-25650D01*
X40875Y-25628D01*
X40852Y-25601D01*
X40835Y-25570D01*
X40824Y-25537D01*
X40821Y-25502D01*
X40823Y-25468D01*
X40833Y-25434D01*
X40849Y-25403D01*
X40871Y-25375D01*
X40898Y-25353D01*
X40928Y-25336D01*
X40962Y-25325D01*
X40997Y-25321D01*
X41031Y-25323D01*
X41065Y-25333D01*
X41096Y-25349D01*
X41124Y-25370D01*
X41147Y-25397D01*
X41164Y-25427D01*
X41175Y-25461D01*
X41179Y-25495D01*
X41180Y-25500D01*
X40820Y-25500D02*
X41180Y-25500D01*
X41180Y-26500D02*
X41176Y-26534D01*
X41166Y-26568D01*
X41149Y-26599D01*
X41127Y-26626D01*
X41100Y-26649D01*
X41069Y-26665D01*
X41036Y-26676D01*
X41001Y-26679D01*
X40967Y-26676D01*
X40933Y-26666D01*
X40902Y-26650D01*
X40875Y-26628D01*
X40852Y-26601D01*
X40835Y-26570D01*
X40824Y-26537D01*
X40821Y-26502D01*
X40823Y-26468D01*
X40833Y-26434D01*
X40849Y-26403D01*
X40871Y-26375D01*
X40898Y-26353D01*
X40928Y-26336D01*
X40962Y-26325D01*
X40997Y-26321D01*
X41031Y-26323D01*
X41065Y-26333D01*
X41096Y-26349D01*
X41124Y-26370D01*
X41147Y-26397D01*
X41164Y-26427D01*
X41175Y-26461D01*
X41179Y-26495D01*
X41180Y-26500D01*
X40820Y-26500D02*
X41180Y-26500D01*
X45930Y-36000D02*
X45926Y-36034D01*
X45916Y-36068D01*
X45899Y-36099D01*
X45877Y-36126D01*
X45850Y-36149D01*
X45819Y-36165D01*
X45786Y-36176D01*
X45751Y-36179D01*
X45717Y-36176D01*
X45683Y-36166D01*
X45652Y-36150D01*
X45625Y-36128D01*
X45602Y-36101D01*
X45585Y-36070D01*
X45574Y-36037D01*
X45571Y-36002D01*
X45573Y-35968D01*
X45583Y-35934D01*
X45599Y-35903D01*
X45621Y-35875D01*
X45648Y-35853D01*
X45678Y-35836D01*
X45712Y-35825D01*
X45747Y-35821D01*
X45781Y-35823D01*
X45815Y-35833D01*
X45846Y-35849D01*
X45874Y-35870D01*
X45897Y-35897D01*
X45914Y-35927D01*
X45925Y-35961D01*
X45929Y-35995D01*
X45930Y-36000D01*
X45570Y-36000D02*
X45930Y-36000D01*
X45930Y-37000D02*
X45926Y-37034D01*
X45916Y-37068D01*
X45899Y-37099D01*
X45877Y-37126D01*
X45850Y-37149D01*
X45819Y-37165D01*
X45786Y-37176D01*
X45751Y-37179D01*
X45717Y-37176D01*
X45683Y-37166D01*
X45652Y-37150D01*
X45625Y-37128D01*
X45602Y-37101D01*
X45585Y-37070D01*
X45574Y-37037D01*
X45571Y-37002D01*
X45573Y-36968D01*
X45583Y-36934D01*
X45599Y-36903D01*
X45621Y-36875D01*
X45648Y-36853D01*
X45678Y-36836D01*
X45712Y-36825D01*
X45747Y-36821D01*
X45781Y-36823D01*
X45815Y-36833D01*
X45846Y-36849D01*
X45874Y-36870D01*
X45897Y-36897D01*
X45914Y-36927D01*
X45925Y-36961D01*
X45929Y-36995D01*
X45930Y-37000D01*
X45570Y-37000D02*
X45930Y-37000D01*
X45930Y-38000D02*
X45926Y-38034D01*
X45916Y-38068D01*
X45899Y-38099D01*
X45877Y-38126D01*
X45850Y-38149D01*
X45819Y-38165D01*
X45786Y-38176D01*
X45751Y-38179D01*
X45717Y-38176D01*
X45683Y-38166D01*
X45652Y-38150D01*
X45625Y-38128D01*
X45602Y-38101D01*
X45585Y-38070D01*
X45574Y-38037D01*
X45571Y-38002D01*
X45573Y-37968D01*
X45583Y-37934D01*
X45599Y-37903D01*
X45621Y-37875D01*
X45648Y-37853D01*
X45678Y-37836D01*
X45712Y-37825D01*
X45747Y-37821D01*
X45781Y-37823D01*
X45815Y-37833D01*
X45846Y-37849D01*
X45874Y-37870D01*
X45897Y-37897D01*
X45914Y-37927D01*
X45925Y-37961D01*
X45929Y-37995D01*
X45930Y-38000D01*
X45570Y-38000D02*
X45930Y-38000D01*
X45930Y-39000D02*
X45926Y-39034D01*
X45916Y-39068D01*
X45899Y-39099D01*
X45877Y-39126D01*
X45850Y-39149D01*
X45819Y-39165D01*
X45786Y-39176D01*
X45751Y-39179D01*
X45717Y-39176D01*
X45683Y-39166D01*
X45652Y-39150D01*
X45625Y-39128D01*
X45602Y-39101D01*
X45585Y-39070D01*
X45574Y-39037D01*
X45571Y-39002D01*
X45573Y-38968D01*
X45583Y-38934D01*
X45599Y-38903D01*
X45621Y-38875D01*
X45648Y-38853D01*
X45678Y-38836D01*
X45712Y-38825D01*
X45747Y-38821D01*
X45781Y-38823D01*
X45815Y-38833D01*
X45846Y-38849D01*
X45874Y-38870D01*
X45897Y-38897D01*
X45914Y-38927D01*
X45925Y-38961D01*
X45929Y-38995D01*
X45930Y-39000D01*
X45570Y-39000D02*
X45930Y-39000D01*
X45930Y-40000D02*
X45926Y-40034D01*
X45916Y-40068D01*
X45899Y-40099D01*
X45877Y-40126D01*
X45850Y-40149D01*
X45819Y-40165D01*
X45786Y-40176D01*
X45751Y-40179D01*
X45717Y-40176D01*
X45683Y-40166D01*
X45652Y-40150D01*
X45625Y-40128D01*
X45602Y-40101D01*
X45585Y-40070D01*
X45574Y-40037D01*
X45571Y-40002D01*
X45573Y-39968D01*
X45583Y-39934D01*
X45599Y-39903D01*
X45621Y-39875D01*
X45648Y-39853D01*
X45678Y-39836D01*
X45712Y-39825D01*
X45747Y-39821D01*
X45781Y-39823D01*
X45815Y-39833D01*
X45846Y-39849D01*
X45874Y-39870D01*
X45897Y-39897D01*
X45914Y-39927D01*
X45925Y-39961D01*
X45929Y-39995D01*
X45930Y-40000D01*
X45570Y-40000D02*
X45930Y-40000D01*
X46930Y-36000D02*
X46926Y-36034D01*
X46916Y-36068D01*
X46899Y-36099D01*
X46877Y-36126D01*
X46850Y-36149D01*
X46819Y-36165D01*
X46786Y-36176D01*
X46751Y-36179D01*
X46717Y-36176D01*
X46683Y-36166D01*
X46652Y-36150D01*
X46625Y-36128D01*
X46602Y-36101D01*
X46585Y-36070D01*
X46574Y-36037D01*
X46571Y-36002D01*
X46573Y-35968D01*
X46583Y-35934D01*
X46599Y-35903D01*
X46621Y-35875D01*
X46648Y-35853D01*
X46678Y-35836D01*
X46712Y-35825D01*
X46747Y-35821D01*
X46781Y-35823D01*
X46815Y-35833D01*
X46846Y-35849D01*
X46874Y-35870D01*
X46897Y-35897D01*
X46914Y-35927D01*
X46925Y-35961D01*
X46929Y-35995D01*
X46930Y-36000D01*
X46570Y-36000D02*
X46930Y-36000D01*
X46930Y-37000D02*
X46926Y-37034D01*
X46916Y-37068D01*
X46899Y-37099D01*
X46877Y-37126D01*
X46850Y-37149D01*
X46819Y-37165D01*
X46786Y-37176D01*
X46751Y-37179D01*
X46717Y-37176D01*
X46683Y-37166D01*
X46652Y-37150D01*
X46625Y-37128D01*
X46602Y-37101D01*
X46585Y-37070D01*
X46574Y-37037D01*
X46571Y-37002D01*
X46573Y-36968D01*
X46583Y-36934D01*
X46599Y-36903D01*
X46621Y-36875D01*
X46648Y-36853D01*
X46678Y-36836D01*
X46712Y-36825D01*
X46747Y-36821D01*
X46781Y-36823D01*
X46815Y-36833D01*
X46846Y-36849D01*
X46874Y-36870D01*
X46897Y-36897D01*
X46914Y-36927D01*
X46925Y-36961D01*
X46929Y-36995D01*
X46930Y-37000D01*
X46570Y-37000D02*
X46930Y-37000D01*
X46930Y-38000D02*
X46926Y-38034D01*
X46916Y-38068D01*
X46899Y-38099D01*
X46877Y-38126D01*
X46850Y-38149D01*
X46819Y-38165D01*
X46786Y-38176D01*
X46751Y-38179D01*
X46717Y-38176D01*
X46683Y-38166D01*
X46652Y-38150D01*
X46625Y-38128D01*
X46602Y-38101D01*
X46585Y-38070D01*
X46574Y-38037D01*
X46571Y-38002D01*
X46573Y-37968D01*
X46583Y-37934D01*
X46599Y-37903D01*
X46621Y-37875D01*
X46648Y-37853D01*
X46678Y-37836D01*
X46712Y-37825D01*
X46747Y-37821D01*
X46781Y-37823D01*
X46815Y-37833D01*
X46846Y-37849D01*
X46874Y-37870D01*
X46897Y-37897D01*
X46914Y-37927D01*
X46925Y-37961D01*
X46929Y-37995D01*
X46930Y-38000D01*
X46570Y-38000D02*
X46930Y-38000D01*
X46930Y-39000D02*
X46926Y-39034D01*
X46916Y-39068D01*
X46899Y-39099D01*
X46877Y-39126D01*
X46850Y-39149D01*
X46819Y-39165D01*
X46786Y-39176D01*
X46751Y-39179D01*
X46717Y-39176D01*
X46683Y-39166D01*
X46652Y-39150D01*
X46625Y-39128D01*
X46602Y-39101D01*
X46585Y-39070D01*
X46574Y-39037D01*
X46571Y-39002D01*
X46573Y-38968D01*
X46583Y-38934D01*
X46599Y-38903D01*
X46621Y-38875D01*
X46648Y-38853D01*
X46678Y-38836D01*
X46712Y-38825D01*
X46747Y-38821D01*
X46781Y-38823D01*
X46815Y-38833D01*
X46846Y-38849D01*
X46874Y-38870D01*
X46897Y-38897D01*
X46914Y-38927D01*
X46925Y-38961D01*
X46929Y-38995D01*
X46930Y-39000D01*
X46570Y-39000D02*
X46930Y-39000D01*
X46930Y-40000D02*
X46926Y-40034D01*
X46916Y-40068D01*
X46899Y-40099D01*
X46877Y-40126D01*
X46850Y-40149D01*
X46819Y-40165D01*
X46786Y-40176D01*
X46751Y-40179D01*
X46717Y-40176D01*
X46683Y-40166D01*
X46652Y-40150D01*
X46625Y-40128D01*
X46602Y-40101D01*
X46585Y-40070D01*
X46574Y-40037D01*
X46571Y-40002D01*
X46573Y-39968D01*
X46583Y-39934D01*
X46599Y-39903D01*
X46621Y-39875D01*
X46648Y-39853D01*
X46678Y-39836D01*
X46712Y-39825D01*
X46747Y-39821D01*
X46781Y-39823D01*
X46815Y-39833D01*
X46846Y-39849D01*
X46874Y-39870D01*
X46897Y-39897D01*
X46914Y-39927D01*
X46925Y-39961D01*
X46929Y-39995D01*
X46930Y-40000D01*
X46570Y-40000D02*
X46930Y-40000D01*
X26195Y-21816D02*
X26191Y-21852D01*
X26180Y-21887D01*
X26163Y-21919D01*
X26140Y-21947D01*
X26112Y-21971D01*
X26080Y-21988D01*
X26045Y-21999D01*
X26009Y-22002D01*
X25973Y-21999D01*
X25938Y-21989D01*
X25906Y-21972D01*
X25878Y-21949D01*
X25854Y-21921D01*
X25837Y-21889D01*
X25826Y-21854D01*
X25822Y-21818D01*
X25825Y-21783D01*
X25835Y-21748D01*
X25851Y-21715D01*
X25874Y-21687D01*
X25902Y-21663D01*
X25934Y-21645D01*
X25968Y-21634D01*
X26005Y-21630D01*
X26040Y-21632D01*
X26075Y-21642D01*
X26108Y-21659D01*
X26136Y-21681D01*
X26160Y-21709D01*
X26178Y-21740D01*
X26190Y-21775D01*
X26194Y-21811D01*
X26195Y-21816D01*
X26008Y-21629D02*
X26008Y-22003D01*
X26195Y-22604D02*
X26191Y-22640D01*
X26180Y-22675D01*
X26163Y-22707D01*
X26140Y-22735D01*
X26112Y-22759D01*
X26080Y-22776D01*
X26045Y-22787D01*
X26009Y-22790D01*
X25973Y-22787D01*
X25938Y-22777D01*
X25906Y-22760D01*
X25878Y-22737D01*
X25854Y-22709D01*
X25837Y-22677D01*
X25826Y-22642D01*
X25822Y-22606D01*
X25825Y-22571D01*
X25835Y-22536D01*
X25851Y-22503D01*
X25874Y-22475D01*
X25902Y-22451D01*
X25934Y-22433D01*
X25968Y-22422D01*
X26005Y-22418D01*
X26040Y-22420D01*
X26075Y-22430D01*
X26108Y-22447D01*
X26136Y-22469D01*
X26160Y-22497D01*
X26178Y-22528D01*
X26190Y-22563D01*
X26194Y-22599D01*
X26195Y-22604D01*
X26008Y-22417D02*
X26008Y-22791D01*
X27179Y-21816D02*
X27175Y-21852D01*
X27164Y-21887D01*
X27147Y-21919D01*
X27124Y-21947D01*
X27096Y-21971D01*
X27064Y-21988D01*
X27029Y-21999D01*
X26993Y-22002D01*
X26957Y-21999D01*
X26922Y-21989D01*
X26890Y-21972D01*
X26862Y-21949D01*
X26838Y-21921D01*
X26821Y-21889D01*
X26810Y-21854D01*
X26806Y-21818D01*
X26809Y-21783D01*
X26819Y-21748D01*
X26835Y-21715D01*
X26858Y-21687D01*
X26886Y-21663D01*
X26918Y-21645D01*
X26952Y-21634D01*
X26989Y-21630D01*
X27024Y-21632D01*
X27059Y-21642D01*
X27092Y-21659D01*
X27120Y-21681D01*
X27144Y-21709D01*
X27162Y-21740D01*
X27174Y-21775D01*
X27178Y-21811D01*
X27179Y-21816D01*
X26992Y-21629D02*
X26992Y-22003D01*
X27179Y-22604D02*
X27175Y-22640D01*
X27164Y-22675D01*
X27147Y-22707D01*
X27124Y-22735D01*
X27096Y-22759D01*
X27064Y-22776D01*
X27029Y-22787D01*
X26993Y-22790D01*
X26957Y-22787D01*
X26922Y-22777D01*
X26890Y-22760D01*
X26862Y-22737D01*
X26838Y-22709D01*
X26821Y-22677D01*
X26810Y-22642D01*
X26806Y-22606D01*
X26809Y-22571D01*
X26819Y-22536D01*
X26835Y-22503D01*
X26858Y-22475D01*
X26886Y-22451D01*
X26918Y-22433D01*
X26952Y-22422D01*
X26989Y-22418D01*
X27024Y-22420D01*
X27059Y-22430D01*
X27092Y-22447D01*
X27120Y-22469D01*
X27144Y-22497D01*
X27162Y-22528D01*
X27174Y-22563D01*
X27178Y-22599D01*
X27179Y-22604D01*
X26992Y-22417D02*
X26992Y-22791D01*
X32639Y-34500D02*
X32639Y-34222D01*
X32361Y-34222D01*
X32361Y-34500D01*
X32639Y-34500D01*
X32639Y-39788D02*
X32639Y-39510D01*
X32361Y-39510D01*
X32361Y-39788D01*
X32639Y-39788D01*
X40250Y-38700D02*
X40450Y-38500D01*
X40250Y-38300D01*
X40050Y-38500D01*
X40250Y-38700D01*
X41250Y-42700D02*
X41450Y-42500D01*
X41250Y-42300D01*
X41050Y-42500D01*
X41250Y-42700D01*
X42250Y-38700D02*
X42450Y-38500D01*
X42250Y-38300D01*
X42050Y-38500D01*
X42250Y-38700D01*
X24450Y-21070D02*
X24450Y-20430D01*
X23810Y-20430D01*
X23810Y-21070D01*
X24450Y-21070D01*
X23678Y-20298D02*
X24582Y-21202D01*
X24582Y-20298D02*
X23678Y-21202D01*
X29190Y-21070D02*
X29190Y-20430D01*
X28550Y-20430D01*
X28550Y-21070D01*
X29190Y-21070D01*
X28418Y-20298D02*
X29322Y-21202D01*
X29322Y-20298D02*
X28418Y-21202D01*
X22250Y-19129D02*
X22879Y-18500D01*
X22250Y-17871D01*
X21621Y-18500D01*
X22250Y-19129D01*
X22250Y-17871D02*
X22250Y-19129D01*
X22879Y-18500D02*
X21621Y-18500D01*
X22250Y-51379D02*
X22879Y-50750D01*
X22250Y-50121D01*
X21621Y-50750D01*
X22250Y-51379D01*
X22250Y-50121D02*
X22250Y-51379D01*
X22879Y-50750D02*
X21621Y-50750D01*
X81750Y-19129D02*
X82379Y-18500D01*
X81750Y-17871D01*
X81121Y-18500D01*
X81750Y-19129D01*
X81750Y-17871D02*
X81750Y-19129D01*
X82379Y-18500D02*
X81121Y-18500D01*
X81750Y-51379D02*
X82379Y-50750D01*
X81750Y-50121D01*
X81121Y-50750D01*
X81750Y-51379D01*
X81750Y-50121D02*
X81750Y-51379D01*
X82379Y-50750D02*
X81121Y-50750D01*
G54D12*
X20240Y-54821D02*
X20240Y-54021D01*
X20431Y-54021D01*
X20545Y-54059D01*
X20621Y-54135D01*
X20660Y-54211D01*
X20698Y-54364D01*
X20698Y-54478D01*
X20660Y-54630D01*
X20621Y-54707D01*
X20545Y-54783D01*
X20431Y-54821D01*
X20240Y-54821D01*
X21040Y-54821D02*
X21040Y-54287D01*
X21040Y-54440D02*
X21079Y-54364D01*
X21117Y-54326D01*
X21193Y-54287D01*
X21269Y-54287D01*
X21535Y-54821D02*
X21535Y-54287D01*
X21535Y-54021D02*
X21497Y-54059D01*
X21535Y-54097D01*
X21574Y-54059D01*
X21535Y-54021D01*
X21535Y-54097D01*
X22031Y-54821D02*
X21955Y-54783D01*
X21916Y-54707D01*
X21916Y-54021D01*
X22450Y-54821D02*
X22374Y-54783D01*
X22335Y-54707D01*
X22335Y-54021D01*
X23364Y-54821D02*
X23364Y-54021D01*
X23631Y-54592D01*
X23898Y-54021D01*
X23898Y-54821D01*
X24621Y-54821D02*
X24621Y-54402D01*
X24583Y-54326D01*
X24507Y-54287D01*
X24355Y-54287D01*
X24278Y-54326D01*
X24621Y-54783D02*
X24545Y-54821D01*
X24355Y-54821D01*
X24278Y-54783D01*
X24240Y-54707D01*
X24240Y-54630D01*
X24278Y-54554D01*
X24355Y-54516D01*
X24545Y-54516D01*
X24621Y-54478D01*
X25002Y-54287D02*
X25002Y-55087D01*
X25002Y-54326D02*
X25079Y-54287D01*
X25231Y-54287D01*
X25307Y-54326D01*
X25345Y-54364D01*
X25383Y-54440D01*
X25383Y-54668D01*
X25345Y-54745D01*
X25307Y-54783D01*
X25231Y-54821D01*
X25079Y-54821D01*
X25002Y-54783D01*
X25726Y-54745D02*
X25765Y-54783D01*
X25726Y-54821D01*
X25688Y-54783D01*
X25726Y-54745D01*
X25726Y-54821D01*
X25726Y-54326D02*
X25765Y-54364D01*
X25726Y-54402D01*
X25688Y-54364D01*
X25726Y-54326D01*
X25726Y-54402D01*
X19575Y-56040D02*
X19849Y-56314D01*
X19849Y-56040D02*
X19575Y-56314D01*
X20393Y-55701D02*
X20469Y-55701D01*
X20545Y-55739D01*
X20583Y-55777D01*
X20621Y-55853D01*
X20660Y-56006D01*
X20660Y-56196D01*
X20621Y-56348D01*
X20583Y-56425D01*
X20545Y-56463D01*
X20469Y-56501D01*
X20393Y-56501D01*
X20317Y-56463D01*
X20279Y-56425D01*
X20240Y-56348D01*
X20202Y-56196D01*
X20202Y-56006D01*
X20240Y-55853D01*
X20279Y-55777D01*
X20317Y-55739D01*
X20393Y-55701D01*
X21002Y-56425D02*
X21041Y-56463D01*
X21002Y-56501D01*
X20964Y-56463D01*
X21002Y-56425D01*
X21002Y-56501D01*
X21536Y-55701D02*
X21612Y-55701D01*
X21688Y-55739D01*
X21726Y-55777D01*
X21764Y-55853D01*
X21803Y-56006D01*
X21803Y-56196D01*
X21764Y-56348D01*
X21726Y-56425D01*
X21688Y-56463D01*
X21612Y-56501D01*
X21536Y-56501D01*
X21460Y-56463D01*
X21422Y-56425D01*
X21383Y-56348D01*
X21345Y-56196D01*
X21345Y-56006D01*
X21383Y-55853D01*
X21422Y-55777D01*
X21460Y-55739D01*
X21536Y-55701D01*
X22107Y-55777D02*
X22145Y-55739D01*
X22222Y-55701D01*
X22412Y-55701D01*
X22488Y-55739D01*
X22526Y-55777D01*
X22565Y-55853D01*
X22565Y-55929D01*
X22526Y-56044D01*
X22069Y-56501D01*
X22565Y-56501D01*
X23022Y-56044D02*
X22946Y-56006D01*
X22907Y-55967D01*
X22869Y-55891D01*
X22869Y-55853D01*
X22907Y-55777D01*
X22946Y-55739D01*
X23022Y-55701D01*
X23174Y-55701D01*
X23250Y-55739D01*
X23288Y-55777D01*
X23327Y-55853D01*
X23327Y-55891D01*
X23288Y-55967D01*
X23250Y-56006D01*
X23174Y-56044D01*
X23022Y-56044D01*
X22946Y-56082D01*
X22907Y-56120D01*
X22869Y-56196D01*
X22869Y-56348D01*
X22907Y-56425D01*
X22946Y-56463D01*
X23022Y-56501D01*
X23174Y-56501D01*
X23250Y-56463D01*
X23288Y-56425D01*
X23327Y-56348D01*
X23327Y-56196D01*
X23288Y-56120D01*
X23250Y-56082D01*
X23174Y-56044D01*
X23631Y-55701D02*
X23631Y-55853D01*
X23936Y-55701D02*
X23936Y-55853D01*
X25461Y-55663D02*
X24775Y-56691D01*
X26490Y-55701D02*
X26566Y-55701D01*
X26642Y-55739D01*
X26680Y-55777D01*
X26718Y-55853D01*
X26757Y-56006D01*
X26757Y-56196D01*
X26718Y-56348D01*
X26680Y-56425D01*
X26642Y-56463D01*
X26566Y-56501D01*
X26490Y-56501D01*
X26414Y-56463D01*
X26376Y-56425D01*
X26337Y-56348D01*
X26299Y-56196D01*
X26299Y-56006D01*
X26337Y-55853D01*
X26376Y-55777D01*
X26414Y-55739D01*
X26490Y-55701D01*
X27099Y-56425D02*
X27138Y-56463D01*
X27099Y-56501D01*
X27061Y-56463D01*
X27099Y-56425D01*
X27099Y-56501D01*
X27404Y-55701D02*
X27938Y-55701D01*
X27595Y-56501D01*
X28395Y-55701D02*
X28471Y-55701D01*
X28547Y-55739D01*
X28585Y-55777D01*
X28623Y-55853D01*
X28662Y-56006D01*
X28662Y-56196D01*
X28623Y-56348D01*
X28585Y-56425D01*
X28547Y-56463D01*
X28471Y-56501D01*
X28395Y-56501D01*
X28319Y-56463D01*
X28281Y-56425D01*
X28242Y-56348D01*
X28204Y-56196D01*
X28204Y-56006D01*
X28242Y-55853D01*
X28281Y-55777D01*
X28319Y-55739D01*
X28395Y-55701D01*
X29004Y-56501D02*
X29004Y-55967D01*
X29004Y-56044D02*
X29043Y-56006D01*
X29119Y-55967D01*
X29233Y-55967D01*
X29309Y-56006D01*
X29347Y-56082D01*
X29347Y-56501D01*
X29347Y-56082D02*
X29385Y-56006D01*
X29462Y-55967D01*
X29576Y-55967D01*
X29652Y-56006D01*
X29690Y-56082D01*
X29690Y-56501D01*
X30071Y-56501D02*
X30071Y-55967D01*
X30071Y-56044D02*
X30110Y-56006D01*
X30186Y-55967D01*
X30300Y-55967D01*
X30376Y-56006D01*
X30414Y-56082D01*
X30414Y-56501D01*
X30414Y-56082D02*
X30452Y-56006D01*
X30529Y-55967D01*
X30643Y-55967D01*
X30719Y-56006D01*
X30757Y-56082D01*
X30757Y-56501D01*
X31977Y-56806D02*
X31939Y-56767D01*
X31863Y-56653D01*
X31825Y-56577D01*
X31787Y-56463D01*
X31748Y-56272D01*
X31748Y-56120D01*
X31787Y-55929D01*
X31825Y-55815D01*
X31863Y-55739D01*
X31939Y-55625D01*
X31977Y-55587D01*
X32701Y-56501D02*
X32243Y-56501D01*
X32472Y-56501D02*
X32472Y-55701D01*
X32396Y-55815D01*
X32320Y-55891D01*
X32243Y-55929D01*
X33653Y-56501D02*
X33653Y-55701D01*
X33996Y-56501D02*
X33996Y-56082D01*
X33958Y-56006D01*
X33882Y-55967D01*
X33768Y-55967D01*
X33692Y-56006D01*
X33653Y-56044D01*
X34492Y-56501D02*
X34416Y-56463D01*
X34377Y-56425D01*
X34339Y-56348D01*
X34339Y-56120D01*
X34377Y-56044D01*
X34416Y-56006D01*
X34492Y-55967D01*
X34606Y-55967D01*
X34682Y-56006D01*
X34720Y-56044D01*
X34758Y-56120D01*
X34758Y-56348D01*
X34720Y-56425D01*
X34682Y-56463D01*
X34606Y-56501D01*
X34492Y-56501D01*
X35216Y-56501D02*
X35140Y-56463D01*
X35101Y-56387D01*
X35101Y-55701D01*
X35825Y-56463D02*
X35749Y-56501D01*
X35597Y-56501D01*
X35520Y-56463D01*
X35482Y-56387D01*
X35482Y-56082D01*
X35520Y-56006D01*
X35597Y-55967D01*
X35749Y-55967D01*
X35825Y-56006D01*
X35863Y-56082D01*
X35863Y-56158D01*
X35482Y-56234D01*
X36130Y-56806D02*
X36168Y-56767D01*
X36245Y-56653D01*
X36283Y-56577D01*
X36321Y-56463D01*
X36359Y-56272D01*
X36359Y-56120D01*
X36321Y-55929D01*
X36283Y-55815D01*
X36245Y-55739D01*
X36168Y-55625D01*
X36130Y-55587D01*
G54D10*
X19850Y-57233D02*
X19847Y-57260D01*
X19839Y-57286D01*
X19826Y-57310D01*
X19809Y-57331D01*
X19788Y-57349D01*
X19764Y-57362D01*
X19738Y-57370D01*
X19710Y-57372D01*
X19684Y-57370D01*
X19658Y-57362D01*
X19634Y-57350D01*
X19613Y-57333D01*
X19595Y-57312D01*
X19582Y-57288D01*
X19574Y-57262D01*
X19571Y-57234D01*
X19573Y-57208D01*
X19580Y-57182D01*
X19593Y-57158D01*
X19610Y-57136D01*
X19631Y-57119D01*
X19654Y-57105D01*
X19680Y-57097D01*
X19708Y-57094D01*
X19734Y-57096D01*
X19760Y-57103D01*
X19785Y-57115D01*
X19806Y-57132D01*
X19824Y-57153D01*
X19837Y-57177D01*
X19846Y-57202D01*
X19849Y-57230D01*
X19850Y-57233D01*
G54D12*
X20393Y-56757D02*
X20469Y-56757D01*
X20545Y-56795D01*
X20583Y-56833D01*
X20621Y-56909D01*
X20660Y-57062D01*
X20660Y-57252D01*
X20621Y-57404D01*
X20583Y-57481D01*
X20545Y-57519D01*
X20469Y-57557D01*
X20393Y-57557D01*
X20317Y-57519D01*
X20279Y-57481D01*
X20240Y-57404D01*
X20202Y-57252D01*
X20202Y-57062D01*
X20240Y-56909D01*
X20279Y-56833D01*
X20317Y-56795D01*
X20393Y-56757D01*
X21002Y-57481D02*
X21041Y-57519D01*
X21002Y-57557D01*
X20964Y-57519D01*
X21002Y-57481D01*
X21002Y-57557D01*
X21536Y-56757D02*
X21612Y-56757D01*
X21688Y-56795D01*
X21726Y-56833D01*
X21764Y-56909D01*
X21803Y-57062D01*
X21803Y-57252D01*
X21764Y-57404D01*
X21726Y-57481D01*
X21688Y-57519D01*
X21612Y-57557D01*
X21536Y-57557D01*
X21460Y-57519D01*
X21422Y-57481D01*
X21383Y-57404D01*
X21345Y-57252D01*
X21345Y-57062D01*
X21383Y-56909D01*
X21422Y-56833D01*
X21460Y-56795D01*
X21536Y-56757D01*
X22107Y-56833D02*
X22145Y-56795D01*
X22222Y-56757D01*
X22412Y-56757D01*
X22488Y-56795D01*
X22526Y-56833D01*
X22565Y-56909D01*
X22565Y-56985D01*
X22526Y-57100D01*
X22069Y-57557D01*
X22565Y-57557D01*
X23022Y-57100D02*
X22946Y-57062D01*
X22907Y-57023D01*
X22869Y-56947D01*
X22869Y-56909D01*
X22907Y-56833D01*
X22946Y-56795D01*
X23022Y-56757D01*
X23174Y-56757D01*
X23250Y-56795D01*
X23288Y-56833D01*
X23327Y-56909D01*
X23327Y-56947D01*
X23288Y-57023D01*
X23250Y-57062D01*
X23174Y-57100D01*
X23022Y-57100D01*
X22946Y-57138D01*
X22907Y-57176D01*
X22869Y-57252D01*
X22869Y-57404D01*
X22907Y-57481D01*
X22946Y-57519D01*
X23022Y-57557D01*
X23174Y-57557D01*
X23250Y-57519D01*
X23288Y-57481D01*
X23327Y-57404D01*
X23327Y-57252D01*
X23288Y-57176D01*
X23250Y-57138D01*
X23174Y-57100D01*
X23631Y-56757D02*
X23631Y-56909D01*
X23936Y-56757D02*
X23936Y-56909D01*
X25461Y-56719D02*
X24775Y-57747D01*
X26490Y-56757D02*
X26566Y-56757D01*
X26642Y-56795D01*
X26680Y-56833D01*
X26718Y-56909D01*
X26757Y-57062D01*
X26757Y-57252D01*
X26718Y-57404D01*
X26680Y-57481D01*
X26642Y-57519D01*
X26566Y-57557D01*
X26490Y-57557D01*
X26414Y-57519D01*
X26376Y-57481D01*
X26337Y-57404D01*
X26299Y-57252D01*
X26299Y-57062D01*
X26337Y-56909D01*
X26376Y-56833D01*
X26414Y-56795D01*
X26490Y-56757D01*
X27099Y-57481D02*
X27138Y-57519D01*
X27099Y-57557D01*
X27061Y-57519D01*
X27099Y-57481D01*
X27099Y-57557D01*
X27404Y-56757D02*
X27938Y-56757D01*
X27595Y-57557D01*
X28662Y-57557D02*
X28204Y-57557D01*
X28433Y-57557D02*
X28433Y-56757D01*
X28357Y-56871D01*
X28281Y-56947D01*
X28204Y-56985D01*
X29004Y-57557D02*
X29004Y-57023D01*
X29004Y-57100D02*
X29043Y-57062D01*
X29119Y-57023D01*
X29233Y-57023D01*
X29309Y-57062D01*
X29347Y-57138D01*
X29347Y-57557D01*
X29347Y-57138D02*
X29385Y-57062D01*
X29462Y-57023D01*
X29576Y-57023D01*
X29652Y-57062D01*
X29690Y-57138D01*
X29690Y-57557D01*
X30071Y-57557D02*
X30071Y-57023D01*
X30071Y-57100D02*
X30110Y-57062D01*
X30186Y-57023D01*
X30300Y-57023D01*
X30376Y-57062D01*
X30414Y-57138D01*
X30414Y-57557D01*
X30414Y-57138D02*
X30452Y-57062D01*
X30529Y-57023D01*
X30643Y-57023D01*
X30719Y-57062D01*
X30757Y-57138D01*
X30757Y-57557D01*
X31977Y-57862D02*
X31939Y-57823D01*
X31863Y-57709D01*
X31825Y-57633D01*
X31787Y-57519D01*
X31748Y-57328D01*
X31748Y-57176D01*
X31787Y-56985D01*
X31825Y-56871D01*
X31863Y-56795D01*
X31939Y-56681D01*
X31977Y-56643D01*
X32701Y-57557D02*
X32243Y-57557D01*
X32472Y-57557D02*
X32472Y-56757D01*
X32396Y-56871D01*
X32320Y-56947D01*
X32243Y-56985D01*
X33463Y-57557D02*
X33005Y-57557D01*
X33234Y-57557D02*
X33234Y-56757D01*
X33158Y-56871D01*
X33082Y-56947D01*
X33005Y-56985D01*
X34148Y-57023D02*
X34148Y-57557D01*
X33958Y-56719D02*
X33767Y-57290D01*
X34263Y-57290D01*
X35177Y-57557D02*
X35177Y-56757D01*
X35520Y-57557D02*
X35520Y-57138D01*
X35482Y-57062D01*
X35406Y-57023D01*
X35292Y-57023D01*
X35216Y-57062D01*
X35177Y-57100D01*
X36016Y-57557D02*
X35940Y-57519D01*
X35901Y-57481D01*
X35863Y-57404D01*
X35863Y-57176D01*
X35901Y-57100D01*
X35940Y-57062D01*
X36016Y-57023D01*
X36130Y-57023D01*
X36206Y-57062D01*
X36244Y-57100D01*
X36282Y-57176D01*
X36282Y-57404D01*
X36244Y-57481D01*
X36206Y-57519D01*
X36130Y-57557D01*
X36016Y-57557D01*
X36740Y-57557D02*
X36664Y-57519D01*
X36625Y-57443D01*
X36625Y-56757D01*
X37349Y-57519D02*
X37273Y-57557D01*
X37121Y-57557D01*
X37044Y-57519D01*
X37006Y-57443D01*
X37006Y-57138D01*
X37044Y-57062D01*
X37121Y-57023D01*
X37273Y-57023D01*
X37349Y-57062D01*
X37387Y-57138D01*
X37387Y-57214D01*
X37006Y-57290D01*
X37692Y-57519D02*
X37769Y-57557D01*
X37921Y-57557D01*
X37997Y-57519D01*
X38035Y-57443D01*
X38035Y-57404D01*
X37997Y-57328D01*
X37921Y-57290D01*
X37807Y-57290D01*
X37730Y-57252D01*
X37692Y-57176D01*
X37692Y-57138D01*
X37730Y-57062D01*
X37807Y-57023D01*
X37921Y-57023D01*
X37997Y-57062D01*
X38302Y-57862D02*
X38340Y-57823D01*
X38417Y-57709D01*
X38455Y-57633D01*
X38493Y-57519D01*
X38531Y-57328D01*
X38531Y-57176D01*
X38493Y-56985D01*
X38455Y-56871D01*
X38417Y-56795D01*
X38340Y-56681D01*
X38302Y-56643D01*
X19690Y-58129D02*
X19690Y-58449D01*
X19850Y-58289D02*
X19530Y-58289D01*
X20393Y-57813D02*
X20469Y-57813D01*
X20545Y-57851D01*
X20583Y-57889D01*
X20621Y-57965D01*
X20660Y-58118D01*
X20660Y-58308D01*
X20621Y-58460D01*
X20583Y-58537D01*
X20545Y-58575D01*
X20469Y-58613D01*
X20393Y-58613D01*
X20317Y-58575D01*
X20279Y-58537D01*
X20240Y-58460D01*
X20202Y-58308D01*
X20202Y-58118D01*
X20240Y-57965D01*
X20279Y-57889D01*
X20317Y-57851D01*
X20393Y-57813D01*
X21002Y-58537D02*
X21041Y-58575D01*
X21002Y-58613D01*
X20964Y-58575D01*
X21002Y-58537D01*
X21002Y-58613D01*
X21536Y-57813D02*
X21612Y-57813D01*
X21688Y-57851D01*
X21726Y-57889D01*
X21764Y-57965D01*
X21803Y-58118D01*
X21803Y-58308D01*
X21764Y-58460D01*
X21726Y-58537D01*
X21688Y-58575D01*
X21612Y-58613D01*
X21536Y-58613D01*
X21460Y-58575D01*
X21422Y-58537D01*
X21383Y-58460D01*
X21345Y-58308D01*
X21345Y-58118D01*
X21383Y-57965D01*
X21422Y-57889D01*
X21460Y-57851D01*
X21536Y-57813D01*
X22069Y-57813D02*
X22565Y-57813D01*
X22298Y-58118D01*
X22412Y-58118D01*
X22488Y-58156D01*
X22526Y-58194D01*
X22565Y-58270D01*
X22565Y-58460D01*
X22526Y-58537D01*
X22488Y-58575D01*
X22412Y-58613D01*
X22184Y-58613D01*
X22107Y-58575D01*
X22069Y-58537D01*
X22869Y-57889D02*
X22907Y-57851D01*
X22984Y-57813D01*
X23174Y-57813D01*
X23250Y-57851D01*
X23288Y-57889D01*
X23327Y-57965D01*
X23327Y-58041D01*
X23288Y-58156D01*
X22831Y-58613D01*
X23327Y-58613D01*
X23631Y-57813D02*
X23631Y-57965D01*
X23936Y-57813D02*
X23936Y-57965D01*
X25461Y-57775D02*
X24775Y-58803D01*
X26490Y-57813D02*
X26566Y-57813D01*
X26642Y-57851D01*
X26680Y-57889D01*
X26718Y-57965D01*
X26757Y-58118D01*
X26757Y-58308D01*
X26718Y-58460D01*
X26680Y-58537D01*
X26642Y-58575D01*
X26566Y-58613D01*
X26490Y-58613D01*
X26414Y-58575D01*
X26376Y-58537D01*
X26337Y-58460D01*
X26299Y-58308D01*
X26299Y-58118D01*
X26337Y-57965D01*
X26376Y-57889D01*
X26414Y-57851D01*
X26490Y-57813D01*
X27099Y-58537D02*
X27138Y-58575D01*
X27099Y-58613D01*
X27061Y-58575D01*
X27099Y-58537D01*
X27099Y-58613D01*
X27595Y-58156D02*
X27519Y-58118D01*
X27480Y-58079D01*
X27442Y-58003D01*
X27442Y-57965D01*
X27480Y-57889D01*
X27519Y-57851D01*
X27595Y-57813D01*
X27747Y-57813D01*
X27823Y-57851D01*
X27861Y-57889D01*
X27900Y-57965D01*
X27900Y-58003D01*
X27861Y-58079D01*
X27823Y-58118D01*
X27747Y-58156D01*
X27595Y-58156D01*
X27519Y-58194D01*
X27480Y-58232D01*
X27442Y-58308D01*
X27442Y-58460D01*
X27480Y-58537D01*
X27519Y-58575D01*
X27595Y-58613D01*
X27747Y-58613D01*
X27823Y-58575D01*
X27861Y-58537D01*
X27900Y-58460D01*
X27900Y-58308D01*
X27861Y-58232D01*
X27823Y-58194D01*
X27747Y-58156D01*
X28662Y-58613D02*
X28204Y-58613D01*
X28433Y-58613D02*
X28433Y-57813D01*
X28357Y-57927D01*
X28281Y-58003D01*
X28204Y-58041D01*
X29004Y-58613D02*
X29004Y-58079D01*
X29004Y-58156D02*
X29043Y-58118D01*
X29119Y-58079D01*
X29233Y-58079D01*
X29309Y-58118D01*
X29347Y-58194D01*
X29347Y-58613D01*
X29347Y-58194D02*
X29385Y-58118D01*
X29462Y-58079D01*
X29576Y-58079D01*
X29652Y-58118D01*
X29690Y-58194D01*
X29690Y-58613D01*
X30071Y-58613D02*
X30071Y-58079D01*
X30071Y-58156D02*
X30110Y-58118D01*
X30186Y-58079D01*
X30300Y-58079D01*
X30376Y-58118D01*
X30414Y-58194D01*
X30414Y-58613D01*
X30414Y-58194D02*
X30452Y-58118D01*
X30529Y-58079D01*
X30643Y-58079D01*
X30719Y-58118D01*
X30757Y-58194D01*
X30757Y-58613D01*
X31977Y-58918D02*
X31939Y-58879D01*
X31863Y-58765D01*
X31825Y-58689D01*
X31787Y-58575D01*
X31748Y-58384D01*
X31748Y-58232D01*
X31787Y-58041D01*
X31825Y-57927D01*
X31863Y-57851D01*
X31939Y-57737D01*
X31977Y-57699D01*
X32243Y-57889D02*
X32281Y-57851D01*
X32358Y-57813D01*
X32548Y-57813D01*
X32624Y-57851D01*
X32662Y-57889D01*
X32701Y-57965D01*
X32701Y-58041D01*
X32662Y-58156D01*
X32205Y-58613D01*
X32701Y-58613D01*
X33196Y-57813D02*
X33272Y-57813D01*
X33348Y-57851D01*
X33386Y-57889D01*
X33424Y-57965D01*
X33463Y-58118D01*
X33463Y-58308D01*
X33424Y-58460D01*
X33386Y-58537D01*
X33348Y-58575D01*
X33272Y-58613D01*
X33196Y-58613D01*
X33120Y-58575D01*
X33082Y-58537D01*
X33043Y-58460D01*
X33005Y-58308D01*
X33005Y-58118D01*
X33043Y-57965D01*
X33082Y-57889D01*
X33120Y-57851D01*
X33196Y-57813D01*
X33767Y-57889D02*
X33805Y-57851D01*
X33882Y-57813D01*
X34072Y-57813D01*
X34148Y-57851D01*
X34186Y-57889D01*
X34225Y-57965D01*
X34225Y-58041D01*
X34186Y-58156D01*
X33729Y-58613D01*
X34225Y-58613D01*
X35177Y-58613D02*
X35177Y-57813D01*
X35520Y-58613D02*
X35520Y-58194D01*
X35482Y-58118D01*
X35406Y-58079D01*
X35292Y-58079D01*
X35216Y-58118D01*
X35177Y-58156D01*
X36016Y-58613D02*
X35940Y-58575D01*
X35901Y-58537D01*
X35863Y-58460D01*
X35863Y-58232D01*
X35901Y-58156D01*
X35940Y-58118D01*
X36016Y-58079D01*
X36130Y-58079D01*
X36206Y-58118D01*
X36244Y-58156D01*
X36282Y-58232D01*
X36282Y-58460D01*
X36244Y-58537D01*
X36206Y-58575D01*
X36130Y-58613D01*
X36016Y-58613D01*
X36740Y-58613D02*
X36664Y-58575D01*
X36625Y-58499D01*
X36625Y-57813D01*
X37349Y-58575D02*
X37273Y-58613D01*
X37121Y-58613D01*
X37044Y-58575D01*
X37006Y-58499D01*
X37006Y-58194D01*
X37044Y-58118D01*
X37121Y-58079D01*
X37273Y-58079D01*
X37349Y-58118D01*
X37387Y-58194D01*
X37387Y-58270D01*
X37006Y-58346D01*
X37692Y-58575D02*
X37769Y-58613D01*
X37921Y-58613D01*
X37997Y-58575D01*
X38035Y-58499D01*
X38035Y-58460D01*
X37997Y-58384D01*
X37921Y-58346D01*
X37807Y-58346D01*
X37730Y-58308D01*
X37692Y-58232D01*
X37692Y-58194D01*
X37730Y-58118D01*
X37807Y-58079D01*
X37921Y-58079D01*
X37997Y-58118D01*
X38302Y-58918D02*
X38340Y-58879D01*
X38417Y-58765D01*
X38455Y-58689D01*
X38493Y-58575D01*
X38531Y-58384D01*
X38531Y-58232D01*
X38493Y-58041D01*
X38455Y-57927D01*
X38417Y-57851D01*
X38340Y-57737D01*
X38302Y-57699D01*
G54D10*
X19850Y-59345D02*
X19846Y-59379D01*
X19836Y-59412D01*
X19820Y-59442D01*
X19798Y-59469D01*
X19771Y-59491D01*
X19741Y-59508D01*
X19708Y-59518D01*
X19674Y-59521D01*
X19640Y-59518D01*
X19607Y-59509D01*
X19577Y-59493D01*
X19550Y-59471D01*
X19527Y-59444D01*
X19511Y-59414D01*
X19500Y-59381D01*
X19497Y-59347D01*
X19499Y-59314D01*
X19509Y-59280D01*
X19525Y-59250D01*
X19546Y-59223D01*
X19572Y-59200D01*
X19603Y-59183D01*
X19635Y-59173D01*
X19670Y-59169D01*
X19703Y-59171D01*
X19737Y-59180D01*
X19767Y-59196D01*
X19795Y-59217D01*
X19817Y-59243D01*
X19834Y-59274D01*
X19845Y-59306D01*
X19849Y-59341D01*
X19850Y-59345D01*
X19496Y-59168D02*
X19850Y-59522D01*
X19850Y-59168D02*
X19496Y-59522D01*
G54D12*
X20393Y-58869D02*
X20469Y-58869D01*
X20545Y-58907D01*
X20583Y-58945D01*
X20621Y-59021D01*
X20660Y-59174D01*
X20660Y-59364D01*
X20621Y-59516D01*
X20583Y-59593D01*
X20545Y-59631D01*
X20469Y-59669D01*
X20393Y-59669D01*
X20317Y-59631D01*
X20279Y-59593D01*
X20240Y-59516D01*
X20202Y-59364D01*
X20202Y-59174D01*
X20240Y-59021D01*
X20279Y-58945D01*
X20317Y-58907D01*
X20393Y-58869D01*
X21002Y-59593D02*
X21041Y-59631D01*
X21002Y-59669D01*
X20964Y-59631D01*
X21002Y-59593D01*
X21002Y-59669D01*
X21536Y-58869D02*
X21612Y-58869D01*
X21688Y-58907D01*
X21726Y-58945D01*
X21764Y-59021D01*
X21803Y-59174D01*
X21803Y-59364D01*
X21764Y-59516D01*
X21726Y-59593D01*
X21688Y-59631D01*
X21612Y-59669D01*
X21536Y-59669D01*
X21460Y-59631D01*
X21422Y-59593D01*
X21383Y-59516D01*
X21345Y-59364D01*
X21345Y-59174D01*
X21383Y-59021D01*
X21422Y-58945D01*
X21460Y-58907D01*
X21536Y-58869D01*
X22069Y-58869D02*
X22565Y-58869D01*
X22298Y-59174D01*
X22412Y-59174D01*
X22488Y-59212D01*
X22526Y-59250D01*
X22565Y-59326D01*
X22565Y-59516D01*
X22526Y-59593D01*
X22488Y-59631D01*
X22412Y-59669D01*
X22184Y-59669D01*
X22107Y-59631D01*
X22069Y-59593D01*
X23288Y-58869D02*
X22907Y-58869D01*
X22869Y-59250D01*
X22907Y-59212D01*
X22984Y-59174D01*
X23174Y-59174D01*
X23250Y-59212D01*
X23288Y-59250D01*
X23327Y-59326D01*
X23327Y-59516D01*
X23288Y-59593D01*
X23250Y-59631D01*
X23174Y-59669D01*
X22984Y-59669D01*
X22907Y-59631D01*
X22869Y-59593D01*
X23631Y-58869D02*
X23631Y-59021D01*
X23936Y-58869D02*
X23936Y-59021D01*
X25461Y-58831D02*
X24775Y-59859D01*
X26490Y-58869D02*
X26566Y-58869D01*
X26642Y-58907D01*
X26680Y-58945D01*
X26718Y-59021D01*
X26757Y-59174D01*
X26757Y-59364D01*
X26718Y-59516D01*
X26680Y-59593D01*
X26642Y-59631D01*
X26566Y-59669D01*
X26490Y-59669D01*
X26414Y-59631D01*
X26376Y-59593D01*
X26337Y-59516D01*
X26299Y-59364D01*
X26299Y-59174D01*
X26337Y-59021D01*
X26376Y-58945D01*
X26414Y-58907D01*
X26490Y-58869D01*
X27099Y-59593D02*
X27138Y-59631D01*
X27099Y-59669D01*
X27061Y-59631D01*
X27099Y-59593D01*
X27099Y-59669D01*
X27519Y-59669D02*
X27671Y-59669D01*
X27747Y-59631D01*
X27785Y-59593D01*
X27861Y-59478D01*
X27900Y-59326D01*
X27900Y-59021D01*
X27861Y-58945D01*
X27823Y-58907D01*
X27747Y-58869D01*
X27595Y-58869D01*
X27519Y-58907D01*
X27480Y-58945D01*
X27442Y-59021D01*
X27442Y-59212D01*
X27480Y-59288D01*
X27519Y-59326D01*
X27595Y-59364D01*
X27747Y-59364D01*
X27823Y-59326D01*
X27861Y-59288D01*
X27900Y-59212D01*
X28395Y-58869D02*
X28471Y-58869D01*
X28547Y-58907D01*
X28585Y-58945D01*
X28623Y-59021D01*
X28662Y-59174D01*
X28662Y-59364D01*
X28623Y-59516D01*
X28585Y-59593D01*
X28547Y-59631D01*
X28471Y-59669D01*
X28395Y-59669D01*
X28319Y-59631D01*
X28281Y-59593D01*
X28242Y-59516D01*
X28204Y-59364D01*
X28204Y-59174D01*
X28242Y-59021D01*
X28281Y-58945D01*
X28319Y-58907D01*
X28395Y-58869D01*
X29004Y-59669D02*
X29004Y-59135D01*
X29004Y-59212D02*
X29043Y-59174D01*
X29119Y-59135D01*
X29233Y-59135D01*
X29309Y-59174D01*
X29347Y-59250D01*
X29347Y-59669D01*
X29347Y-59250D02*
X29385Y-59174D01*
X29462Y-59135D01*
X29576Y-59135D01*
X29652Y-59174D01*
X29690Y-59250D01*
X29690Y-59669D01*
X30071Y-59669D02*
X30071Y-59135D01*
X30071Y-59212D02*
X30110Y-59174D01*
X30186Y-59135D01*
X30300Y-59135D01*
X30376Y-59174D01*
X30414Y-59250D01*
X30414Y-59669D01*
X30414Y-59250D02*
X30452Y-59174D01*
X30529Y-59135D01*
X30643Y-59135D01*
X30719Y-59174D01*
X30757Y-59250D01*
X30757Y-59669D01*
X31977Y-59974D02*
X31939Y-59935D01*
X31863Y-59821D01*
X31825Y-59745D01*
X31787Y-59631D01*
X31748Y-59440D01*
X31748Y-59288D01*
X31787Y-59097D01*
X31825Y-58983D01*
X31863Y-58907D01*
X31939Y-58793D01*
X31977Y-58755D01*
X32624Y-58869D02*
X32472Y-58869D01*
X32396Y-58907D01*
X32358Y-58945D01*
X32281Y-59059D01*
X32243Y-59212D01*
X32243Y-59516D01*
X32281Y-59593D01*
X32320Y-59631D01*
X32396Y-59669D01*
X32548Y-59669D01*
X32624Y-59631D01*
X32662Y-59593D01*
X32701Y-59516D01*
X32701Y-59326D01*
X32662Y-59250D01*
X32624Y-59212D01*
X32548Y-59174D01*
X32396Y-59174D01*
X32320Y-59212D01*
X32281Y-59250D01*
X32243Y-59326D01*
X33653Y-59669D02*
X33653Y-58869D01*
X33996Y-59669D02*
X33996Y-59250D01*
X33958Y-59174D01*
X33882Y-59135D01*
X33768Y-59135D01*
X33692Y-59174D01*
X33653Y-59212D01*
X34492Y-59669D02*
X34416Y-59631D01*
X34377Y-59593D01*
X34339Y-59516D01*
X34339Y-59288D01*
X34377Y-59212D01*
X34416Y-59174D01*
X34492Y-59135D01*
X34606Y-59135D01*
X34682Y-59174D01*
X34720Y-59212D01*
X34758Y-59288D01*
X34758Y-59516D01*
X34720Y-59593D01*
X34682Y-59631D01*
X34606Y-59669D01*
X34492Y-59669D01*
X35216Y-59669D02*
X35140Y-59631D01*
X35101Y-59555D01*
X35101Y-58869D01*
X35825Y-59631D02*
X35749Y-59669D01*
X35597Y-59669D01*
X35520Y-59631D01*
X35482Y-59555D01*
X35482Y-59250D01*
X35520Y-59174D01*
X35597Y-59135D01*
X35749Y-59135D01*
X35825Y-59174D01*
X35863Y-59250D01*
X35863Y-59326D01*
X35482Y-59402D01*
X36168Y-59631D02*
X36245Y-59669D01*
X36397Y-59669D01*
X36473Y-59631D01*
X36511Y-59555D01*
X36511Y-59516D01*
X36473Y-59440D01*
X36397Y-59402D01*
X36283Y-59402D01*
X36206Y-59364D01*
X36168Y-59288D01*
X36168Y-59250D01*
X36206Y-59174D01*
X36283Y-59135D01*
X36397Y-59135D01*
X36473Y-59174D01*
X36778Y-59974D02*
X36816Y-59935D01*
X36893Y-59821D01*
X36931Y-59745D01*
X36969Y-59631D01*
X37007Y-59440D01*
X37007Y-59288D01*
X36969Y-59097D01*
X36931Y-58983D01*
X36893Y-58907D01*
X36816Y-58793D01*
X36778Y-58755D01*
G54D10*
X19850Y-60401D02*
X19846Y-60435D01*
X19836Y-60469D01*
X19819Y-60500D01*
X19797Y-60527D01*
X19770Y-60550D01*
X19739Y-60566D01*
X19706Y-60577D01*
X19671Y-60580D01*
X19637Y-60577D01*
X19603Y-60567D01*
X19572Y-60551D01*
X19545Y-60529D01*
X19522Y-60502D01*
X19505Y-60471D01*
X19494Y-60438D01*
X19491Y-60403D01*
X19493Y-60369D01*
X19503Y-60335D01*
X19519Y-60304D01*
X19541Y-60276D01*
X19568Y-60254D01*
X19598Y-60237D01*
X19632Y-60226D01*
X19667Y-60222D01*
X19701Y-60224D01*
X19735Y-60234D01*
X19766Y-60250D01*
X19794Y-60271D01*
X19817Y-60298D01*
X19834Y-60328D01*
X19845Y-60362D01*
X19849Y-60396D01*
X19850Y-60401D01*
X19490Y-60401D02*
X19850Y-60401D01*
G54D12*
X20393Y-59925D02*
X20469Y-59925D01*
X20545Y-59963D01*
X20583Y-60001D01*
X20621Y-60077D01*
X20660Y-60230D01*
X20660Y-60420D01*
X20621Y-60572D01*
X20583Y-60649D01*
X20545Y-60687D01*
X20469Y-60725D01*
X20393Y-60725D01*
X20317Y-60687D01*
X20279Y-60649D01*
X20240Y-60572D01*
X20202Y-60420D01*
X20202Y-60230D01*
X20240Y-60077D01*
X20279Y-60001D01*
X20317Y-59963D01*
X20393Y-59925D01*
X21002Y-60649D02*
X21041Y-60687D01*
X21002Y-60725D01*
X20964Y-60687D01*
X21002Y-60649D01*
X21002Y-60725D01*
X21536Y-59925D02*
X21612Y-59925D01*
X21688Y-59963D01*
X21726Y-60001D01*
X21764Y-60077D01*
X21803Y-60230D01*
X21803Y-60420D01*
X21764Y-60572D01*
X21726Y-60649D01*
X21688Y-60687D01*
X21612Y-60725D01*
X21536Y-60725D01*
X21460Y-60687D01*
X21422Y-60649D01*
X21383Y-60572D01*
X21345Y-60420D01*
X21345Y-60230D01*
X21383Y-60077D01*
X21422Y-60001D01*
X21460Y-59963D01*
X21536Y-59925D01*
X22069Y-59925D02*
X22565Y-59925D01*
X22298Y-60230D01*
X22412Y-60230D01*
X22488Y-60268D01*
X22526Y-60306D01*
X22565Y-60382D01*
X22565Y-60572D01*
X22526Y-60649D01*
X22488Y-60687D01*
X22412Y-60725D01*
X22184Y-60725D01*
X22107Y-60687D01*
X22069Y-60649D01*
X23250Y-59925D02*
X23098Y-59925D01*
X23022Y-59963D01*
X22984Y-60001D01*
X22907Y-60115D01*
X22869Y-60268D01*
X22869Y-60572D01*
X22907Y-60649D01*
X22946Y-60687D01*
X23022Y-60725D01*
X23174Y-60725D01*
X23250Y-60687D01*
X23288Y-60649D01*
X23327Y-60572D01*
X23327Y-60382D01*
X23288Y-60306D01*
X23250Y-60268D01*
X23174Y-60230D01*
X23022Y-60230D01*
X22946Y-60268D01*
X22907Y-60306D01*
X22869Y-60382D01*
X23631Y-59925D02*
X23631Y-60077D01*
X23936Y-59925D02*
X23936Y-60077D01*
X25461Y-59887D02*
X24775Y-60915D01*
X26490Y-59925D02*
X26566Y-59925D01*
X26642Y-59963D01*
X26680Y-60001D01*
X26718Y-60077D01*
X26757Y-60230D01*
X26757Y-60420D01*
X26718Y-60572D01*
X26680Y-60649D01*
X26642Y-60687D01*
X26566Y-60725D01*
X26490Y-60725D01*
X26414Y-60687D01*
X26376Y-60649D01*
X26337Y-60572D01*
X26299Y-60420D01*
X26299Y-60230D01*
X26337Y-60077D01*
X26376Y-60001D01*
X26414Y-59963D01*
X26490Y-59925D01*
X27099Y-60649D02*
X27138Y-60687D01*
X27099Y-60725D01*
X27061Y-60687D01*
X27099Y-60649D01*
X27099Y-60725D01*
X27519Y-60725D02*
X27671Y-60725D01*
X27747Y-60687D01*
X27785Y-60649D01*
X27861Y-60534D01*
X27900Y-60382D01*
X27900Y-60077D01*
X27861Y-60001D01*
X27823Y-59963D01*
X27747Y-59925D01*
X27595Y-59925D01*
X27519Y-59963D01*
X27480Y-60001D01*
X27442Y-60077D01*
X27442Y-60268D01*
X27480Y-60344D01*
X27519Y-60382D01*
X27595Y-60420D01*
X27747Y-60420D01*
X27823Y-60382D01*
X27861Y-60344D01*
X27900Y-60268D01*
X28662Y-60725D02*
X28204Y-60725D01*
X28433Y-60725D02*
X28433Y-59925D01*
X28357Y-60039D01*
X28281Y-60115D01*
X28204Y-60153D01*
X29004Y-60725D02*
X29004Y-60191D01*
X29004Y-60268D02*
X29043Y-60230D01*
X29119Y-60191D01*
X29233Y-60191D01*
X29309Y-60230D01*
X29347Y-60306D01*
X29347Y-60725D01*
X29347Y-60306D02*
X29385Y-60230D01*
X29462Y-60191D01*
X29576Y-60191D01*
X29652Y-60230D01*
X29690Y-60306D01*
X29690Y-60725D01*
X30071Y-60725D02*
X30071Y-60191D01*
X30071Y-60268D02*
X30110Y-60230D01*
X30186Y-60191D01*
X30300Y-60191D01*
X30376Y-60230D01*
X30414Y-60306D01*
X30414Y-60725D01*
X30414Y-60306D02*
X30452Y-60230D01*
X30529Y-60191D01*
X30643Y-60191D01*
X30719Y-60230D01*
X30757Y-60306D01*
X30757Y-60725D01*
X31977Y-61030D02*
X31939Y-60991D01*
X31863Y-60877D01*
X31825Y-60801D01*
X31787Y-60687D01*
X31748Y-60496D01*
X31748Y-60344D01*
X31787Y-60153D01*
X31825Y-60039D01*
X31863Y-59963D01*
X31939Y-59849D01*
X31977Y-59811D01*
X32624Y-60191D02*
X32624Y-60725D01*
X32434Y-59887D02*
X32243Y-60458D01*
X32739Y-60458D01*
X33196Y-59925D02*
X33272Y-59925D01*
X33348Y-59963D01*
X33386Y-60001D01*
X33424Y-60077D01*
X33463Y-60230D01*
X33463Y-60420D01*
X33424Y-60572D01*
X33386Y-60649D01*
X33348Y-60687D01*
X33272Y-60725D01*
X33196Y-60725D01*
X33120Y-60687D01*
X33082Y-60649D01*
X33043Y-60572D01*
X33005Y-60420D01*
X33005Y-60230D01*
X33043Y-60077D01*
X33082Y-60001D01*
X33120Y-59963D01*
X33196Y-59925D01*
X34415Y-60725D02*
X34415Y-59925D01*
X34758Y-60725D02*
X34758Y-60306D01*
X34720Y-60230D01*
X34644Y-60191D01*
X34530Y-60191D01*
X34454Y-60230D01*
X34415Y-60268D01*
X35254Y-60725D02*
X35178Y-60687D01*
X35139Y-60649D01*
X35101Y-60572D01*
X35101Y-60344D01*
X35139Y-60268D01*
X35178Y-60230D01*
X35254Y-60191D01*
X35368Y-60191D01*
X35444Y-60230D01*
X35482Y-60268D01*
X35520Y-60344D01*
X35520Y-60572D01*
X35482Y-60649D01*
X35444Y-60687D01*
X35368Y-60725D01*
X35254Y-60725D01*
X35978Y-60725D02*
X35902Y-60687D01*
X35863Y-60611D01*
X35863Y-59925D01*
X36587Y-60687D02*
X36511Y-60725D01*
X36359Y-60725D01*
X36282Y-60687D01*
X36244Y-60611D01*
X36244Y-60306D01*
X36282Y-60230D01*
X36359Y-60191D01*
X36511Y-60191D01*
X36587Y-60230D01*
X36625Y-60306D01*
X36625Y-60382D01*
X36244Y-60458D01*
X36930Y-60687D02*
X37007Y-60725D01*
X37159Y-60725D01*
X37235Y-60687D01*
X37273Y-60611D01*
X37273Y-60572D01*
X37235Y-60496D01*
X37159Y-60458D01*
X37045Y-60458D01*
X36968Y-60420D01*
X36930Y-60344D01*
X36930Y-60306D01*
X36968Y-60230D01*
X37045Y-60191D01*
X37159Y-60191D01*
X37235Y-60230D01*
X37540Y-61030D02*
X37578Y-60991D01*
X37655Y-60877D01*
X37693Y-60801D01*
X37731Y-60687D01*
X37769Y-60496D01*
X37769Y-60344D01*
X37731Y-60153D01*
X37693Y-60039D01*
X37655Y-59963D01*
X37578Y-59849D01*
X37540Y-59811D01*
G54D10*
X19850Y-61457D02*
X19846Y-61493D01*
X19835Y-61528D01*
X19818Y-61560D01*
X19795Y-61588D01*
X19767Y-61612D01*
X19735Y-61629D01*
X19700Y-61640D01*
X19664Y-61643D01*
X19628Y-61640D01*
X19593Y-61630D01*
X19561Y-61613D01*
X19533Y-61590D01*
X19509Y-61562D01*
X19492Y-61530D01*
X19481Y-61495D01*
X19477Y-61459D01*
X19480Y-61424D01*
X19490Y-61389D01*
X19506Y-61356D01*
X19529Y-61328D01*
X19557Y-61304D01*
X19589Y-61286D01*
X19623Y-61275D01*
X19660Y-61271D01*
X19695Y-61273D01*
X19730Y-61283D01*
X19763Y-61300D01*
X19791Y-61322D01*
X19815Y-61350D01*
X19833Y-61381D01*
X19845Y-61416D01*
X19849Y-61452D01*
X19850Y-61457D01*
X19663Y-61270D02*
X19663Y-61644D01*
G54D12*
X20393Y-60981D02*
X20469Y-60981D01*
X20545Y-61019D01*
X20583Y-61057D01*
X20621Y-61133D01*
X20660Y-61286D01*
X20660Y-61476D01*
X20621Y-61628D01*
X20583Y-61705D01*
X20545Y-61743D01*
X20469Y-61781D01*
X20393Y-61781D01*
X20317Y-61743D01*
X20279Y-61705D01*
X20240Y-61628D01*
X20202Y-61476D01*
X20202Y-61286D01*
X20240Y-61133D01*
X20279Y-61057D01*
X20317Y-61019D01*
X20393Y-60981D01*
X21002Y-61705D02*
X21041Y-61743D01*
X21002Y-61781D01*
X20964Y-61743D01*
X21002Y-61705D01*
X21002Y-61781D01*
X21536Y-60981D02*
X21612Y-60981D01*
X21688Y-61019D01*
X21726Y-61057D01*
X21764Y-61133D01*
X21803Y-61286D01*
X21803Y-61476D01*
X21764Y-61628D01*
X21726Y-61705D01*
X21688Y-61743D01*
X21612Y-61781D01*
X21536Y-61781D01*
X21460Y-61743D01*
X21422Y-61705D01*
X21383Y-61628D01*
X21345Y-61476D01*
X21345Y-61286D01*
X21383Y-61133D01*
X21422Y-61057D01*
X21460Y-61019D01*
X21536Y-60981D01*
X22069Y-60981D02*
X22565Y-60981D01*
X22298Y-61286D01*
X22412Y-61286D01*
X22488Y-61324D01*
X22526Y-61362D01*
X22565Y-61438D01*
X22565Y-61628D01*
X22526Y-61705D01*
X22488Y-61743D01*
X22412Y-61781D01*
X22184Y-61781D01*
X22107Y-61743D01*
X22069Y-61705D01*
X22831Y-60981D02*
X23365Y-60981D01*
X23022Y-61781D01*
X23631Y-60981D02*
X23631Y-61133D01*
X23936Y-60981D02*
X23936Y-61133D01*
X25461Y-60943D02*
X24775Y-61971D01*
X26490Y-60981D02*
X26566Y-60981D01*
X26642Y-61019D01*
X26680Y-61057D01*
X26718Y-61133D01*
X26757Y-61286D01*
X26757Y-61476D01*
X26718Y-61628D01*
X26680Y-61705D01*
X26642Y-61743D01*
X26566Y-61781D01*
X26490Y-61781D01*
X26414Y-61743D01*
X26376Y-61705D01*
X26337Y-61628D01*
X26299Y-61476D01*
X26299Y-61286D01*
X26337Y-61133D01*
X26376Y-61057D01*
X26414Y-61019D01*
X26490Y-60981D01*
X27099Y-61705D02*
X27138Y-61743D01*
X27099Y-61781D01*
X27061Y-61743D01*
X27099Y-61705D01*
X27099Y-61781D01*
X27519Y-61781D02*
X27671Y-61781D01*
X27747Y-61743D01*
X27785Y-61705D01*
X27861Y-61590D01*
X27900Y-61438D01*
X27900Y-61133D01*
X27861Y-61057D01*
X27823Y-61019D01*
X27747Y-60981D01*
X27595Y-60981D01*
X27519Y-61019D01*
X27480Y-61057D01*
X27442Y-61133D01*
X27442Y-61324D01*
X27480Y-61400D01*
X27519Y-61438D01*
X27595Y-61476D01*
X27747Y-61476D01*
X27823Y-61438D01*
X27861Y-61400D01*
X27900Y-61324D01*
X28623Y-60981D02*
X28242Y-60981D01*
X28204Y-61362D01*
X28242Y-61324D01*
X28319Y-61286D01*
X28509Y-61286D01*
X28585Y-61324D01*
X28623Y-61362D01*
X28662Y-61438D01*
X28662Y-61628D01*
X28623Y-61705D01*
X28585Y-61743D01*
X28509Y-61781D01*
X28319Y-61781D01*
X28242Y-61743D01*
X28204Y-61705D01*
X29004Y-61781D02*
X29004Y-61247D01*
X29004Y-61324D02*
X29043Y-61286D01*
X29119Y-61247D01*
X29233Y-61247D01*
X29309Y-61286D01*
X29347Y-61362D01*
X29347Y-61781D01*
X29347Y-61362D02*
X29385Y-61286D01*
X29462Y-61247D01*
X29576Y-61247D01*
X29652Y-61286D01*
X29690Y-61362D01*
X29690Y-61781D01*
X30071Y-61781D02*
X30071Y-61247D01*
X30071Y-61324D02*
X30110Y-61286D01*
X30186Y-61247D01*
X30300Y-61247D01*
X30376Y-61286D01*
X30414Y-61362D01*
X30414Y-61781D01*
X30414Y-61362D02*
X30452Y-61286D01*
X30529Y-61247D01*
X30643Y-61247D01*
X30719Y-61286D01*
X30757Y-61362D01*
X30757Y-61781D01*
X31977Y-62086D02*
X31939Y-62047D01*
X31863Y-61933D01*
X31825Y-61857D01*
X31787Y-61743D01*
X31748Y-61552D01*
X31748Y-61400D01*
X31787Y-61209D01*
X31825Y-61095D01*
X31863Y-61019D01*
X31939Y-60905D01*
X31977Y-60867D01*
X32624Y-61247D02*
X32624Y-61781D01*
X32434Y-60943D02*
X32243Y-61514D01*
X32739Y-61514D01*
X33653Y-61781D02*
X33653Y-60981D01*
X33996Y-61781D02*
X33996Y-61362D01*
X33958Y-61286D01*
X33882Y-61247D01*
X33768Y-61247D01*
X33692Y-61286D01*
X33653Y-61324D01*
X34492Y-61781D02*
X34416Y-61743D01*
X34377Y-61705D01*
X34339Y-61628D01*
X34339Y-61400D01*
X34377Y-61324D01*
X34416Y-61286D01*
X34492Y-61247D01*
X34606Y-61247D01*
X34682Y-61286D01*
X34720Y-61324D01*
X34758Y-61400D01*
X34758Y-61628D01*
X34720Y-61705D01*
X34682Y-61743D01*
X34606Y-61781D01*
X34492Y-61781D01*
X35216Y-61781D02*
X35140Y-61743D01*
X35101Y-61667D01*
X35101Y-60981D01*
X35825Y-61743D02*
X35749Y-61781D01*
X35597Y-61781D01*
X35520Y-61743D01*
X35482Y-61667D01*
X35482Y-61362D01*
X35520Y-61286D01*
X35597Y-61247D01*
X35749Y-61247D01*
X35825Y-61286D01*
X35863Y-61362D01*
X35863Y-61438D01*
X35482Y-61514D01*
X36168Y-61743D02*
X36245Y-61781D01*
X36397Y-61781D01*
X36473Y-61743D01*
X36511Y-61667D01*
X36511Y-61628D01*
X36473Y-61552D01*
X36397Y-61514D01*
X36283Y-61514D01*
X36206Y-61476D01*
X36168Y-61400D01*
X36168Y-61362D01*
X36206Y-61286D01*
X36283Y-61247D01*
X36397Y-61247D01*
X36473Y-61286D01*
X36778Y-62086D02*
X36816Y-62047D01*
X36893Y-61933D01*
X36931Y-61857D01*
X36969Y-61743D01*
X37007Y-61552D01*
X37007Y-61400D01*
X36969Y-61209D01*
X36931Y-61095D01*
X36893Y-61019D01*
X36816Y-60905D01*
X36778Y-60867D01*
G54D10*
X19792Y-62652D02*
X19792Y-62374D01*
X19514Y-62374D01*
X19514Y-62652D01*
X19792Y-62652D01*
G54D12*
X20393Y-62037D02*
X20469Y-62037D01*
X20545Y-62075D01*
X20583Y-62113D01*
X20621Y-62189D01*
X20660Y-62342D01*
X20660Y-62532D01*
X20621Y-62684D01*
X20583Y-62761D01*
X20545Y-62799D01*
X20469Y-62837D01*
X20393Y-62837D01*
X20317Y-62799D01*
X20279Y-62761D01*
X20240Y-62684D01*
X20202Y-62532D01*
X20202Y-62342D01*
X20240Y-62189D01*
X20279Y-62113D01*
X20317Y-62075D01*
X20393Y-62037D01*
X21002Y-62761D02*
X21041Y-62799D01*
X21002Y-62837D01*
X20964Y-62799D01*
X21002Y-62761D01*
X21002Y-62837D01*
X21536Y-62037D02*
X21612Y-62037D01*
X21688Y-62075D01*
X21726Y-62113D01*
X21764Y-62189D01*
X21803Y-62342D01*
X21803Y-62532D01*
X21764Y-62684D01*
X21726Y-62761D01*
X21688Y-62799D01*
X21612Y-62837D01*
X21536Y-62837D01*
X21460Y-62799D01*
X21422Y-62761D01*
X21383Y-62684D01*
X21345Y-62532D01*
X21345Y-62342D01*
X21383Y-62189D01*
X21422Y-62113D01*
X21460Y-62075D01*
X21536Y-62037D01*
X22069Y-62037D02*
X22565Y-62037D01*
X22298Y-62342D01*
X22412Y-62342D01*
X22488Y-62380D01*
X22526Y-62418D01*
X22565Y-62494D01*
X22565Y-62684D01*
X22526Y-62761D01*
X22488Y-62799D01*
X22412Y-62837D01*
X22184Y-62837D01*
X22107Y-62799D01*
X22069Y-62761D01*
X22946Y-62837D02*
X23098Y-62837D01*
X23174Y-62799D01*
X23212Y-62761D01*
X23288Y-62646D01*
X23327Y-62494D01*
X23327Y-62189D01*
X23288Y-62113D01*
X23250Y-62075D01*
X23174Y-62037D01*
X23022Y-62037D01*
X22946Y-62075D01*
X22907Y-62113D01*
X22869Y-62189D01*
X22869Y-62380D01*
X22907Y-62456D01*
X22946Y-62494D01*
X23022Y-62532D01*
X23174Y-62532D01*
X23250Y-62494D01*
X23288Y-62456D01*
X23327Y-62380D01*
X23631Y-62037D02*
X23631Y-62189D01*
X23936Y-62037D02*
X23936Y-62189D01*
X25461Y-61999D02*
X24775Y-63027D01*
X26757Y-62837D02*
X26299Y-62837D01*
X26528Y-62837D02*
X26528Y-62037D01*
X26452Y-62151D01*
X26376Y-62227D01*
X26299Y-62265D01*
X27099Y-62761D02*
X27138Y-62799D01*
X27099Y-62837D01*
X27061Y-62799D01*
X27099Y-62761D01*
X27099Y-62837D01*
X27633Y-62037D02*
X27709Y-62037D01*
X27785Y-62075D01*
X27823Y-62113D01*
X27861Y-62189D01*
X27900Y-62342D01*
X27900Y-62532D01*
X27861Y-62684D01*
X27823Y-62761D01*
X27785Y-62799D01*
X27709Y-62837D01*
X27633Y-62837D01*
X27557Y-62799D01*
X27519Y-62761D01*
X27480Y-62684D01*
X27442Y-62532D01*
X27442Y-62342D01*
X27480Y-62189D01*
X27519Y-62113D01*
X27557Y-62075D01*
X27633Y-62037D01*
X28395Y-62037D02*
X28471Y-62037D01*
X28547Y-62075D01*
X28585Y-62113D01*
X28623Y-62189D01*
X28662Y-62342D01*
X28662Y-62532D01*
X28623Y-62684D01*
X28585Y-62761D01*
X28547Y-62799D01*
X28471Y-62837D01*
X28395Y-62837D01*
X28319Y-62799D01*
X28281Y-62761D01*
X28242Y-62684D01*
X28204Y-62532D01*
X28204Y-62342D01*
X28242Y-62189D01*
X28281Y-62113D01*
X28319Y-62075D01*
X28395Y-62037D01*
X29004Y-62837D02*
X29004Y-62303D01*
X29004Y-62380D02*
X29043Y-62342D01*
X29119Y-62303D01*
X29233Y-62303D01*
X29309Y-62342D01*
X29347Y-62418D01*
X29347Y-62837D01*
X29347Y-62418D02*
X29385Y-62342D01*
X29462Y-62303D01*
X29576Y-62303D01*
X29652Y-62342D01*
X29690Y-62418D01*
X29690Y-62837D01*
X30071Y-62837D02*
X30071Y-62303D01*
X30071Y-62380D02*
X30110Y-62342D01*
X30186Y-62303D01*
X30300Y-62303D01*
X30376Y-62342D01*
X30414Y-62418D01*
X30414Y-62837D01*
X30414Y-62418D02*
X30452Y-62342D01*
X30529Y-62303D01*
X30643Y-62303D01*
X30719Y-62342D01*
X30757Y-62418D01*
X30757Y-62837D01*
X31977Y-63142D02*
X31939Y-63103D01*
X31863Y-62989D01*
X31825Y-62913D01*
X31787Y-62799D01*
X31748Y-62608D01*
X31748Y-62456D01*
X31787Y-62265D01*
X31825Y-62151D01*
X31863Y-62075D01*
X31939Y-61961D01*
X31977Y-61923D01*
X32243Y-62113D02*
X32281Y-62075D01*
X32358Y-62037D01*
X32548Y-62037D01*
X32624Y-62075D01*
X32662Y-62113D01*
X32701Y-62189D01*
X32701Y-62265D01*
X32662Y-62380D01*
X32205Y-62837D01*
X32701Y-62837D01*
X33653Y-62837D02*
X33653Y-62037D01*
X33996Y-62837D02*
X33996Y-62418D01*
X33958Y-62342D01*
X33882Y-62303D01*
X33768Y-62303D01*
X33692Y-62342D01*
X33653Y-62380D01*
X34492Y-62837D02*
X34416Y-62799D01*
X34377Y-62761D01*
X34339Y-62684D01*
X34339Y-62456D01*
X34377Y-62380D01*
X34416Y-62342D01*
X34492Y-62303D01*
X34606Y-62303D01*
X34682Y-62342D01*
X34720Y-62380D01*
X34758Y-62456D01*
X34758Y-62684D01*
X34720Y-62761D01*
X34682Y-62799D01*
X34606Y-62837D01*
X34492Y-62837D01*
X35216Y-62837D02*
X35140Y-62799D01*
X35101Y-62723D01*
X35101Y-62037D01*
X35825Y-62799D02*
X35749Y-62837D01*
X35597Y-62837D01*
X35520Y-62799D01*
X35482Y-62723D01*
X35482Y-62418D01*
X35520Y-62342D01*
X35597Y-62303D01*
X35749Y-62303D01*
X35825Y-62342D01*
X35863Y-62418D01*
X35863Y-62494D01*
X35482Y-62570D01*
X36168Y-62799D02*
X36245Y-62837D01*
X36397Y-62837D01*
X36473Y-62799D01*
X36511Y-62723D01*
X36511Y-62684D01*
X36473Y-62608D01*
X36397Y-62570D01*
X36283Y-62570D01*
X36206Y-62532D01*
X36168Y-62456D01*
X36168Y-62418D01*
X36206Y-62342D01*
X36283Y-62303D01*
X36397Y-62303D01*
X36473Y-62342D01*
X36778Y-63142D02*
X36816Y-63103D01*
X36893Y-62989D01*
X36931Y-62913D01*
X36969Y-62799D01*
X37007Y-62608D01*
X37007Y-62456D01*
X36969Y-62265D01*
X36931Y-62151D01*
X36893Y-62075D01*
X36816Y-61961D01*
X36778Y-61923D01*
G54D10*
X19650Y-63769D02*
X19850Y-63569D01*
X19650Y-63369D01*
X19450Y-63569D01*
X19650Y-63769D01*
G54D12*
X20393Y-63093D02*
X20469Y-63093D01*
X20545Y-63131D01*
X20583Y-63169D01*
X20621Y-63245D01*
X20660Y-63398D01*
X20660Y-63588D01*
X20621Y-63740D01*
X20583Y-63817D01*
X20545Y-63855D01*
X20469Y-63893D01*
X20393Y-63893D01*
X20317Y-63855D01*
X20279Y-63817D01*
X20240Y-63740D01*
X20202Y-63588D01*
X20202Y-63398D01*
X20240Y-63245D01*
X20279Y-63169D01*
X20317Y-63131D01*
X20393Y-63093D01*
X21002Y-63817D02*
X21041Y-63855D01*
X21002Y-63893D01*
X20964Y-63855D01*
X21002Y-63817D01*
X21002Y-63893D01*
X21536Y-63093D02*
X21612Y-63093D01*
X21688Y-63131D01*
X21726Y-63169D01*
X21764Y-63245D01*
X21803Y-63398D01*
X21803Y-63588D01*
X21764Y-63740D01*
X21726Y-63817D01*
X21688Y-63855D01*
X21612Y-63893D01*
X21536Y-63893D01*
X21460Y-63855D01*
X21422Y-63817D01*
X21383Y-63740D01*
X21345Y-63588D01*
X21345Y-63398D01*
X21383Y-63245D01*
X21422Y-63169D01*
X21460Y-63131D01*
X21536Y-63093D01*
X22488Y-63359D02*
X22488Y-63893D01*
X22298Y-63055D02*
X22107Y-63626D01*
X22603Y-63626D01*
X23060Y-63093D02*
X23136Y-63093D01*
X23212Y-63131D01*
X23250Y-63169D01*
X23288Y-63245D01*
X23327Y-63398D01*
X23327Y-63588D01*
X23288Y-63740D01*
X23250Y-63817D01*
X23212Y-63855D01*
X23136Y-63893D01*
X23060Y-63893D01*
X22984Y-63855D01*
X22946Y-63817D01*
X22907Y-63740D01*
X22869Y-63588D01*
X22869Y-63398D01*
X22907Y-63245D01*
X22946Y-63169D01*
X22984Y-63131D01*
X23060Y-63093D01*
X23631Y-63093D02*
X23631Y-63245D01*
X23936Y-63093D02*
X23936Y-63245D01*
X25461Y-63055D02*
X24775Y-64083D01*
X26757Y-63893D02*
X26299Y-63893D01*
X26528Y-63893D02*
X26528Y-63093D01*
X26452Y-63207D01*
X26376Y-63283D01*
X26299Y-63321D01*
X27099Y-63817D02*
X27138Y-63855D01*
X27099Y-63893D01*
X27061Y-63855D01*
X27099Y-63817D01*
X27099Y-63893D01*
X27633Y-63093D02*
X27709Y-63093D01*
X27785Y-63131D01*
X27823Y-63169D01*
X27861Y-63245D01*
X27900Y-63398D01*
X27900Y-63588D01*
X27861Y-63740D01*
X27823Y-63817D01*
X27785Y-63855D01*
X27709Y-63893D01*
X27633Y-63893D01*
X27557Y-63855D01*
X27519Y-63817D01*
X27480Y-63740D01*
X27442Y-63588D01*
X27442Y-63398D01*
X27480Y-63245D01*
X27519Y-63169D01*
X27557Y-63131D01*
X27633Y-63093D01*
X28204Y-63169D02*
X28242Y-63131D01*
X28319Y-63093D01*
X28509Y-63093D01*
X28585Y-63131D01*
X28623Y-63169D01*
X28662Y-63245D01*
X28662Y-63321D01*
X28623Y-63436D01*
X28166Y-63893D01*
X28662Y-63893D01*
X29004Y-63893D02*
X29004Y-63359D01*
X29004Y-63436D02*
X29043Y-63398D01*
X29119Y-63359D01*
X29233Y-63359D01*
X29309Y-63398D01*
X29347Y-63474D01*
X29347Y-63893D01*
X29347Y-63474D02*
X29385Y-63398D01*
X29462Y-63359D01*
X29576Y-63359D01*
X29652Y-63398D01*
X29690Y-63474D01*
X29690Y-63893D01*
X30071Y-63893D02*
X30071Y-63359D01*
X30071Y-63436D02*
X30110Y-63398D01*
X30186Y-63359D01*
X30300Y-63359D01*
X30376Y-63398D01*
X30414Y-63474D01*
X30414Y-63893D01*
X30414Y-63474D02*
X30452Y-63398D01*
X30529Y-63359D01*
X30643Y-63359D01*
X30719Y-63398D01*
X30757Y-63474D01*
X30757Y-63893D01*
X31977Y-64198D02*
X31939Y-64159D01*
X31863Y-64045D01*
X31825Y-63969D01*
X31787Y-63855D01*
X31748Y-63664D01*
X31748Y-63512D01*
X31787Y-63321D01*
X31825Y-63207D01*
X31863Y-63131D01*
X31939Y-63017D01*
X31977Y-62979D01*
X32205Y-63093D02*
X32701Y-63093D01*
X32434Y-63398D01*
X32548Y-63398D01*
X32624Y-63436D01*
X32662Y-63474D01*
X32701Y-63550D01*
X32701Y-63740D01*
X32662Y-63817D01*
X32624Y-63855D01*
X32548Y-63893D01*
X32320Y-63893D01*
X32243Y-63855D01*
X32205Y-63817D01*
X33653Y-63893D02*
X33653Y-63093D01*
X33996Y-63893D02*
X33996Y-63474D01*
X33958Y-63398D01*
X33882Y-63359D01*
X33768Y-63359D01*
X33692Y-63398D01*
X33653Y-63436D01*
X34492Y-63893D02*
X34416Y-63855D01*
X34377Y-63817D01*
X34339Y-63740D01*
X34339Y-63512D01*
X34377Y-63436D01*
X34416Y-63398D01*
X34492Y-63359D01*
X34606Y-63359D01*
X34682Y-63398D01*
X34720Y-63436D01*
X34758Y-63512D01*
X34758Y-63740D01*
X34720Y-63817D01*
X34682Y-63855D01*
X34606Y-63893D01*
X34492Y-63893D01*
X35216Y-63893D02*
X35140Y-63855D01*
X35101Y-63779D01*
X35101Y-63093D01*
X35825Y-63855D02*
X35749Y-63893D01*
X35597Y-63893D01*
X35520Y-63855D01*
X35482Y-63779D01*
X35482Y-63474D01*
X35520Y-63398D01*
X35597Y-63359D01*
X35749Y-63359D01*
X35825Y-63398D01*
X35863Y-63474D01*
X35863Y-63550D01*
X35482Y-63626D01*
X36168Y-63855D02*
X36245Y-63893D01*
X36397Y-63893D01*
X36473Y-63855D01*
X36511Y-63779D01*
X36511Y-63740D01*
X36473Y-63664D01*
X36397Y-63626D01*
X36283Y-63626D01*
X36206Y-63588D01*
X36168Y-63512D01*
X36168Y-63474D01*
X36206Y-63398D01*
X36283Y-63359D01*
X36397Y-63359D01*
X36473Y-63398D01*
X36778Y-64198D02*
X36816Y-64159D01*
X36893Y-64045D01*
X36931Y-63969D01*
X36969Y-63855D01*
X37007Y-63664D01*
X37007Y-63512D01*
X36969Y-63321D01*
X36931Y-63207D01*
X36893Y-63131D01*
X36816Y-63017D01*
X36778Y-62979D01*
G54D10*
X19717Y-64945D02*
X19717Y-64305D01*
X19077Y-64305D01*
X19077Y-64945D01*
X19717Y-64945D01*
X18945Y-64173D02*
X19849Y-65077D01*
X19849Y-64173D02*
X18945Y-65077D01*
G54D12*
X20393Y-64149D02*
X20469Y-64149D01*
X20545Y-64187D01*
X20583Y-64225D01*
X20621Y-64301D01*
X20660Y-64454D01*
X20660Y-64644D01*
X20621Y-64796D01*
X20583Y-64873D01*
X20545Y-64911D01*
X20469Y-64949D01*
X20393Y-64949D01*
X20317Y-64911D01*
X20279Y-64873D01*
X20240Y-64796D01*
X20202Y-64644D01*
X20202Y-64454D01*
X20240Y-64301D01*
X20279Y-64225D01*
X20317Y-64187D01*
X20393Y-64149D01*
X21002Y-64873D02*
X21041Y-64911D01*
X21002Y-64949D01*
X20964Y-64911D01*
X21002Y-64873D01*
X21002Y-64949D01*
X21536Y-64149D02*
X21612Y-64149D01*
X21688Y-64187D01*
X21726Y-64225D01*
X21764Y-64301D01*
X21803Y-64454D01*
X21803Y-64644D01*
X21764Y-64796D01*
X21726Y-64873D01*
X21688Y-64911D01*
X21612Y-64949D01*
X21536Y-64949D01*
X21460Y-64911D01*
X21422Y-64873D01*
X21383Y-64796D01*
X21345Y-64644D01*
X21345Y-64454D01*
X21383Y-64301D01*
X21422Y-64225D01*
X21460Y-64187D01*
X21536Y-64149D01*
X22184Y-64949D02*
X22336Y-64949D01*
X22412Y-64911D01*
X22450Y-64873D01*
X22526Y-64758D01*
X22565Y-64606D01*
X22565Y-64301D01*
X22526Y-64225D01*
X22488Y-64187D01*
X22412Y-64149D01*
X22260Y-64149D01*
X22184Y-64187D01*
X22145Y-64225D01*
X22107Y-64301D01*
X22107Y-64492D01*
X22145Y-64568D01*
X22184Y-64606D01*
X22260Y-64644D01*
X22412Y-64644D01*
X22488Y-64606D01*
X22526Y-64568D01*
X22565Y-64492D01*
X23327Y-64949D02*
X22869Y-64949D01*
X23098Y-64949D02*
X23098Y-64149D01*
X23022Y-64263D01*
X22946Y-64339D01*
X22869Y-64377D01*
X23631Y-64149D02*
X23631Y-64301D01*
X23936Y-64149D02*
X23936Y-64301D01*
X25461Y-64111D02*
X24775Y-65139D01*
X26299Y-64225D02*
X26337Y-64187D01*
X26414Y-64149D01*
X26604Y-64149D01*
X26680Y-64187D01*
X26718Y-64225D01*
X26757Y-64301D01*
X26757Y-64377D01*
X26718Y-64492D01*
X26261Y-64949D01*
X26757Y-64949D01*
X27099Y-64873D02*
X27138Y-64911D01*
X27099Y-64949D01*
X27061Y-64911D01*
X27099Y-64873D01*
X27099Y-64949D01*
X27404Y-64149D02*
X27900Y-64149D01*
X27633Y-64454D01*
X27747Y-64454D01*
X27823Y-64492D01*
X27861Y-64530D01*
X27900Y-64606D01*
X27900Y-64796D01*
X27861Y-64873D01*
X27823Y-64911D01*
X27747Y-64949D01*
X27519Y-64949D01*
X27442Y-64911D01*
X27404Y-64873D01*
X28395Y-64149D02*
X28471Y-64149D01*
X28547Y-64187D01*
X28585Y-64225D01*
X28623Y-64301D01*
X28662Y-64454D01*
X28662Y-64644D01*
X28623Y-64796D01*
X28585Y-64873D01*
X28547Y-64911D01*
X28471Y-64949D01*
X28395Y-64949D01*
X28319Y-64911D01*
X28281Y-64873D01*
X28242Y-64796D01*
X28204Y-64644D01*
X28204Y-64454D01*
X28242Y-64301D01*
X28281Y-64225D01*
X28319Y-64187D01*
X28395Y-64149D01*
X29004Y-64949D02*
X29004Y-64415D01*
X29004Y-64492D02*
X29043Y-64454D01*
X29119Y-64415D01*
X29233Y-64415D01*
X29309Y-64454D01*
X29347Y-64530D01*
X29347Y-64949D01*
X29347Y-64530D02*
X29385Y-64454D01*
X29462Y-64415D01*
X29576Y-64415D01*
X29652Y-64454D01*
X29690Y-64530D01*
X29690Y-64949D01*
X30071Y-64949D02*
X30071Y-64415D01*
X30071Y-64492D02*
X30110Y-64454D01*
X30186Y-64415D01*
X30300Y-64415D01*
X30376Y-64454D01*
X30414Y-64530D01*
X30414Y-64949D01*
X30414Y-64530D02*
X30452Y-64454D01*
X30529Y-64415D01*
X30643Y-64415D01*
X30719Y-64454D01*
X30757Y-64530D01*
X30757Y-64949D01*
X31977Y-65254D02*
X31939Y-65215D01*
X31863Y-65101D01*
X31825Y-65025D01*
X31787Y-64911D01*
X31748Y-64720D01*
X31748Y-64568D01*
X31787Y-64377D01*
X31825Y-64263D01*
X31863Y-64187D01*
X31939Y-64073D01*
X31977Y-64035D01*
X32243Y-64225D02*
X32281Y-64187D01*
X32358Y-64149D01*
X32548Y-64149D01*
X32624Y-64187D01*
X32662Y-64225D01*
X32701Y-64301D01*
X32701Y-64377D01*
X32662Y-64492D01*
X32205Y-64949D01*
X32701Y-64949D01*
X33653Y-64949D02*
X33653Y-64149D01*
X33996Y-64949D02*
X33996Y-64530D01*
X33958Y-64454D01*
X33882Y-64415D01*
X33768Y-64415D01*
X33692Y-64454D01*
X33653Y-64492D01*
X34492Y-64949D02*
X34416Y-64911D01*
X34377Y-64873D01*
X34339Y-64796D01*
X34339Y-64568D01*
X34377Y-64492D01*
X34416Y-64454D01*
X34492Y-64415D01*
X34606Y-64415D01*
X34682Y-64454D01*
X34720Y-64492D01*
X34758Y-64568D01*
X34758Y-64796D01*
X34720Y-64873D01*
X34682Y-64911D01*
X34606Y-64949D01*
X34492Y-64949D01*
X35216Y-64949D02*
X35140Y-64911D01*
X35101Y-64835D01*
X35101Y-64149D01*
X35825Y-64911D02*
X35749Y-64949D01*
X35597Y-64949D01*
X35520Y-64911D01*
X35482Y-64835D01*
X35482Y-64530D01*
X35520Y-64454D01*
X35597Y-64415D01*
X35749Y-64415D01*
X35825Y-64454D01*
X35863Y-64530D01*
X35863Y-64606D01*
X35482Y-64682D01*
X36168Y-64911D02*
X36245Y-64949D01*
X36397Y-64949D01*
X36473Y-64911D01*
X36511Y-64835D01*
X36511Y-64796D01*
X36473Y-64720D01*
X36397Y-64682D01*
X36283Y-64682D01*
X36206Y-64644D01*
X36168Y-64568D01*
X36168Y-64530D01*
X36206Y-64454D01*
X36283Y-64415D01*
X36397Y-64415D01*
X36473Y-64454D01*
X36778Y-65254D02*
X36816Y-65215D01*
X36893Y-65101D01*
X36931Y-65025D01*
X36969Y-64911D01*
X37007Y-64720D01*
X37007Y-64568D01*
X36969Y-64377D01*
X36931Y-64263D01*
X36893Y-64187D01*
X36816Y-64073D01*
X36778Y-64035D01*
G54D10*
X19220Y-66439D02*
X19849Y-65810D01*
X19220Y-65181D01*
X18591Y-65810D01*
X19220Y-66439D01*
X19220Y-65181D02*
X19220Y-66439D01*
X19849Y-65810D02*
X18591Y-65810D01*
G54D12*
X20393Y-65334D02*
X20469Y-65334D01*
X20545Y-65372D01*
X20583Y-65410D01*
X20621Y-65486D01*
X20660Y-65639D01*
X20660Y-65829D01*
X20621Y-65981D01*
X20583Y-66058D01*
X20545Y-66096D01*
X20469Y-66134D01*
X20393Y-66134D01*
X20317Y-66096D01*
X20279Y-66058D01*
X20240Y-65981D01*
X20202Y-65829D01*
X20202Y-65639D01*
X20240Y-65486D01*
X20279Y-65410D01*
X20317Y-65372D01*
X20393Y-65334D01*
X21002Y-66058D02*
X21041Y-66096D01*
X21002Y-66134D01*
X20964Y-66096D01*
X21002Y-66058D01*
X21002Y-66134D01*
X21803Y-66134D02*
X21345Y-66134D01*
X21574Y-66134D02*
X21574Y-65334D01*
X21498Y-65448D01*
X21422Y-65524D01*
X21345Y-65562D01*
X22107Y-65410D02*
X22145Y-65372D01*
X22222Y-65334D01*
X22412Y-65334D01*
X22488Y-65372D01*
X22526Y-65410D01*
X22565Y-65486D01*
X22565Y-65562D01*
X22526Y-65677D01*
X22069Y-66134D01*
X22565Y-66134D01*
X23250Y-65334D02*
X23098Y-65334D01*
X23022Y-65372D01*
X22984Y-65410D01*
X22907Y-65524D01*
X22869Y-65677D01*
X22869Y-65981D01*
X22907Y-66058D01*
X22946Y-66096D01*
X23022Y-66134D01*
X23174Y-66134D01*
X23250Y-66096D01*
X23288Y-66058D01*
X23327Y-65981D01*
X23327Y-65791D01*
X23288Y-65715D01*
X23250Y-65677D01*
X23174Y-65639D01*
X23022Y-65639D01*
X22946Y-65677D01*
X22907Y-65715D01*
X22869Y-65791D01*
X23631Y-65334D02*
X23631Y-65486D01*
X23936Y-65334D02*
X23936Y-65486D01*
X25461Y-65296D02*
X24775Y-66324D01*
X26261Y-65334D02*
X26757Y-65334D01*
X26490Y-65639D01*
X26604Y-65639D01*
X26680Y-65677D01*
X26718Y-65715D01*
X26757Y-65791D01*
X26757Y-65981D01*
X26718Y-66058D01*
X26680Y-66096D01*
X26604Y-66134D01*
X26376Y-66134D01*
X26299Y-66096D01*
X26261Y-66058D01*
X27099Y-66058D02*
X27138Y-66096D01*
X27099Y-66134D01*
X27061Y-66096D01*
X27099Y-66058D01*
X27099Y-66134D01*
X27442Y-65410D02*
X27480Y-65372D01*
X27557Y-65334D01*
X27747Y-65334D01*
X27823Y-65372D01*
X27861Y-65410D01*
X27900Y-65486D01*
X27900Y-65562D01*
X27861Y-65677D01*
X27404Y-66134D01*
X27900Y-66134D01*
X28395Y-65334D02*
X28471Y-65334D01*
X28547Y-65372D01*
X28585Y-65410D01*
X28623Y-65486D01*
X28662Y-65639D01*
X28662Y-65829D01*
X28623Y-65981D01*
X28585Y-66058D01*
X28547Y-66096D01*
X28471Y-66134D01*
X28395Y-66134D01*
X28319Y-66096D01*
X28281Y-66058D01*
X28242Y-65981D01*
X28204Y-65829D01*
X28204Y-65639D01*
X28242Y-65486D01*
X28281Y-65410D01*
X28319Y-65372D01*
X28395Y-65334D01*
X29004Y-66134D02*
X29004Y-65600D01*
X29004Y-65677D02*
X29043Y-65639D01*
X29119Y-65600D01*
X29233Y-65600D01*
X29309Y-65639D01*
X29347Y-65715D01*
X29347Y-66134D01*
X29347Y-65715D02*
X29385Y-65639D01*
X29462Y-65600D01*
X29576Y-65600D01*
X29652Y-65639D01*
X29690Y-65715D01*
X29690Y-66134D01*
X30071Y-66134D02*
X30071Y-65600D01*
X30071Y-65677D02*
X30110Y-65639D01*
X30186Y-65600D01*
X30300Y-65600D01*
X30376Y-65639D01*
X30414Y-65715D01*
X30414Y-66134D01*
X30414Y-65715D02*
X30452Y-65639D01*
X30529Y-65600D01*
X30643Y-65600D01*
X30719Y-65639D01*
X30757Y-65715D01*
X30757Y-66134D01*
X31977Y-66439D02*
X31939Y-66400D01*
X31863Y-66286D01*
X31825Y-66210D01*
X31787Y-66096D01*
X31748Y-65905D01*
X31748Y-65753D01*
X31787Y-65562D01*
X31825Y-65448D01*
X31863Y-65372D01*
X31939Y-65258D01*
X31977Y-65220D01*
X32624Y-65600D02*
X32624Y-66134D01*
X32434Y-65296D02*
X32243Y-65867D01*
X32739Y-65867D01*
X33653Y-66134D02*
X33653Y-65334D01*
X33996Y-66134D02*
X33996Y-65715D01*
X33958Y-65639D01*
X33882Y-65600D01*
X33768Y-65600D01*
X33692Y-65639D01*
X33653Y-65677D01*
X34492Y-66134D02*
X34416Y-66096D01*
X34377Y-66058D01*
X34339Y-65981D01*
X34339Y-65753D01*
X34377Y-65677D01*
X34416Y-65639D01*
X34492Y-65600D01*
X34606Y-65600D01*
X34682Y-65639D01*
X34720Y-65677D01*
X34758Y-65753D01*
X34758Y-65981D01*
X34720Y-66058D01*
X34682Y-66096D01*
X34606Y-66134D01*
X34492Y-66134D01*
X35216Y-66134D02*
X35140Y-66096D01*
X35101Y-66020D01*
X35101Y-65334D01*
X35825Y-66096D02*
X35749Y-66134D01*
X35597Y-66134D01*
X35520Y-66096D01*
X35482Y-66020D01*
X35482Y-65715D01*
X35520Y-65639D01*
X35597Y-65600D01*
X35749Y-65600D01*
X35825Y-65639D01*
X35863Y-65715D01*
X35863Y-65791D01*
X35482Y-65867D01*
X36168Y-66096D02*
X36245Y-66134D01*
X36397Y-66134D01*
X36473Y-66096D01*
X36511Y-66020D01*
X36511Y-65981D01*
X36473Y-65905D01*
X36397Y-65867D01*
X36283Y-65867D01*
X36206Y-65829D01*
X36168Y-65753D01*
X36168Y-65715D01*
X36206Y-65639D01*
X36283Y-65600D01*
X36397Y-65600D01*
X36473Y-65639D01*
X36778Y-66439D02*
X36816Y-66400D01*
X36893Y-66286D01*
X36931Y-66210D01*
X36969Y-66096D01*
X37007Y-65905D01*
X37007Y-65753D01*
X36969Y-65562D01*
X36931Y-65448D01*
X36893Y-65372D01*
X36816Y-65258D01*
X36778Y-65220D01*
M02*
