G04 (created by PCBNEW-RS274X (2010-00-09 BZR 23xx)-stable) date Wed 31 Aug 2011 10:04:48 AM CEST*
G01*
G70*
G90*
%MOIN*%
G04 Gerber Fmt 3.4, Leading zero omitted, Abs format*
%FSLAX34Y34*%
G04 APERTURE LIST*
%ADD10C,0.006000*%
%ADD11C,0.015000*%
%ADD12C,0.052000*%
%ADD13O,0.104000X0.052000*%
%ADD14C,0.057400*%
%ADD15C,0.114100*%
%ADD16C,0.056000*%
%ADD17C,0.066000*%
%ADD18C,0.063000*%
%ADD19C,0.055400*%
%ADD20O,0.047500X0.095100*%
%ADD21C,0.060000*%
%ADD22C,0.230000*%
%ADD23C,0.032000*%
%ADD24C,0.023000*%
G04 APERTURE END LIST*
G54D10*
G54D11*
X20750Y-52500D02*
X20750Y-17000D01*
X83250Y-52500D02*
X20750Y-52500D01*
X83250Y-17000D02*
X83250Y-52500D01*
X20750Y-17000D02*
X83250Y-17000D01*
G54D12*
X63000Y-27250D03*
G54D13*
X65250Y-30000D03*
X65250Y-31000D03*
X65250Y-32000D03*
X65250Y-33000D03*
X65250Y-34000D03*
X65250Y-35000D03*
X65250Y-36000D03*
X65250Y-37000D03*
X65250Y-38000D03*
X65250Y-39000D03*
X68250Y-39000D03*
X68250Y-38000D03*
X68250Y-37000D03*
X68250Y-36000D03*
X68250Y-35000D03*
X68250Y-34000D03*
X68250Y-33000D03*
X68250Y-32000D03*
X68250Y-31000D03*
X68250Y-30000D03*
X27250Y-48000D03*
X27250Y-47000D03*
X27250Y-46000D03*
X27250Y-45000D03*
X27250Y-44000D03*
X27250Y-43000D03*
X27250Y-42000D03*
X27250Y-41000D03*
X27250Y-40000D03*
X27250Y-39000D03*
X24250Y-39000D03*
X24250Y-40000D03*
X24250Y-41000D03*
X24250Y-42000D03*
X24250Y-43000D03*
X24250Y-44000D03*
X24250Y-45000D03*
X24250Y-46000D03*
X24250Y-47000D03*
X24250Y-48000D03*
X53250Y-30000D03*
X53250Y-31000D03*
X53250Y-32000D03*
X53250Y-33000D03*
X53250Y-34000D03*
X53250Y-35000D03*
X53250Y-36000D03*
X53250Y-37000D03*
X53250Y-38000D03*
X53250Y-39000D03*
X53250Y-40000D03*
X53250Y-41000D03*
X53250Y-42000D03*
X53250Y-43000D03*
X53250Y-44000D03*
X53250Y-45000D03*
X53250Y-46000D03*
X53250Y-47000D03*
X53250Y-48000D03*
X53250Y-49000D03*
X59250Y-49000D03*
X59250Y-48000D03*
X59250Y-47000D03*
X59250Y-46000D03*
X59250Y-45000D03*
X59250Y-44000D03*
X59250Y-43000D03*
X59250Y-42000D03*
X59250Y-41000D03*
X59250Y-40000D03*
X59250Y-39000D03*
X59250Y-38000D03*
X59250Y-37000D03*
X59250Y-36000D03*
X59250Y-35000D03*
X59250Y-34000D03*
X59250Y-33000D03*
X59250Y-32000D03*
X59250Y-31000D03*
X59250Y-30000D03*
G54D14*
X26008Y-22604D03*
X26992Y-22604D03*
X26992Y-21816D03*
X26008Y-21816D03*
G54D15*
X28870Y-20750D03*
X24130Y-20750D03*
G54D16*
X46750Y-40000D03*
X45750Y-40000D03*
X46750Y-39000D03*
X45750Y-39000D03*
X46750Y-38000D03*
X45750Y-38000D03*
X46750Y-37000D03*
X45750Y-37000D03*
X46750Y-36000D03*
X45750Y-36000D03*
X41000Y-26500D03*
X40000Y-26500D03*
X41000Y-25500D03*
X40000Y-25500D03*
X41000Y-24500D03*
X40000Y-24500D03*
X41000Y-23500D03*
X40000Y-23500D03*
X41000Y-22500D03*
X40000Y-22500D03*
X41000Y-21500D03*
X40000Y-21500D03*
X41000Y-20500D03*
X40000Y-20500D03*
G54D12*
X49150Y-48550D03*
X49150Y-46650D03*
X29500Y-42550D03*
X29500Y-44450D03*
X45750Y-43000D03*
X46750Y-43000D03*
G54D13*
X73250Y-29000D03*
X73250Y-30000D03*
X73250Y-31000D03*
X73250Y-32000D03*
X73250Y-33000D03*
X73250Y-34000D03*
X73250Y-35000D03*
X73250Y-36000D03*
X73250Y-37000D03*
X73250Y-38000D03*
X73250Y-39000D03*
X73250Y-40000D03*
X73250Y-41000D03*
X73250Y-42000D03*
X79250Y-42000D03*
X79250Y-41000D03*
X79250Y-40000D03*
X79250Y-39000D03*
X79250Y-38000D03*
X79250Y-37000D03*
X79250Y-36000D03*
X79250Y-35000D03*
X79250Y-34000D03*
X79250Y-33000D03*
X79250Y-32000D03*
X79250Y-31000D03*
X79250Y-30000D03*
X79250Y-29000D03*
G54D12*
X27750Y-36500D03*
X24750Y-36500D03*
X27750Y-37500D03*
X24750Y-37500D03*
X48750Y-42000D03*
X48750Y-39000D03*
X23750Y-34500D03*
X23750Y-37500D03*
X28750Y-48000D03*
X31750Y-48000D03*
X28750Y-47000D03*
X31750Y-47000D03*
X31500Y-44500D03*
X32500Y-44500D03*
X31500Y-42500D03*
X32500Y-42500D03*
X47150Y-46600D03*
X46150Y-46600D03*
X47150Y-48600D03*
X46150Y-48600D03*
X22750Y-46000D03*
X22750Y-48000D03*
X61050Y-30000D03*
X63050Y-30000D03*
G54D17*
X32500Y-34361D03*
X32500Y-39649D03*
G54D12*
X69750Y-30000D03*
X71750Y-30000D03*
X80500Y-29000D03*
X82500Y-29000D03*
X29750Y-36000D03*
X30250Y-35250D03*
X30750Y-36000D03*
X29250Y-34000D03*
X31250Y-34000D03*
X31250Y-37500D03*
X29250Y-37500D03*
G54D18*
X30750Y-39500D03*
X29750Y-39500D03*
X35750Y-27500D03*
X34750Y-27500D03*
G54D12*
X36025Y-19175D03*
X35275Y-19675D03*
X36025Y-20175D03*
X46500Y-22750D03*
X47250Y-22250D03*
X46500Y-21750D03*
X46500Y-25250D03*
X47250Y-24750D03*
X46500Y-24250D03*
X36000Y-21750D03*
X35250Y-22250D03*
X36000Y-22750D03*
X46500Y-27750D03*
X47250Y-27250D03*
X46500Y-26750D03*
X36000Y-24250D03*
X35250Y-24750D03*
X36000Y-25250D03*
G54D16*
X37250Y-42000D03*
X36250Y-42000D03*
X37250Y-41000D03*
X36250Y-41000D03*
X37250Y-40000D03*
X36250Y-40000D03*
X37250Y-39000D03*
X36250Y-39000D03*
X37250Y-38000D03*
X36250Y-38000D03*
X37250Y-37000D03*
X36250Y-37000D03*
X37250Y-36000D03*
X36250Y-36000D03*
X37250Y-35000D03*
X36250Y-35000D03*
G54D19*
X38511Y-49404D03*
X37489Y-49404D03*
X39338Y-49404D03*
X36662Y-49404D03*
X39338Y-48420D03*
X36662Y-48420D03*
G54D20*
X38000Y-50900D03*
G54D21*
X42250Y-38500D03*
X40250Y-38500D03*
X41250Y-42500D03*
G54D12*
X51500Y-19000D03*
X48500Y-19000D03*
X51500Y-20250D03*
X48500Y-20250D03*
X51500Y-22750D03*
X48500Y-22750D03*
X51500Y-25250D03*
X48500Y-25250D03*
X51500Y-27750D03*
X48500Y-27750D03*
X51500Y-26500D03*
X48500Y-26500D03*
X51500Y-24000D03*
X48500Y-24000D03*
X51500Y-21500D03*
X48500Y-21500D03*
X46500Y-20250D03*
X47250Y-19750D03*
X46500Y-19250D03*
X31000Y-20250D03*
X34000Y-20250D03*
X31000Y-19000D03*
X34000Y-19000D03*
X31000Y-22750D03*
X34000Y-22750D03*
X31000Y-25250D03*
X34000Y-25250D03*
X31000Y-21500D03*
X34000Y-21500D03*
X31000Y-24000D03*
X34000Y-24000D03*
G54D22*
X22250Y-18500D03*
X22250Y-50750D03*
X81750Y-50750D03*
X81750Y-18500D03*
G54D12*
X63000Y-25500D03*
X71750Y-25500D03*
X71750Y-27250D03*
X71000Y-42500D03*
X71000Y-50500D03*
X35000Y-29750D03*
X36500Y-29750D03*
X39000Y-46750D03*
X39000Y-43750D03*
X44000Y-36000D03*
X42500Y-36000D03*
X42750Y-19500D03*
X42750Y-28250D03*
X41750Y-35000D03*
X41750Y-31500D03*
G54D16*
X25750Y-34000D03*
X28500Y-34000D03*
G54D12*
X38250Y-28750D03*
X38250Y-20250D03*
X52250Y-30500D03*
X52250Y-44000D03*
X45000Y-21750D03*
X45000Y-29000D03*
X51250Y-29000D03*
X51250Y-41000D03*
X77750Y-46000D03*
X77750Y-49500D03*
X55750Y-47000D03*
X55750Y-45000D03*
X78250Y-36000D03*
X76250Y-36000D03*
X77250Y-44500D03*
X74750Y-44500D03*
X71850Y-44500D03*
X71850Y-42500D03*
X74250Y-43000D03*
X78250Y-43000D03*
X75750Y-49000D03*
X75750Y-45000D03*
X64250Y-31000D03*
X64250Y-40500D03*
X63750Y-32000D03*
X63750Y-41000D03*
X63250Y-33000D03*
X63250Y-41500D03*
X62750Y-34000D03*
X62750Y-46500D03*
X62250Y-35000D03*
X62250Y-47000D03*
X61750Y-36000D03*
X61750Y-47500D03*
X80750Y-39000D03*
X61250Y-37000D03*
X61250Y-48000D03*
X80750Y-48000D03*
X60750Y-38000D03*
X80250Y-38000D03*
X80250Y-48500D03*
X60750Y-48500D03*
X44500Y-46000D03*
X43000Y-46000D03*
X34500Y-46000D03*
X34500Y-40000D03*
X45500Y-19250D03*
X45500Y-28500D03*
X57750Y-39000D03*
X57750Y-28500D03*
X49250Y-30000D03*
X49250Y-34000D03*
X44750Y-32500D03*
X44750Y-33500D03*
X37750Y-29250D03*
X37750Y-22750D03*
X50750Y-36000D03*
X50750Y-31000D03*
X44000Y-26750D03*
X44000Y-30000D03*
X48500Y-35000D03*
X48500Y-30000D03*
X49750Y-40000D03*
X49750Y-35000D03*
X43500Y-32000D03*
X43500Y-34500D03*
X37250Y-29750D03*
X37250Y-25250D03*
X50250Y-37000D03*
X50250Y-31500D03*
X44500Y-24250D03*
X44500Y-29500D03*
X51750Y-29500D03*
X51750Y-34000D03*
X43000Y-44250D03*
X43000Y-43250D03*
G54D16*
X25750Y-33250D03*
X30500Y-33250D03*
G54D12*
X71250Y-33000D03*
X71250Y-36000D03*
X71750Y-32000D03*
X71750Y-37000D03*
X72250Y-31000D03*
X72250Y-38000D03*
X69250Y-31500D03*
X69250Y-38000D03*
X69750Y-32500D03*
X69750Y-37000D03*
X70250Y-36000D03*
X70250Y-33500D03*
X70750Y-34000D03*
X70750Y-35000D03*
G54D16*
X40250Y-37500D03*
X44000Y-37500D03*
X32500Y-33250D03*
X32500Y-29750D03*
G54D23*
X25750Y-34000D02*
X28500Y-34000D01*
G54D24*
X38250Y-20250D02*
X38250Y-28750D01*
X52250Y-44000D02*
X52250Y-30500D01*
X45000Y-29000D02*
X45000Y-21750D01*
X51250Y-41000D02*
X51250Y-29000D01*
X77750Y-46000D02*
X77750Y-49500D01*
X55750Y-47000D02*
X55750Y-45000D01*
X76250Y-36000D02*
X78250Y-36000D01*
X74750Y-44500D02*
X77250Y-44500D01*
X71850Y-44500D02*
X71850Y-42500D01*
X74250Y-43000D02*
X78250Y-43000D01*
X75750Y-45000D02*
X75750Y-49000D01*
X64250Y-40500D02*
X64250Y-31000D01*
X63750Y-41000D02*
X63750Y-32000D01*
X63250Y-41500D02*
X63250Y-33000D01*
X62750Y-46500D02*
X62750Y-34000D01*
X62250Y-47000D02*
X62250Y-35000D01*
X61750Y-47500D02*
X61750Y-36000D01*
X80750Y-48000D02*
X80750Y-39000D01*
X61250Y-48000D02*
X61250Y-37000D01*
X80250Y-48500D02*
X80250Y-38000D01*
X60750Y-48500D02*
X60750Y-38000D01*
X43000Y-46000D02*
X44500Y-46000D01*
X34500Y-40000D02*
X34500Y-46000D01*
X45500Y-19250D02*
X45500Y-28500D01*
X57750Y-28500D02*
X57750Y-39000D01*
X49250Y-34000D02*
X49250Y-30000D01*
X44750Y-33500D02*
X44750Y-32500D01*
X37750Y-22750D02*
X37750Y-29250D01*
X50750Y-31000D02*
X50750Y-36000D01*
X44000Y-26750D02*
X44000Y-30000D01*
X48500Y-30000D02*
X48500Y-35000D01*
X49750Y-40000D02*
X49750Y-35000D01*
X43500Y-34500D02*
X43500Y-32000D01*
X37250Y-25250D02*
X37250Y-29750D01*
X50250Y-31500D02*
X50250Y-37000D01*
X44500Y-24250D02*
X44500Y-29500D01*
X51750Y-34000D02*
X51750Y-29500D01*
X43000Y-44250D02*
X43000Y-43250D01*
G54D23*
X35000Y-29750D02*
X36500Y-29750D01*
X42750Y-19500D02*
X42750Y-28250D01*
X41750Y-31500D02*
X41750Y-35000D01*
X42500Y-36000D02*
X44000Y-36000D01*
X39000Y-43750D02*
X39000Y-46750D01*
X71000Y-42500D02*
X71000Y-50500D01*
X71750Y-25500D02*
X71750Y-27250D01*
X63000Y-25500D02*
X63000Y-27250D01*
X25750Y-33250D02*
X30500Y-33250D01*
G54D24*
X71250Y-33000D02*
X71250Y-36000D01*
X71750Y-32000D02*
X71750Y-37000D01*
X72250Y-31000D02*
X72250Y-38000D01*
X69250Y-38000D02*
X69250Y-31500D01*
X69750Y-37000D02*
X69750Y-32500D01*
X70250Y-36000D02*
X70250Y-33500D01*
X70750Y-34000D02*
X70750Y-35000D01*
G54D23*
X44000Y-37500D02*
X40250Y-37500D01*
X32500Y-33250D02*
X32500Y-29750D01*
M02*
