M48
;DRILL file {PCBnew (2010-00-09 BZR 23xx)-stable} date Wed 31 Aug 2011 10:04:29 AM CEST
;FORMAT={-.-/ absolute / inch / decimal}
R,T
VER,1
FMAT,2
INCH,TZ
TCST,OFF
ICI,OFF
ATC,ON
T1C0.027
T2C0.028
T3C0.032
T4C0.035
T5C0.036
T6C0.037
T7C0.039
T8C0.040
T9C0.090
T10C0.126
%
M47
G05
M72
T1
X3.800Y-5.090
T2
X2.575Y-3.325
X2.575Y-3.400
X2.850Y-3.400
X3.050Y-3.325
X3.250Y-2.975
X3.250Y-3.325
X3.450Y-4.000
X3.450Y-4.600
X3.500Y-2.975
X3.650Y-2.975
X3.725Y-2.525
X3.725Y-2.975
X3.775Y-2.275
X3.775Y-2.925
X3.825Y-2.025
X3.825Y-2.875
X3.900Y-4.375
X3.900Y-4.675
X4.025Y-3.750
X4.175Y-3.150
X4.175Y-3.500
X4.250Y-3.600
X4.275Y-1.950
X4.275Y-2.825
X4.300Y-4.325
X4.300Y-4.425
X4.300Y-4.600
X4.350Y-3.200
X4.350Y-3.450
X4.400Y-2.675
X4.400Y-3.000
X4.400Y-3.600
X4.400Y-3.750
X4.450Y-2.425
X4.450Y-2.950
X4.450Y-4.600
X4.475Y-3.250
X4.475Y-3.350
X4.500Y-2.175
X4.500Y-2.900
X4.550Y-1.925
X4.550Y-2.850
X4.850Y-3.000
X4.850Y-3.500
X4.925Y-3.000
X4.925Y-3.400
X4.975Y-3.500
X4.975Y-4.000
X5.025Y-3.150
X5.025Y-3.700
X5.075Y-3.100
X5.075Y-3.600
X5.125Y-2.900
X5.125Y-4.100
X5.175Y-2.950
X5.175Y-3.400
X5.225Y-3.050
X5.225Y-4.400
X5.575Y-4.500
X5.575Y-4.700
X5.775Y-2.850
X5.775Y-3.900
X6.075Y-3.800
X6.075Y-4.850
X6.125Y-3.700
X6.125Y-4.800
X6.175Y-3.600
X6.175Y-4.750
X6.225Y-3.500
X6.225Y-4.700
X6.275Y-3.400
X6.275Y-4.650
X6.300Y-2.550
X6.300Y-2.725
X6.325Y-3.300
X6.325Y-4.150
X6.375Y-3.200
X6.375Y-4.100
X6.425Y-3.100
X6.425Y-4.050
X6.925Y-3.150
X6.925Y-3.800
X6.975Y-3.250
X6.975Y-3.700
X7.025Y-3.350
X7.025Y-3.600
X7.075Y-3.400
X7.075Y-3.500
X7.100Y-4.250
X7.100Y-5.050
X7.125Y-3.300
X7.125Y-3.600
X7.175Y-2.550
X7.175Y-2.725
X7.175Y-3.200
X7.175Y-3.700
X7.185Y-4.250
X7.185Y-4.450
X7.225Y-3.100
X7.225Y-3.800
X7.425Y-4.300
X7.475Y-4.450
X7.575Y-4.500
X7.575Y-4.900
X7.625Y-3.600
X7.725Y-4.450
X7.775Y-4.600
X7.775Y-4.950
X7.825Y-3.600
X7.825Y-4.300
X8.025Y-3.800
X8.025Y-4.850
X8.075Y-3.900
X8.075Y-4.800
T3
X2.275Y-4.600
X2.275Y-4.800
X2.375Y-3.450
X2.375Y-3.750
X2.425Y-3.900
X2.425Y-4.000
X2.425Y-4.100
X2.425Y-4.200
X2.425Y-4.300
X2.425Y-4.400
X2.425Y-4.500
X2.425Y-4.600
X2.425Y-4.700
X2.425Y-4.800
X2.475Y-3.650
X2.475Y-3.750
X2.725Y-3.900
X2.725Y-4.000
X2.725Y-4.100
X2.725Y-4.200
X2.725Y-4.300
X2.725Y-4.400
X2.725Y-4.500
X2.725Y-4.600
X2.725Y-4.700
X2.725Y-4.800
X2.775Y-3.650
X2.775Y-3.750
X2.875Y-4.700
X2.875Y-4.800
X2.925Y-3.400
X2.925Y-3.750
X2.950Y-4.255
X2.950Y-4.445
X2.975Y-3.600
X2.975Y-3.950
X3.025Y-3.525
X3.075Y-3.600
X3.075Y-3.950
X3.100Y-1.900
X3.100Y-2.025
X3.100Y-2.150
X3.100Y-2.275
X3.100Y-2.400
X3.100Y-2.525
X3.125Y-3.400
X3.125Y-3.750
X3.150Y-4.250
X3.150Y-4.450
X3.175Y-4.700
X3.175Y-4.800
X3.250Y-4.250
X3.250Y-4.450
X3.400Y-1.900
X3.400Y-2.025
X3.400Y-2.150
X3.400Y-2.275
X3.400Y-2.400
X3.400Y-2.525
X3.475Y-2.750
X3.525Y-2.225
X3.525Y-2.475
X3.527Y-1.967
X3.575Y-2.750
X3.600Y-2.175
X3.600Y-2.275
X3.600Y-2.425
X3.600Y-2.525
X3.602Y-1.917
X3.602Y-2.017
X4.575Y-4.300
X4.615Y-4.660
X4.615Y-4.860
X4.650Y-1.925
X4.650Y-2.025
X4.650Y-2.175
X4.650Y-2.275
X4.650Y-2.425
X4.650Y-2.525
X4.650Y-2.675
X4.650Y-2.775
X4.675Y-4.300
X4.715Y-4.660
X4.715Y-4.860
X4.725Y-1.975
X4.725Y-2.225
X4.725Y-2.475
X4.725Y-2.725
X4.850Y-1.900
X4.850Y-2.025
X4.850Y-2.150
X4.850Y-2.275
X4.850Y-2.400
X4.850Y-2.525
X4.850Y-2.650
X4.850Y-2.775
X4.875Y-3.900
X4.875Y-4.200
X4.915Y-4.665
X4.915Y-4.855
X5.150Y-1.900
X5.150Y-2.025
X5.150Y-2.150
X5.150Y-2.275
X5.150Y-2.400
X5.150Y-2.525
X5.150Y-2.650
X5.150Y-2.775
X5.325Y-3.000
X5.325Y-3.100
X5.325Y-3.200
X5.325Y-3.300
X5.325Y-3.400
X5.325Y-3.500
X5.325Y-3.600
X5.325Y-3.700
X5.325Y-3.800
X5.325Y-3.900
X5.325Y-4.000
X5.325Y-4.100
X5.325Y-4.200
X5.325Y-4.300
X5.325Y-4.400
X5.325Y-4.500
X5.325Y-4.600
X5.325Y-4.700
X5.325Y-4.800
X5.325Y-4.900
X5.925Y-3.000
X5.925Y-3.100
X5.925Y-3.200
X5.925Y-3.300
X5.925Y-3.400
X5.925Y-3.500
X5.925Y-3.600
X5.925Y-3.700
X5.925Y-3.800
X5.925Y-3.900
X5.925Y-4.000
X5.925Y-4.100
X5.925Y-4.200
X5.925Y-4.300
X5.925Y-4.400
X5.925Y-4.500
X5.925Y-4.600
X5.925Y-4.700
X5.925Y-4.800
X5.925Y-4.900
X6.105Y-3.000
X6.305Y-3.000
X6.525Y-3.000
X6.525Y-3.100
X6.525Y-3.200
X6.525Y-3.300
X6.525Y-3.400
X6.525Y-3.500
X6.525Y-3.600
X6.525Y-3.700
X6.525Y-3.800
X6.525Y-3.900
X6.825Y-3.000
X6.825Y-3.100
X6.825Y-3.200
X6.825Y-3.300
X6.825Y-3.400
X6.825Y-3.500
X6.825Y-3.600
X6.825Y-3.700
X6.825Y-3.800
X6.825Y-3.900
X6.975Y-3.000
X7.175Y-3.000
X7.325Y-2.900
X7.325Y-3.000
X7.325Y-3.100
X7.325Y-3.200
X7.325Y-3.300
X7.325Y-3.400
X7.325Y-3.500
X7.325Y-3.600
X7.325Y-3.700
X7.325Y-3.800
X7.325Y-3.900
X7.325Y-4.000
X7.325Y-4.100
X7.325Y-4.200
X7.925Y-2.900
X7.925Y-3.000
X7.925Y-3.100
X7.925Y-3.200
X7.925Y-3.300
X7.925Y-3.400
X7.925Y-3.500
X7.925Y-3.600
X7.925Y-3.700
X7.925Y-3.800
X7.925Y-3.900
X7.925Y-4.000
X7.925Y-4.100
X7.925Y-4.200
X8.050Y-2.900
X8.250Y-2.900
T4
X3.666Y-4.842
X3.666Y-4.940
X3.749Y-4.940
X3.851Y-4.940
X3.934Y-4.842
X3.934Y-4.940
T5
X3.625Y-3.500
X3.625Y-3.600
X3.625Y-3.700
X3.625Y-3.800
X3.625Y-3.900
X3.625Y-4.000
X3.625Y-4.100
X3.625Y-4.200
X3.725Y-3.500
X3.725Y-3.600
X3.725Y-3.700
X3.725Y-3.800
X3.725Y-3.900
X3.725Y-4.000
X3.725Y-4.100
X3.725Y-4.200
X4.000Y-2.050
X4.000Y-2.150
X4.000Y-2.250
X4.000Y-2.350
X4.000Y-2.450
X4.000Y-2.550
X4.000Y-2.650
X4.100Y-2.050
X4.100Y-2.150
X4.100Y-2.250
X4.100Y-2.350
X4.100Y-2.450
X4.100Y-2.550
X4.100Y-2.650
X4.575Y-3.600
X4.575Y-3.700
X4.575Y-3.800
X4.575Y-3.900
X4.575Y-4.000
X4.675Y-3.600
X4.675Y-3.700
X4.675Y-3.800
X4.675Y-3.900
X4.675Y-4.000
T6
X2.601Y-2.182
X2.601Y-2.260
X2.699Y-2.182
X2.699Y-2.260
T7
X3.250Y-3.436
X3.250Y-3.965
T8
X4.025Y-3.850
X4.125Y-4.250
X4.225Y-3.850
T9
X2.413Y-2.075
X2.887Y-2.075
T10
X2.225Y-1.850
X2.225Y-5.075
X8.175Y-1.850
X8.175Y-5.075
T0
M30
